<?xml version="1.0" encoding="UTF-8"?>
<svg xmlns="http://www.w3.org/2000/svg" width="512" height="512" version="1.1" viewBox="0 0 512 512">
  <defs>
    <style>
      .cls-1 {
        fill: #fcf9e8;
      }

      .cls-2 {
        fill: #79757f;
      }

      .cls-3 {
        fill: #424042;
      }
    </style>
  </defs>
  <!-- Generator: Adobe Illustrator 28.6.0, SVG Export Plug-In . SVG Version: 1.2.0 Build 594)  -->
  <g>
    <g id="Layer_1">
      <g id="Layer_1-2" data-name="Layer_1">
        <path class="cls-2" d="M250.9,82.5c4.1-7.1,14.1-7.1,18.2,0,36.2,62.7,168.2,96.1,177.7,197.8,8.4,89.8-59,163.3-186.8,163.3s-195.2-73.5-186.8-163.3c9.5-101.7,141.5-135.1,177.7-197.8h0Z"/>
        <path class="cls-1" d="M428.2,282c-5-53.9-52.2-87.1-97.9-119.3-24.2-17-47.4-33.4-64.1-52.5-3.2-3.7-9.1-3.7-12.3,0-16.7,19.2-39.9,35.5-64.1,52.5-45.6,32.1-92.8,65.3-97.9,119.3-3.4,35.9,6.8,67.9,29.4,92.8,29.4,32.2,78.6,50,138.7,50s109.3-17.8,138.7-50c22.6-24.8,32.8-56.9,29.4-92.8h.1Z"/>
        <g>
          <path class="cls-3" d="M170.4,331.3c-2.8,0-5.6-1.2-7.4-3.6-3.2-4.1-2.4-10,1.6-13.2l5.3-4.1c4.1-3.2,10-2.4,13.2,1.6,3.2,4.1,2.4,10-1.6,13.2l-5.3,4.1c-1.7,1.3-3.7,2-5.8,2Z"/>
          <path class="cls-3" d="M167.7,285c-2.1,0-4.1-.7-5.8-2.1l-2.9-2.3c-4-3.2-4.7-9.1-1.5-13.2,3.2-4,9.1-4.7,13.2-1.5l2.9,2.3c4,3.2,4.7,9.1,1.5,13.2-1.9,2.3-4.6,3.5-7.3,3.5h0Z"/>
          <path class="cls-3" d="M212.4,240.4c-2.7,0-5.4-1.1-7.2-3.4l-2.9-3.5c-3.3-4-2.8-9.9,1.2-13.2s9.9-2.8,13.2,1.2l2.9,3.5c3.3,4,2.8,9.9-1.2,13.2-1.8,1.5-3.9,2.2-6,2.2Z"/>
          <path class="cls-3" d="M261.2,196.3c-3.2,0-6.3-1.6-8-4.5-2.7-4.4-1.2-10.2,3.2-12.9l2.9-1.8c4.4-2.7,10.2-1.2,12.9,3.2,2.7,4.4,1.2,10.2-3.2,12.9l-2.9,1.8c-1.5.9-3.2,1.3-4.8,1.3h-.1Z"/>
          <path class="cls-3" d="M306.9,239.1c-2.9,0-5.8-1.3-7.6-3.9-3.1-4.2-2.1-10.1,2.1-13.1l6.4-4.7c4.2-3,10.1-2.1,13.1,2.1,3,4.2,2.1,10.1-2.1,13.1l-6.4,4.7c-1.7,1.2-3.6,1.8-5.5,1.8h0Z"/>
          <path class="cls-3" d="M341.3,276.4c-4.4,0-8.3-3.1-9.2-7.5l-1.2-5.9c-1-5.1,2.3-10,7.4-11s10,2.3,11,7.4l1.2,5.9c1,5.1-2.3,10-7.4,11-.6.1-1.2.2-1.8.2h0Z"/>
          <path class="cls-3" d="M362.6,317.6c-1.4,0-2.8-.3-4.2-1l-4.7-2.3c-4.6-2.3-6.5-7.9-4.2-12.6,2.3-4.6,7.9-6.5,12.6-4.2l4.7,2.3c4.6,2.3,6.5,7.9,4.2,12.6-1.6,3.3-5,5.2-8.4,5.2Z"/>
        </g>
        <path class="cls-3" d="M331.1,360c-5.2,0-9.4-4.2-9.4-9.4v-1.2c0-5.2,4.2-9.4,9.4-9.4s9.4,4.2,9.4,9.4v1.2c0,5.2-4.2,9.4-9.4,9.4Z"/>
        <path class="cls-3" d="M218.7,302.9c-3.2,0-6.3-1.6-8.1-4.6l-5.7-9.5c-2.7-4.4-1.2-10.2,3.2-12.9,4.4-2.7,10.2-1.2,12.9,3.2l5.7,9.5c2.7,4.4,1.2,10.2-3.2,12.9-1.5.9-3.2,1.3-4.8,1.3h0Z"/>
        <path class="cls-3" d="M271.8,284.8c-2.9,0-5.7-1.3-7.5-3.7-3.1-4.1-2.3-10,1.9-13.1l2.3-1.8c4.1-3.1,10-2.3,13.1,1.9,3.1,4.1,2.3,10-1.9,13.1l-2.3,1.8c-1.7,1.3-3.7,1.9-5.6,1.9h0Z"/>
        <path class="cls-3" d="M208.5,363.9c-1.8,0-3.6-.5-5.2-1.5l-2.4-1.6c-4.3-2.9-5.5-8.7-2.7-13,2.9-4.3,8.7-5.5,13-2.7l2.4,1.6c4.3,2.9,5.5,8.7,2.7,13-1.8,2.7-4.8,4.2-7.8,4.2Z"/>
        <path class="cls-3" d="M252.2,244.3c-2,0-3.9-.6-5.6-1.9l-2.3-1.8c-4.1-3.1-5-9-1.9-13.1s9-5,13.1-1.9l2.3,1.8c4.1,3.1,5,9,1.9,13.1-1.8,2.5-4.6,3.7-7.5,3.7h0Z"/>
        <path class="cls-3" d="M301.7,319.9c-3.4,0-6.7-1.9-8.4-5.2l-.6-1.2c-2.3-4.6-.4-10.3,4.2-12.6,4.6-2.3,10.3-.4,12.6,4.2l.6,1.2c2.3,4.6.4,10.3-4.2,12.6-1.3.7-2.8,1-4.2,1Z"/>
        <path class="cls-3" d="M266.4,345.6c-3.4,0-6.7-1.9-8.4-5.2l-.6-1.2c-2.3-4.6-.4-10.3,4.2-12.6,4.6-2.3,10.3-.4,12.6,4.2l.6,1.2c2.3,4.6.4,10.3-4.2,12.6-1.3.7-2.8,1-4.2,1Z"/>
      </g>
    </g>
  </g>
</svg>