<?xml version="1.0" encoding="UTF-8"?>
<svg id="Layer_1" data-name="Layer 1" xmlns="http://www.w3.org/2000/svg" width="512" height="512" version="1.1" viewBox="0 0 512 512">
  <defs>
    <style>
      .cls-1 {
        fill: #000;
        stroke-width: 0px;
      }
    </style>
  </defs>
  <path class="cls-1" d="M148.4,108.6c1.9,3.7.9,6.8-2.8,9.2-3.7,1.9-6.8.9-9.2-2.8-3.7-7.2-9.2-12.8-16.4-16.8s-15.3-6-24.4-6-12.5,1.2-18.2,3.6c-5.7,2.4-10.7,5.7-14.8,10-4.1,4.3-7.5,9.3-10,15-2.5,5.7-3.8,11.8-3.8,18.2v29.6h64.4c1.9,0,3.4.6,4.6,1.9,1.2,1.3,1.8,2.8,1.8,4.7s-.6,3.4-1.8,4.7c-1.2,1.3-2.7,1.9-4.6,1.9H48.8v175.6c0,4.5-2.3,6.8-6.8,6.8s-6.4-2.3-6.4-6.8v-175.6H6.8c-2.1,0-3.8-.6-5-1.9-1.2-1.3-1.8-2.8-1.8-4.7s.6-3.4,1.8-4.7c1.2-1.3,2.9-1.9,5-1.9h28.8v-29.6c0-8.3,1.6-16.1,4.8-23.4,3.2-7.3,7.5-13.7,12.8-19,5.3-5.3,11.7-9.6,19-12.8,7.3-3.2,15.1-4.8,23.4-4.8,11.7,0,22.1,2.6,31.2,7.8,9.1,5.2,16.3,12.5,21.6,21.8Z"/>
  <path class="cls-1" d="M146,126.2c3.7,0,6.8,1.2,9.2,3.6,2.4,2.4,3.6,5.5,3.6,9.2s-1.2,6.9-3.6,9.4c-2.4,2.5-5.5,3.8-9.2,3.8s-6.9-1.3-9.4-3.8c-2.5-2.5-3.8-5.7-3.8-9.4s1.3-6.8,3.8-9.2c2.5-2.4,5.7-3.6,9.4-3.6ZM146,364.2c-4.5,0-6.8-2.3-6.8-6.8v-182c0-1.9.6-3.5,1.8-4.8,1.2-1.3,2.9-2,5-2s3.4.7,4.6,2c1.2,1.3,1.8,2.9,1.8,4.8v182c0,4.5-2.1,6.8-6.4,6.8Z"/>
  <path class="cls-1" d="M328.2,168.6c1.7,0,3.1.7,4.1,2,1.1,1.3,1.6,2.9,1.6,4.8v191.2c0,10.7-1.9,20.6-5.8,29.8-3.8,9.2-9.1,17.2-15.8,24-6.7,6.8-14.6,12.1-23.8,16-9.1,3.9-19,5.8-29.5,5.8-37.7,0-66.5-16-86.4-48-1-1.6-1.3-3.3-.9-5,.4-1.7,1.1-3.1,2.3-4.2,3.4-2.7,6.1-2.1,8.3,1.6,9.1,14.4,19.9,25.1,32.2,32,12.4,6.9,27.2,10.4,44.5,10.4s17.2-1.6,24.8-4.8c7.7-3.2,14.3-7.6,20-13.2,5.6-5.6,10.1-12.2,13.3-19.8,3.2-7.6,4.9-15.8,4.9-24.6v-31.6c-8.2,9.3-17.6,16.5-28.4,21.6-10.8,5.1-22.2,7.6-34.2,7.6s-23.3-2.6-34-7.8c-10.7-5.2-20-12.2-27.9-21-7.9-8.8-14.2-19.1-18.9-31-4.7-11.9-7-24.5-7-37.8s2.3-26.3,7-38.2c4.7-11.9,11-22.2,18.9-31,7.9-8.8,17.2-15.8,27.9-21,10.7-5.2,22-7.8,34-7.8s23.4,2.5,34.2,7.6c10.8,5.1,20.3,12.3,28.4,21.6v-22.4c0-1.9.6-3.5,1.8-4.8,1.2-1.3,2.6-2,4.3-2ZM259.4,351c12.7,0,24.6-3.3,35.6-9.8,11-6.6,20-15.6,27-27.1v-95.4c-7-11.8-16-20.9-27-27.3-11-6.4-22.9-9.6-35.6-9.6s-20.4,2.2-29.5,6.6c-9.1,4.4-17.2,10.4-24.1,18-7,7.6-12.4,16.6-16.4,26.9-4,10.3-5.9,21.3-5.9,33.1s2,22.7,5.9,32.9,9.4,19.1,16.4,26.9c7,7.8,15,13.8,24.1,18.2,9.1,4.4,19,6.6,29.5,6.6Z"/>
  <path class="cls-1" d="M508,349.8c2.4,3.7,2,6.9-1.2,9.6-1.3.8-2.7,1.2-4,1.2-2.1,0-4-.8-5.6-2.4l-63.6-82.4-64,82.4c-1.6,1.6-3.3,2.4-5.2,2.4s-3.3-.4-4.4-1.2c-3.2-2.7-3.6-5.9-1.2-9.6l66.4-85.2-66.4-85.2c-1.1-1.3-1.5-2.9-1.2-4.6.3-1.7,1.1-3.3,2.4-4.6,1.6-1.3,3.3-1.8,5-1.4,1.7.4,3.3,1.3,4.6,2.6l64,82.4,63.6-82.4c1.3-1.3,2.9-2.2,4.8-2.6,1.9-.4,3.5,0,4.8,1.4,1.3,1.3,2.1,2.9,2.4,4.6.3,1.7-.1,3.3-1.2,4.6l-66,85.2,66,85.2Z"/>
</svg>