<?xml version="1.0" encoding="UTF-8"?>
<svg id="Layer_1" data-name="Layer 1" xmlns="http://www.w3.org/2000/svg" width="150" height="150" version="1.1" viewBox="0 0 150 150">
  <defs>
    <style>
      .cls-1 {
        fill: #010101;
        stroke-width: 0px;
      }
    </style>
  </defs>
  <polygon class="cls-1" points="50.9 33.3 50.9 45.2 30.7 56.8 30.7 21.7 50.9 33.3"/>
  <polygon class="cls-1" points="95.6 32.7 75.4 44.2 32.1 19.3 50.9 8.5 50.9 8.6 52.4 7.7 95.6 32.7"/>
  <polygon class="cls-1" points="118.5 85.8 98.4 97.4 53.4 71.5 32.1 59.2 52.4 47.6 118.5 85.8"/>
  <polygon class="cls-1" points="72.5 85.7 52.2 97.4 32.1 85.8 52.3 74.1 72.5 85.7"/>
  <polygon class="cls-1" points="49.5 72.5 30.7 83.3 30.7 61.6 49.5 72.5"/>
  <polygon class="cls-1" points="118.5 59.2 98.2 70.8 78.1 59.2 98.2 47.6 118.5 59.2"/>
  <polygon class="cls-1" points="133.6 124.7 129.6 129.6 121.1 118.9 129 118.9 133.6 124.7"/>
  <polygon class="cls-1" points="138.8 131.3 147.3 142 139.4 142 134.9 136.2 134.6 135.8 134.2 135.4 129 142 121.1 142 130.3 130.5 134.2 125.5 139.4 118.9 147.3 118.9 138.2 130.5 138.5 130.9 138.8 131.3"/>
  <rect class="cls-1" x="1.8" y="118.9" width="26.2" height="5.8"/>
  <rect class="cls-1" x="1.8" y="127.6" width="26.2" height="5.8"/>
  <rect class="cls-1" x="1.8" y="127.6" width="5.8" height="14.4"/>
  <rect class="cls-1" x="48.4" y="118.9" width="5.8" height="23"/>
  <rect class="cls-1" x="74.6" y="118.9" width="26.2" height="5.8"/>
  <rect class="cls-1" x="74.6" y="136.2" width="26.2" height="5.8"/>
  <rect class="cls-1" x="74.6" y="127.6" width="5.8" height="14.4"/>
  <rect class="cls-1" x="95" y="127.6" width="5.8" height="14.4"/>
  <rect class="cls-1" x="87.7" y="127.6" width="13.1" height="5.8"/>
</svg>