<?xml version="1.0" encoding="UTF-8"?>
<svg id="Layer_1" data-name="Layer 1" xmlns="http://www.w3.org/2000/svg" width="92" height="92" version="1.1" viewBox="0 0 92 92">
  <defs>
    <style>
      .cls-1 {
        fill: #000;
        stroke-width: 0px;
      }
    </style>
  </defs>
  <polygon class="cls-1" points="1.6 14.7 22.8 26.9 22.8 39.3 1.6 51.5 1.6 14.7"/>
  <polygon class="cls-1" points="2.5 13.1 22.9 1.4 22.9 1.5 23.8 1 68 26.5 46.8 38.6 2.5 13.1"/>
  <polygon class="cls-1" points="2.5 53 23.8 40.8 90.9 79.6 69.8 91.8 2.5 53"/>
  <polygon class="cls-1" points="2.5 79.6 23.8 67.3 45 79.5 23.7 91.8 2.5 79.6"/>
  <polygon class="cls-1" points="1.6 54.5 22 66.3 1.6 78 1.6 54.5"/>
  <polygon class="cls-1" points="48.5 53 69.7 40.8 90.9 53 69.7 65.2 48.5 53"/>
</svg>