<?xml version="1.0" encoding="UTF-8"?>
<svg id="Layer_1" data-name="Layer 1" xmlns="http://www.w3.org/2000/svg" width="150" height="150" version="1.1" viewBox="0 0 150 150">
  <defs>
    <style>
      .cls-1 {
        fill: #000;
        stroke-width: 0px;
      }
    </style>
  </defs>
  <path class="cls-1" d="M31.6,60.6l21.7-12.4,67.5,39-21.5,12.4L31.6,60.6ZM31.6,87.2l21.7-12.5,21.6,12.4-21.7,12.5-21.5-12.4ZM30.9,61.8l21,12.1-21,12.1v-24.2ZM77.6,60.6l21.5-12.4,21.7,12.4-21.6,12.5-21.6-12.5ZM30.9,21.9l21.6,12.4v12.7s-21.6,12.3-21.6,12.3V21.9ZM31.6,20.8l20.5-11.8,1.1-.7,44.7,25.8-21.6,12.4L31.6,20.8Z"/>
  <polygon class="cls-1" points="134.5 126.1 130.6 131.1 122.1 120.4 130 120.4 134.5 126.1"/>
  <polygon class="cls-1" points="139.8 132.7 148.2 143.4 140.3 143.4 135.8 137.7 135.5 137.3 135.2 136.9 130 143.4 122.1 143.4 131.2 131.9 135.2 126.9 140.3 120.4 148.2 120.4 139.1 131.9 139.4 132.3 139.8 132.7"/>
  <rect class="cls-1" x="2.8" y="120.4" width="26.2" height="5.8"/>
  <rect class="cls-1" x="2.8" y="129" width="26.2" height="5.8"/>
  <rect class="cls-1" x="2.8" y="129" width="5.8" height="14.4"/>
  <rect class="cls-1" x="49.3" y="120.4" width="5.8" height="23"/>
  <rect class="cls-1" x="75.5" y="120.4" width="26.2" height="5.8"/>
  <rect class="cls-1" x="75.5" y="137.6" width="26.2" height="5.8"/>
  <rect class="cls-1" x="75.5" y="129" width="5.8" height="14.4"/>
  <rect class="cls-1" x="95.9" y="129" width="5.8" height="14.4"/>
  <rect class="cls-1" x="88.6" y="129" width="13.1" height="5.8"/>
</svg>