<?xml version="1.0" encoding="UTF-8"?>
<svg id="Layer_1" data-name="Layer 1" xmlns="http://www.w3.org/2000/svg" width="411" height="165.4" version="1.1" viewBox="0 0 411 165.4">
  <defs>
    <style>
      .cls-1 {
        fill: #f2f3f4;
      }

      .cls-1, .cls-2, .cls-3, .cls-4 {
        stroke-width: 0px;
      }

      .cls-5 {
        fill: #7a7680;
        font-family: Apparat-Hairline, Apparat;
        font-size: 17px;
        font-weight: 100;
      }

      .cls-5, .cls-6, .cls-7 {
        isolation: isolate;
      }

      .cls-2 {
        fill: #434042;
      }

      .cls-3 {
        fill: #ddd9e2;
      }

      .cls-6 {
        font-family: CaviarDreams, 'Caviar Dreams';
        font-size: 128.1px;
      }

      .cls-6, .cls-4 {
        fill: #444;
      }
    </style>
  </defs>
  <g id="Layer_1-2" data-name="Layer 1">
    <rect class="cls-1" x="-82.8" y="520.7" width="520" height="278.6" rx="21.1" ry="21.1"/>
    <g id="Layer_1-2" data-name="Layer 1-2">
      <path class="cls-4" d="M61.7,17.5c1.3-2.1,4.2-2.1,5.5,0,10.9,18.9,50.7,29,53.6,59.6,2.5,27.1-17.8,49.2-56.3,49.2S5.6,104.2,8.2,77.1c2.8-30.7,42.7-40.7,53.6-59.6h0Z"/>
      <path class="cls-3" d="M115.2,77.7c-1.5-16.2-15.7-26.3-29.5-36-7.3-5.2-14.3-10-19.3-15.8-.9-1.2-2.7-1.2-3.7,0-5.1,5.8-12,10.7-19.3,15.8-13.7,9.7-27.9,19.7-29.5,36-1.1,10.9,2,20.5,8.9,27.9,8.9,9.7,23.7,15.1,41.9,15.1s32.9-5.4,41.9-15.1c6.9-7.5,9.9-17.2,8.9-27.9h-.1Z"/>
      <g>
        <path class="cls-2" d="M37.5,92.6c-.8,0-1.7-.3-2.2-1.1-.9-1.3-.7-3.1.5-4l1.6-1.3c1.3-.9,3.1-.7,4,.5s.7,3.1-.5,4l-1.6,1.3c-.5.4-1.2.6-1.8.6h0Z"/>
        <path class="cls-2" d="M36.6,78.5c-.6,0-1.3-.2-1.8-.6l-.8-.7c-1.2-.9-1.4-2.7-.4-4,.9-1.2,2.7-1.4,4-.4l.8.7c1.2.9,1.4,2.7.4,4-.5.7-1.4,1.1-2.2,1.1h0Z"/>
        <path class="cls-2" d="M50.1,65.1c-.8,0-1.6-.3-2.2-1.1l-.8-1.1c-.9-1.2-.8-3,.3-4s3-.8,4,.3l.8,1.1c.9,1.2.8,3-.3,4-.5.4-1.2.6-1.8.6h0Z"/>
        <path class="cls-2" d="M64.8,51.9c-.9,0-1.9-.5-2.4-1.4-.8-1.4-.3-3.1.9-3.9l.8-.5c1.4-.8,3.1-.3,3.9.9.8,1.4.3,3.1-.9,3.9l-.8.5c-.4.3-.9.4-1.5.4h0Z"/>
        <path class="cls-2" d="M78.6,64.7c-.8,0-1.8-.4-2.3-1.2-.9-1.3-.6-3.1.6-3.9l1.9-1.4c1.3-.9,3.1-.6,3.9.6.9,1.3.6,3.1-.6,3.9l-1.9,1.4c-.5.3-1.1.5-1.7.5h.1Z"/>
        <path class="cls-2" d="M88.9,76c-1.4,0-2.5-.9-2.7-2.2l-.3-1.8c-.3-1.6.7-3.1,2.2-3.3s3.1.7,3.3,2.2l.3,1.8c.3,1.6-.7,3.1-2.2,3.3h-.5Z"/>
        <path class="cls-2" d="M95.4,88.4c-.4,0-.8,0-1.3-.3l-1.4-.7c-1.4-.7-2-2.4-1.3-3.8.7-1.4,2.4-2,3.8-1.3l1.4.7c1.4.7,2,2.4,1.3,3.8-.5.9-1.5,1.6-2.5,1.6Z"/>
      </g>
      <path class="cls-2" d="M85.9,101.2c-1.6,0-2.8-1.3-2.8-2.8v-.3c0-1.6,1.3-2.8,2.8-2.8s2.8,1.3,2.8,2.8v.3c0,1.6-1.3,2.8-2.8,2.8Z"/>
      <path class="cls-2" d="M52,84c-.9,0-1.9-.5-2.4-1.4l-1.7-2.8c-.8-1.4-.3-3.1.9-3.9,1.4-.8,3.1-.3,3.9.9l1.7,2.8c.8,1.4.3,3.1-.9,3.9-.4.3-.9.4-1.5.4h0Z"/>
      <path class="cls-2" d="M68.1,78.5c-.8,0-1.7-.4-2.2-1.2-.9-1.3-.7-3.1.5-3.9l.7-.5c1.3-.9,3.1-.7,3.9.5.9,1.3.7,3.1-.5,3.9l-.7.5c-.5.4-1.2.5-1.7.5h0Z"/>
      <path class="cls-2" d="M49,102.4c-.5,0-1.1-.1-1.6-.4l-.7-.5c-1.3-.8-1.7-2.6-.8-3.9.8-1.3,2.6-1.7,3.9-.8l.7.5c1.3.8,1.7,2.6.8,3.9-.5.8-1.5,1.3-2.3,1.3Z"/>
      <path class="cls-2" d="M62.2,66.3c-.6,0-1.2-.2-1.7-.5l-.7-.5c-1.3-.9-1.5-2.7-.5-3.9s2.7-1.5,3.9-.5l.7.5c1.3.9,1.5,2.7.5,3.9-.5.7-1.4,1.2-2.2,1.2h0Z"/>
      <path class="cls-2" d="M77,89.1c-1.1,0-2-.5-2.5-1.6l-.2-.3c-.7-1.4-.1-3.1,1.3-3.8,1.4-.7,3.1-.1,3.8,1.3l.2.3c.7,1.4.1,3.1-1.3,3.8-.4.2-.8.3-1.3.3Z"/>
      <path class="cls-2" d="M66.4,96.9c-1.1,0-2-.5-2.5-1.6l-.2-.3c-.7-1.4-.1-3.1,1.3-3.8,1.4-.7,3.1-.1,3.8,1.3l.2.3c.7,1.4.1,3.1-1.3,3.8-.4.2-.8.3-1.3.3Z"/>
    </g>
    <g class="cls-7">
      <text class="cls-6" transform="translate(143.1 120.1)"><tspan x="0" y="0">FIGX</tspan></text>
    </g>
    <g class="cls-7">
      <text class="cls-5" transform="translate(7 155.8)"><tspan x="0" y="0">An innovation research group </tspan></text>
      <text class="cls-5" transform="translate(232 155.5)"><tspan x="0" y="0">created by Fumeng </tspan></text>
    </g>
  </g>
</svg>