<?xml version="1.0" encoding="UTF-8"?>
<svg id="Layer_1" data-name="Layer 1" xmlns="http://www.w3.org/2000/svg" width="467" height="200" version="1.1" viewBox="0 0 467 200">
  <defs>
    <style>
      .cls-1 {
        fill: #454545;
      }

      .cls-1, .cls-2 {
        stroke-width: 0px;
      }

      .cls-2 {
        fill: #919191;
      }

      .cls-3 {
        isolation: isolate;
      }
    </style>
  </defs>
  <g id="Layer_1-2" data-name="Layer 1-2">
    <g class="cls-3">
      <g class="cls-3">
        <g class="cls-3">
          <path class="cls-1" d="M77.4,27.3v6.3h-43v46.8h43v6.3h-43v53.2h-6.3V27.3h49.3Z"/>
          <path class="cls-1" d="M154.4,27.3v112.7h-6.3V27.3h6.3Z"/>
          <path class="cls-1" d="M321.1,126c-10.7,10.2-23.5,15.3-38.4,15.3s-29.6-5.6-40.8-16.9c-11.2-11.2-16.9-24.8-16.9-40.8s5.6-29.5,16.9-40.8c11.2-11.3,24.8-16.9,40.8-16.9s27.8,5,38.8,15l-4.8,4.4c-9.7-8.6-21-12.9-34-12.9s-26.2,5-36.2,15c-10,10-15,22.1-15,36.2s5,26.3,15,36.3c10,10,22.1,15,36.2,15s22.8-3.7,32-11.2v-34.4h6.3v36.6h.1Z"/>
          <path class="cls-1" d="M383.7,140l35.7-61.9-29.3-50.8h7.3l25.6,44.5,25.8-44.5h7.3l-29.4,50.8,35.8,61.9h-7.3l-32.2-55.6-32.1,55.6h-7.2,0Z"/>
        </g>
      </g>
    </g>
  </g>
  <g>
    <path class="cls-2" d="M30,170.1v-1.1h8v1.1h-3.3v8.9h-1.3v-8.9h-3.3Z"/>
    <path class="cls-2" d="M40.5,169v3.8h0c0-.2.2-.4.4-.6.2-.2.4-.3.6-.4.2,0,.4-.2.7-.2.2,0,.5,0,.7,0,.5,0,.9,0,1.2.2s.6.3.8.5.3.5.4.8c0,.3.1.7.1,1.1v4.8h-1.2v-4.9c0-.4-.1-.8-.4-1.1-.3-.3-.6-.4-1.1-.4s-.7,0-.9.2c-.3.1-.5.3-.7.5-.2.2-.3.4-.4.7,0,.3-.1.6-.1.9v4.1h-1.2v-10h1.2Z"/>
    <path class="cls-2" d="M47.6,170.5v-1.5h1.2v1.5h-1.2ZM48.8,171.8v7.2h-1.2v-7.2h1.2Z"/>
    <path class="cls-2" d="M52,177.4c.1.2.3.3.4.4s.4.2.6.2c.2,0,.5,0,.7,0s.4,0,.6,0c.2,0,.4,0,.6-.2.2,0,.3-.2.4-.3.1-.1.2-.3.2-.6s-.1-.5-.3-.7c-.2-.2-.5-.3-.9-.4-.4,0-.7-.2-1.1-.3-.4,0-.8-.2-1.1-.3-.4-.1-.6-.3-.9-.6s-.4-.6-.4-1.1,0-.7.2-.9c.2-.3.4-.5.6-.6s.5-.3.9-.4c.3,0,.6-.1,1-.1s.8,0,1.1.1c.3,0,.7.2.9.4.3.2.5.4.6.7s.3.7.3,1.1h-1.2c0-.2,0-.4-.2-.6-.1-.2-.2-.3-.4-.4-.2,0-.3-.2-.5-.2-.2,0-.4,0-.6,0s-.4,0-.5,0c-.2,0-.3,0-.5.1-.1,0-.3.2-.4.3,0,.1-.1.3-.1.5s0,.4.2.5.3.2.6.3c.2,0,.5.2.8.2.3,0,.6.1.8.2.3,0,.6.1.9.2.3,0,.5.2.8.4.2.2.4.3.5.6.1.2.2.5.2.9s0,.8-.3,1.1c-.2.3-.4.5-.7.7-.3.2-.6.3-1,.4-.4,0-.7.1-1.1.1s-.8,0-1.1-.1c-.4,0-.7-.2-1-.4-.3-.2-.5-.4-.7-.8s-.3-.7-.3-1.1h1.2c0,.3,0,.5.2.7Z"/>
    <path class="cls-2" d="M62.9,170.5v-1.5h1.2v1.5h-1.2ZM64.1,171.8v7.2h-1.2v-7.2h1.2Z"/>
    <path class="cls-2" d="M67.3,177.4c.1.2.3.3.4.4s.4.2.6.2c.2,0,.5,0,.7,0s.4,0,.6,0c.2,0,.4,0,.6-.2.2,0,.3-.2.4-.3.1-.1.2-.3.2-.6s-.1-.5-.3-.7c-.2-.2-.5-.3-.9-.4-.4,0-.7-.2-1.1-.3-.4,0-.8-.2-1.1-.3-.4-.1-.6-.3-.9-.6s-.4-.6-.4-1.1,0-.7.2-.9c.2-.3.4-.5.6-.6s.5-.3.9-.4c.3,0,.6-.1,1-.1s.8,0,1.1.1c.3,0,.7.2.9.4.3.2.5.4.6.7s.3.7.3,1.1h-1.2c0-.2,0-.4-.2-.6-.1-.2-.2-.3-.4-.4-.2,0-.3-.2-.5-.2-.2,0-.4,0-.6,0s-.4,0-.5,0c-.2,0-.3,0-.5.1-.1,0-.3.2-.4.3,0,.1-.1.3-.1.5s0,.4.2.5.3.2.6.3c.2,0,.5.2.8.2.3,0,.6.1.8.2.3,0,.6.1.9.2.3,0,.5.2.8.4.2.2.4.3.5.6.1.2.2.5.2.9s0,.8-.3,1.1c-.2.3-.4.5-.7.7-.3.2-.6.3-1,.4-.4,0-.7.1-1.1.1s-.8,0-1.1-.1c-.4,0-.7-.2-1-.4-.3-.2-.5-.4-.7-.8s-.3-.7-.3-1.1h1.2c0,.3,0,.5.2.7Z"/>
    <path class="cls-2" d="M84.5,179c-.2.1-.5.2-.9.2s-.6,0-.7-.3c-.2-.2-.3-.5-.3-.8-.3.4-.7.7-1.1.8-.4.2-.9.3-1.4.3s-.6,0-.9-.1c-.3,0-.5-.2-.8-.3-.2-.2-.4-.4-.5-.6s-.2-.6-.2-.9,0-.7.2-1c.1-.3.3-.5.6-.6.2-.2.5-.3.8-.4.3,0,.6-.2.9-.2.3,0,.6-.1.9-.1.3,0,.6,0,.8-.1s.4-.1.5-.3c.1-.1.2-.3.2-.5s0-.5-.1-.6c0-.2-.2-.3-.4-.4-.2,0-.3-.1-.5-.2-.2,0-.4,0-.6,0-.5,0-.9,0-1.3.3-.3.2-.5.6-.5,1.1h-1.2c0-.4.1-.8.3-1.1.2-.3.4-.6.7-.7.3-.2.6-.3,1-.4s.7-.1,1.2-.1.7,0,1,0c.3,0,.6.1.9.3.3.1.5.3.6.6.2.3.2.6.2,1v3.7c0,.3,0,.5,0,.6,0,.1.1.2.3.2s.2,0,.4,0v.9ZM82.6,175.3c-.1.1-.3.2-.6.2s-.5,0-.8.1c-.3,0-.5,0-.8.1-.3,0-.5.1-.7.2-.2,0-.4.2-.5.4s-.2.4-.2.7,0,.4.1.5c0,.1.2.2.3.3.1,0,.3.1.4.2s.3,0,.5,0c.4,0,.7,0,1-.2.3-.1.5-.2.7-.4.2-.2.3-.3.4-.5s.1-.4.1-.5v-1.2Z"/>
    <path class="cls-2" d="M93.4,171.8v1h-1.4v4.5c0,.1,0,.3,0,.3,0,0,0,.1.1.2s.2,0,.3,0c.1,0,.3,0,.5,0h.5v1h-.9c-.3,0-.6,0-.8,0s-.4-.1-.5-.2-.2-.3-.3-.5c0-.2,0-.5,0-.8v-4.6h-1.2v-1h1.2v-2.2h1.2v2.2h1.4Z"/>
    <path class="cls-2" d="M100.3,178.5c-.5.4-1.2.6-2,.6s-1.1,0-1.5-.3c-.4-.2-.8-.4-1.1-.8-.3-.3-.5-.7-.7-1.2-.1-.5-.2-1-.2-1.5,0-.6,0-1.1.3-1.5.2-.5.4-.9.7-1.2s.7-.6,1.1-.8c.4-.2.9-.3,1.4-.3s1.2.1,1.6.4c.4.3.8.6,1,1,.3.4.4.9.5,1.3,0,.5.1.9.1,1.4h-5.4c0,.3,0,.6.1.9,0,.3.2.5.4.8.2.2.4.4.7.5.3.1.6.2,1,.2s.9-.1,1.2-.4c.3-.2.5-.6.6-1.1h1.2c-.2.8-.5,1.4-1,1.8ZM100,173.9c-.1-.3-.3-.5-.4-.7-.2-.2-.4-.3-.6-.4-.2-.1-.5-.2-.8-.2s-.6,0-.8.2c-.2.1-.5.3-.6.4-.2.2-.3.4-.4.7-.1.2-.2.5-.2.8h4.2c0-.3,0-.5-.2-.8Z"/>
    <path class="cls-2" d="M104.2,171.8v1.1h0c.5-.8,1.3-1.2,2.3-1.2s.9,0,1.2.3c.4.2.6.5.8,1,.2-.4.6-.7,1-.9.4-.2.8-.3,1.3-.3s.7,0,1,.1.5.2.8.4.4.4.5.7c.1.3.2.6.2,1v5.3h-1.2v-4.7c0-.2,0-.4,0-.6,0-.2-.1-.4-.2-.5s-.2-.3-.4-.3-.4-.1-.7-.1c-.6,0-1.1.2-1.4.5-.3.3-.5.8-.5,1.3v4.5h-1.2v-4.7c0-.2,0-.4,0-.6,0-.2-.1-.4-.2-.5-.1-.1-.2-.3-.4-.3-.2,0-.4-.1-.7-.1s-.6,0-.9.2c-.2.1-.4.3-.6.5-.2.2-.3.4-.3.6,0,.2-.1.4-.1.5v4.5h-1.2v-7.2h1.1Z"/>
    <path class="cls-2" d="M116.7,171.8v1h0c.2-.4.5-.7.9-.9.4-.2.9-.3,1.4-.3s1,.1,1.5.3c.4.2.8.5,1,.8.3.3.5.8.6,1.2.1.5.2.9.2,1.5s0,1-.2,1.5c-.1.5-.3.9-.6,1.2-.3.3-.6.6-1,.8-.4.2-.9.3-1.4.3s-.4,0-.6,0-.4,0-.7-.2c-.2,0-.4-.2-.6-.3-.2-.1-.4-.3-.5-.5h0v3.7h-1.2v-10h1.2ZM121,174.3c0-.3-.2-.6-.4-.9s-.4-.5-.7-.6-.6-.2-1-.2-.7,0-1,.2c-.3.2-.5.4-.7.6s-.3.5-.4.9c0,.3-.1.7-.1,1s0,.7.1,1,.2.6.4.9c.2.3.4.5.7.6.3.2.6.2,1.1.2s.8,0,1-.2c.3-.2.5-.4.7-.6.2-.3.3-.6.4-.9,0-.3.1-.7.1-1s0-.7-.1-1Z"/>
    <path class="cls-2" d="M124,173.9c.1-.5.4-.9.7-1.2s.7-.6,1.1-.8c.4-.2.9-.3,1.5-.3s1.1,0,1.5.3c.4.2.8.5,1.1.8.3.3.5.7.7,1.2.1.5.2,1,.2,1.5s0,1-.2,1.5c-.1.5-.4.9-.7,1.2-.3.3-.7.6-1.1.8s-.9.3-1.5.3-1.1,0-1.5-.3c-.4-.2-.8-.5-1.1-.8s-.5-.7-.7-1.2c-.1-.5-.2-1-.2-1.5s0-1,.2-1.5ZM125.2,176.6c.1.3.3.6.5.9s.4.4.7.5c.3.1.6.2.9.2s.6,0,.9-.2c.3-.1.5-.3.7-.5.2-.2.4-.5.5-.9.1-.3.2-.7.2-1.2s0-.8-.2-1.2c-.1-.3-.3-.6-.5-.9-.2-.2-.4-.4-.7-.5-.3-.1-.6-.2-.9-.2s-.6,0-.9.2c-.3.1-.5.3-.7.5s-.4.5-.5.9-.2.7-.2,1.2,0,.8.2,1.2Z"/>
    <path class="cls-2" d="M133.7,171.8v1.5h0c.3-.6.6-1,1.1-1.3.4-.3,1-.4,1.6-.4v1.3c-.5,0-.9,0-1.2.2s-.6.3-.8.6c-.2.3-.4.6-.4.9s-.1.8-.1,1.2v3.2h-1.2v-7.2h1.1Z"/>
    <path class="cls-2" d="M144.1,179c-.2.1-.5.2-.9.2s-.6,0-.7-.3c-.2-.2-.3-.5-.3-.8-.3.4-.7.7-1.1.8-.4.2-.9.3-1.4.3s-.6,0-.9-.1c-.3,0-.5-.2-.8-.3-.2-.2-.4-.4-.5-.6s-.2-.6-.2-.9,0-.7.2-1c.1-.3.3-.5.6-.6.2-.2.5-.3.8-.4.3,0,.6-.2.9-.2.3,0,.6-.1.9-.1.3,0,.6,0,.8-.1s.4-.1.5-.3c.1-.1.2-.3.2-.5s0-.5-.1-.6c0-.2-.2-.3-.4-.4-.2,0-.3-.1-.5-.2-.2,0-.4,0-.6,0-.5,0-.9,0-1.3.3-.3.2-.5.6-.5,1.1h-1.2c0-.4.1-.8.3-1.1.2-.3.4-.6.7-.7.3-.2.6-.3,1-.4s.7-.1,1.2-.1.7,0,1,0c.3,0,.6.1.9.3.3.1.5.3.6.6.2.3.2.6.2,1v3.7c0,.3,0,.5,0,.6,0,.1.1.2.3.2s.2,0,.4,0v.9ZM142.2,175.3c-.1.1-.3.2-.6.2s-.5,0-.8.1c-.3,0-.5,0-.8.1-.3,0-.5.1-.7.2-.2,0-.4.2-.5.4s-.2.4-.2.7,0,.4.1.5c0,.1.2.2.3.3.1,0,.3.1.4.2s.3,0,.5,0c.4,0,.7,0,1-.2.3-.1.5-.2.7-.4.2-.2.3-.3.4-.5s.1-.4.1-.5v-1.2Z"/>
    <path class="cls-2" d="M146.9,169v10h-1.2v-10h1.2Z"/>
    <path class="cls-2" d="M154.8,169v10h-1.2v-10h1.2Z"/>
    <path class="cls-2" d="M156.9,173.9c.1-.5.4-.9.7-1.2s.7-.6,1.1-.8c.4-.2.9-.3,1.5-.3s1.1,0,1.5.3c.4.2.8.5,1.1.8.3.3.5.7.7,1.2.1.5.2,1,.2,1.5s0,1-.2,1.5c-.1.5-.4.9-.7,1.2-.3.3-.7.6-1.1.8s-.9.3-1.5.3-1.1,0-1.5-.3c-.4-.2-.8-.5-1.1-.8s-.5-.7-.7-1.2c-.1-.5-.2-1-.2-1.5s0-1,.2-1.5ZM158.1,176.6c.1.3.3.6.5.9s.4.4.7.5c.3.1.6.2.9.2s.6,0,.9-.2c.3-.1.5-.3.7-.5.2-.2.4-.5.5-.9.1-.3.2-.7.2-1.2s0-.8-.2-1.2c-.1-.3-.3-.6-.5-.9-.2-.2-.4-.4-.7-.5-.3-.1-.6-.2-.9-.2s-.6,0-.9.2c-.3.1-.5.3-.7.5s-.4.5-.5.9-.2.7-.2,1.2,0,.8.2,1.2Z"/>
    <path class="cls-2" d="M170.9,181c-.5.6-1.4.9-2.5.9s-.7,0-1-.1c-.4,0-.7-.2-1-.4s-.5-.4-.7-.7c-.2-.3-.3-.6-.3-1h1.2c0,.2,0,.4.2.5.1.1.3.3.5.4.2,0,.4.2.6.2s.4,0,.6,0c.4,0,.7,0,1-.2.3-.1.5-.3.7-.6.2-.2.3-.5.4-.9s.1-.7.1-1.1v-.5h0c-.2.4-.5.8-.9,1-.4.2-.9.3-1.3.3s-1,0-1.4-.3c-.4-.2-.7-.5-1-.8s-.5-.7-.6-1.2-.2-.9-.2-1.4,0-.9.2-1.3c.1-.5.3-.9.6-1.2.3-.4.6-.7,1-.9.4-.2,1-.4,1.6-.4s.9.1,1.3.3c.4.2.7.5.9.9h0v-1h1.1v6.6c0,1.2-.3,2.1-.8,2.7ZM169.4,177.8c.3-.2.5-.4.7-.6.2-.3.3-.6.4-.9,0-.3.1-.7.1-1s0-.6-.1-.9-.2-.6-.4-.8c-.2-.2-.4-.4-.6-.6s-.6-.2-1-.2-.7,0-1,.2c-.3.1-.5.3-.7.6-.2.2-.3.5-.4.8,0,.3-.1.6-.1,1s0,.7,0,1c0,.3.2.6.3.9.2.3.4.5.6.6.3.2.6.2,1,.2s.7,0,1-.2Z"/>
    <path class="cls-2" d="M173.8,173.9c.1-.5.4-.9.7-1.2s.7-.6,1.1-.8c.4-.2.9-.3,1.5-.3s1.1,0,1.5.3c.4.2.8.5,1.1.8.3.3.5.7.7,1.2.1.5.2,1,.2,1.5s0,1-.2,1.5c-.1.5-.4.9-.7,1.2-.3.3-.7.6-1.1.8s-.9.3-1.5.3-1.1,0-1.5-.3c-.4-.2-.8-.5-1.1-.8s-.5-.7-.7-1.2c-.1-.5-.2-1-.2-1.5s0-1,.2-1.5ZM175,176.6c.1.3.3.6.5.9s.4.4.7.5c.3.1.6.2.9.2s.6,0,.9-.2c.3-.1.5-.3.7-.5.2-.2.4-.5.5-.9.1-.3.2-.7.2-1.2s0-.8-.2-1.2c-.1-.3-.3-.6-.5-.9-.2-.2-.4-.4-.7-.5-.3-.1-.6-.2-.9-.2s-.6,0-.9.2c-.3.1-.5.3-.7.5s-.4.5-.5.9-.2.7-.2,1.2,0,.8.2,1.2Z"/>
    <path class="cls-2" d="M184.2,177.4v1.6h-1.6v-1.6h1.6Z"/>
    <path class="cls-2" d="M190.1,170.1v-1.1h8v1.1h-3.3v8.9h-1.3v-8.9h-3.3Z"/>
    <path class="cls-2" d="M200.7,169v3.8h0c0-.2.2-.4.4-.6.2-.2.4-.3.6-.4.2,0,.4-.2.7-.2.2,0,.5,0,.7,0,.5,0,.9,0,1.2.2s.6.3.8.5.3.5.4.8c0,.3.1.7.1,1.1v4.8h-1.2v-4.9c0-.4-.1-.8-.4-1.1-.3-.3-.6-.4-1.1-.4s-.7,0-.9.2c-.3.1-.5.3-.7.5-.2.2-.3.4-.4.7,0,.3-.1.6-.1.9v4.1h-1.2v-10h1.2Z"/>
    <path class="cls-2" d="M212.8,178.5c-.5.4-1.2.6-2,.6s-1.1,0-1.5-.3c-.4-.2-.8-.4-1.1-.8-.3-.3-.5-.7-.7-1.2-.1-.5-.2-1-.2-1.5,0-.6,0-1.1.3-1.5.2-.5.4-.9.7-1.2s.7-.6,1.1-.8c.4-.2.9-.3,1.4-.3s1.2.1,1.6.4c.4.3.8.6,1,1,.3.4.4.9.5,1.3,0,.5.1.9.1,1.4h-5.4c0,.3,0,.6.1.9,0,.3.2.5.4.8.2.2.4.4.7.5.3.1.6.2,1,.2s.9-.1,1.2-.4c.3-.2.5-.6.6-1.1h1.2c-.2.8-.5,1.4-1,1.8ZM212.5,173.9c-.1-.3-.3-.5-.4-.7-.2-.2-.4-.3-.6-.4-.2-.1-.5-.2-.8-.2s-.6,0-.8.2c-.2.1-.5.3-.6.4-.2.2-.3.4-.4.7-.1.2-.2.5-.2.8h4.2c0-.3,0-.5-.2-.8Z"/>
    <path class="cls-2" d="M225.8,179l-1.5-5.8h0l-1.5,5.8h-1.3l-2.3-7.2h1.3l1.6,5.9h0l1.5-5.9h1.3l1.5,5.9h0l1.6-5.9h1.2l-2.3,7.2h-1.3Z"/>
    <path class="cls-2" d="M232.1,169v3.8h0c0-.2.2-.4.4-.6.2-.2.4-.3.6-.4.2,0,.4-.2.7-.2.2,0,.5,0,.7,0,.5,0,.9,0,1.2.2.3.1.6.3.8.5.2.2.3.5.4.8s.1.7.1,1.1v4.8h-1.2v-4.9c0-.4-.1-.8-.4-1.1s-.6-.4-1.1-.4-.7,0-.9.2c-.3.1-.5.3-.7.5-.2.2-.3.4-.4.7,0,.3-.1.6-.1.9v4.1h-1.2v-10h1.2Z"/>
    <path class="cls-2" d="M239,173.9c.1-.5.4-.9.7-1.2.3-.3.7-.6,1.1-.8.4-.2.9-.3,1.5-.3s1.1,0,1.5.3c.4.2.8.5,1.1.8s.5.7.7,1.2c.1.5.2,1,.2,1.5s0,1-.2,1.5-.4.9-.7,1.2-.7.6-1.1.8c-.4.2-.9.3-1.5.3s-1.1,0-1.5-.3-.8-.5-1.1-.8c-.3-.3-.5-.7-.7-1.2s-.2-1-.2-1.5,0-1,.2-1.5ZM240.2,176.6c.1.3.3.6.5.9s.4.4.7.5c.3.1.6.2.9.2s.6,0,.9-.2c.3-.1.5-.3.7-.5.2-.2.4-.5.5-.9.1-.3.2-.7.2-1.2s0-.8-.2-1.2c-.1-.3-.3-.6-.5-.9-.2-.2-.4-.4-.7-.5s-.6-.2-.9-.2-.6,0-.9.2-.5.3-.7.5-.4.5-.5.9c-.1.3-.2.7-.2,1.2s0,.8.2,1.2Z"/>
    <path class="cls-2" d="M248.9,169v10h-1.2v-10h1.2Z"/>
    <path class="cls-2" d="M256.3,178.5c-.5.4-1.2.6-2,.6s-1.1,0-1.5-.3-.8-.4-1.1-.8c-.3-.3-.5-.7-.7-1.2s-.2-1-.2-1.5c0-.6,0-1.1.3-1.5.2-.5.4-.9.7-1.2s.7-.6,1.1-.8.9-.3,1.4-.3,1.2.1,1.6.4c.4.3.8.6,1,1,.3.4.4.9.5,1.3,0,.5.1.9.1,1.4h-5.4c0,.3,0,.6.1.9,0,.3.2.5.4.8.2.2.4.4.7.5s.6.2,1,.2.9-.1,1.2-.4c.3-.2.5-.6.6-1.1h1.2c-.2.8-.5,1.4-1.1,1.8ZM256,173.9c-.1-.3-.3-.5-.4-.7-.2-.2-.4-.3-.6-.4-.2-.1-.5-.2-.8-.2s-.6,0-.8.2c-.2.1-.5.3-.6.4-.2.2-.3.4-.4.7-.1.2-.2.5-.2.8h4.2c0-.3,0-.5-.2-.8Z"/>
    <path class="cls-2" d="M269.3,179l-1.5-5.8h0l-1.5,5.8h-1.3l-2.3-7.2h1.3l1.6,5.9h0l1.5-5.9h1.3l1.5,5.9h0l1.6-5.9h1.2l-2.3,7.2h-1.3Z"/>
    <path class="cls-2" d="M279.5,178.5c-.5.4-1.2.6-2,.6s-1.1,0-1.5-.3-.8-.4-1.1-.8c-.3-.3-.5-.7-.7-1.2s-.2-1-.2-1.5c0-.6,0-1.1.3-1.5.2-.5.4-.9.7-1.2s.7-.6,1.1-.8.9-.3,1.4-.3,1.2.1,1.6.4c.4.3.8.6,1,1,.3.4.4.9.5,1.3,0,.5.1.9.1,1.4h-5.4c0,.3,0,.6.1.9,0,.3.2.5.4.8.2.2.4.4.7.5s.6.2,1,.2.9-.1,1.2-.4c.3-.2.5-.6.6-1.1h1.2c-.2.8-.5,1.4-1.1,1.8ZM279.3,173.9c-.1-.3-.3-.5-.4-.7-.2-.2-.4-.3-.6-.4-.2-.1-.5-.2-.8-.2s-.6,0-.8.2c-.2.1-.5.3-.6.4-.2.2-.3.4-.4.7-.1.2-.2.5-.2.8h4.2c0-.3,0-.5-.2-.8Z"/>
    <path class="cls-2" d="M283.6,169v3.7h0c.2-.4.5-.7.9-.9.4-.2.9-.3,1.4-.3s1,.1,1.5.3.8.5,1,.8c.3.3.5.8.6,1.2s.2.9.2,1.5,0,1-.2,1.5c-.1.5-.3.9-.6,1.2-.3.3-.6.6-1,.8-.4.2-.9.3-1.4.3s-.4,0-.6,0c-.2,0-.4,0-.7-.2s-.4-.2-.6-.3-.4-.3-.5-.5h0v1h-1.2v-10h1.2ZM287.9,174.3c0-.3-.2-.6-.4-.9s-.4-.5-.7-.6c-.3-.1-.6-.2-1-.2s-.7,0-1,.2c-.3.2-.5.4-.7.6s-.3.5-.4.9c0,.3-.1.7-.1,1s0,.7.1,1,.2.6.4.9c.2.3.4.5.7.6.3.2.6.2,1,.2s.8,0,1-.2c.3-.2.5-.4.7-.6.2-.3.3-.6.4-.9,0-.3.1-.7.1-1s0-.7-.1-1Z"/>
    <path class="cls-2" d="M292,177.4c.1.2.3.3.4.4s.4.2.6.2c.2,0,.5,0,.7,0s.4,0,.6,0c.2,0,.4,0,.6-.2.2,0,.3-.2.4-.3.1-.1.2-.3.2-.6s-.1-.5-.4-.7c-.2-.2-.5-.3-.9-.4-.3,0-.7-.2-1.1-.3-.4,0-.8-.2-1.1-.3-.4-.1-.6-.3-.9-.6-.2-.3-.4-.6-.4-1.1s0-.7.2-.9c.2-.3.4-.5.6-.6s.5-.3.9-.4.6-.1,1-.1.8,0,1.1.1c.3,0,.7.2.9.4.3.2.5.4.6.7.2.3.3.7.3,1.1h-1.2c0-.2,0-.4-.2-.6-.1-.2-.2-.3-.4-.4-.2,0-.3-.2-.5-.2s-.4,0-.6,0-.4,0-.5,0c-.2,0-.3,0-.5.1s-.3.2-.4.3c0,.1-.1.3-.1.5s0,.4.2.5c.1.1.3.2.6.3.2,0,.5.2.8.2.3,0,.6.1.8.2.3,0,.6.1.9.2.3,0,.5.2.8.4.2.2.4.3.5.6.1.2.2.5.2.9s0,.8-.3,1.1c-.2.3-.4.5-.7.7-.3.2-.6.3-1,.4-.4,0-.7.1-1.1.1s-.8,0-1.1-.1c-.4,0-.7-.2-1-.4-.3-.2-.5-.4-.7-.8s-.3-.7-.3-1.1h1.2c0,.3,0,.5.2.7Z"/>
    <path class="cls-2" d="M298.6,170.5v-1.5h1.2v1.5h-1.2ZM299.8,171.8v7.2h-1.2v-7.2h1.2Z"/>
    <path class="cls-2" d="M305.1,171.8v1h-1.4v4.5c0,.1,0,.3,0,.3s0,.1.1.2.2,0,.3,0c.1,0,.3,0,.5,0h.5v1h-.9c-.3,0-.6,0-.8,0-.2,0-.4-.1-.5-.2-.1-.1-.2-.3-.3-.5,0-.2,0-.5,0-.8v-4.6h-1.2v-1h1.2v-2.2h1.2v2.2h1.4Z"/>
    <path class="cls-2" d="M312,178.5c-.5.4-1.2.6-2,.6s-1.1,0-1.5-.3-.8-.4-1.1-.8c-.3-.3-.5-.7-.7-1.2s-.2-1-.2-1.5c0-.6,0-1.1.3-1.5.2-.5.4-.9.7-1.2s.7-.6,1.1-.8.9-.3,1.4-.3,1.2.1,1.6.4c.4.3.8.6,1,1,.3.4.4.9.5,1.3,0,.5.1.9.1,1.4h-5.4c0,.3,0,.6.1.9,0,.3.2.5.4.8.2.2.4.4.7.5s.6.2,1,.2.9-.1,1.2-.4c.3-.2.5-.6.6-1.1h1.2c-.2.8-.5,1.4-1.1,1.8ZM311.7,173.9c-.1-.3-.3-.5-.4-.7-.2-.2-.4-.3-.6-.4-.2-.1-.5-.2-.8-.2s-.6,0-.8.2c-.2.1-.5.3-.6.4-.2.2-.3.4-.4.7-.1.2-.2.5-.2.8h4.2c0-.3,0-.5-.2-.8Z"/>
    <path class="cls-2" d="M319.2,170.5v-1.5h1.2v1.5h-1.2ZM320.4,171.8v7.2h-1.2v-7.2h1.2Z"/>
    <path class="cls-2" d="M323.5,177.4c.1.2.3.3.4.4s.4.2.6.2c.2,0,.5,0,.7,0s.4,0,.6,0c.2,0,.4,0,.6-.2.2,0,.3-.2.4-.3.1-.1.2-.3.2-.6s-.1-.5-.4-.7c-.2-.2-.5-.3-.9-.4-.3,0-.7-.2-1.1-.3-.4,0-.8-.2-1.1-.3-.4-.1-.6-.3-.9-.6-.2-.3-.4-.6-.4-1.1s0-.7.2-.9c.2-.3.4-.5.6-.6s.5-.3.9-.4.6-.1,1-.1.8,0,1.1.1c.3,0,.7.2.9.4.3.2.5.4.6.7.2.3.3.7.3,1.1h-1.2c0-.2,0-.4-.2-.6-.1-.2-.2-.3-.4-.4-.2,0-.3-.2-.5-.2s-.4,0-.6,0-.4,0-.5,0c-.2,0-.3,0-.5.1s-.3.2-.4.3c0,.1-.1.3-.1.5s0,.4.2.5c.1.1.3.2.6.3.2,0,.5.2.8.2.3,0,.6.1.8.2.3,0,.6.1.9.2.3,0,.5.2.8.4.2.2.4.3.5.6.1.2.2.5.2.9s0,.8-.3,1.1c-.2.3-.4.5-.7.7-.3.2-.6.3-1,.4-.4,0-.7.1-1.1.1s-.8,0-1.1-.1c-.4,0-.7-.2-1-.4-.3-.2-.5-.4-.7-.8s-.3-.7-.3-1.1h1.2c0,.3,0,.5.2.7Z"/>
    <path class="cls-2" d="M339.2,179v-1.1h0c-.3.4-.6.8-1,1-.4.2-.9.3-1.4.3s-.9,0-1.2-.2-.6-.3-.8-.5c-.2-.2-.3-.5-.4-.8,0-.3-.1-.7-.1-1.1v-4.8h1.2v4.9c0,.4.1.8.4,1.1s.6.4,1.1.4.7,0,.9-.2c.3-.1.5-.3.7-.5.2-.2.3-.4.4-.7,0-.3.1-.6.1-.9v-4.1h1.2v7.2h-1.1Z"/>
    <path class="cls-2" d="M343.7,171.8v1.1h0c.5-.9,1.3-1.3,2.4-1.3s.9,0,1.2.2.6.3.8.5c.2.2.3.5.4.8,0,.3.1.7.1,1.1v4.8h-1.2v-4.9c0-.4-.1-.8-.4-1.1-.3-.3-.6-.4-1.1-.4s-.7,0-.9.2c-.3.1-.5.3-.7.5-.2.2-.3.4-.4.7s-.1.6-.1.9v4.1h-1.2v-7.2h1.1Z"/>
    <path class="cls-2" d="M356.1,179v-1h0c-.2.4-.5.7-.9.9-.4.2-.9.3-1.4.3s-1-.1-1.5-.3-.8-.5-1-.8c-.3-.3-.5-.7-.6-1.2-.1-.5-.2-.9-.2-1.5s0-1,.2-1.5c.1-.5.3-.9.6-1.2s.6-.6,1-.8c.4-.2.9-.3,1.4-.3s.4,0,.6,0,.4,0,.6.2.4.2.6.4c.2.1.4.3.5.5h0v-3.7h1.2v10h-1.2ZM351.8,176.4c0,.3.2.6.4.9.2.3.4.5.7.6.3.1.6.2,1,.2s.7,0,1-.2c.3-.2.5-.4.7-.6s.3-.5.4-.9c0-.3.1-.7.1-1s0-.7-.1-1c0-.3-.2-.6-.4-.9-.2-.3-.4-.5-.7-.6-.3-.2-.6-.2-1.1-.2s-.7,0-1,.2c-.3.2-.5.4-.7.6-.2.3-.3.6-.4.9,0,.3-.1.7-.1,1s0,.7.1,1Z"/>
    <path class="cls-2" d="M364.6,178.5c-.5.4-1.2.6-2,.6s-1.1,0-1.5-.3-.8-.4-1.1-.8c-.3-.3-.5-.7-.7-1.2s-.2-1-.2-1.5c0-.6,0-1.1.3-1.5.2-.5.4-.9.7-1.2s.7-.6,1.1-.8.9-.3,1.4-.3,1.2.1,1.6.4c.4.3.8.6,1,1,.3.4.4.9.5,1.3,0,.5.1.9.1,1.4h-5.4c0,.3,0,.6.1.9,0,.3.2.5.4.8.2.2.4.4.7.5s.6.2,1,.2.9-.1,1.2-.4c.3-.2.5-.6.6-1.1h1.2c-.2.8-.5,1.4-1.1,1.8ZM364.3,173.9c-.1-.3-.3-.5-.4-.7-.2-.2-.4-.3-.6-.4-.2-.1-.5-.2-.8-.2s-.6,0-.8.2c-.2.1-.5.3-.6.4-.2.2-.3.4-.4.7-.1.2-.2.5-.2.8h4.2c0-.3,0-.5-.2-.8Z"/>
    <path class="cls-2" d="M368.5,171.8v1.5h0c.3-.6.6-1,1.1-1.3.4-.3,1-.4,1.6-.4v1.3c-.5,0-.9,0-1.2.2s-.6.3-.8.6-.4.6-.4.9c0,.4-.1.8-.1,1.2v3.2h-1.2v-7.2h1.1Z"/>
    <path class="cls-2" d="M381.2,173c-.3-.3-.7-.4-1.2-.4s-.8,0-1.1.2c-.3.2-.5.4-.7.6-.2.3-.3.6-.4.9,0,.3-.1.7-.1,1.1s0,.7.1,1,.2.6.4.8c.2.2.4.4.7.6.3.1.6.2,1,.2.6,0,1-.2,1.4-.5.3-.3.5-.7.6-1.3h1.2c-.1.9-.5,1.6-1,2.1-.5.5-1.3.7-2.2.7s-1,0-1.5-.3c-.4-.2-.8-.4-1.1-.8-.3-.3-.5-.7-.6-1.2-.1-.5-.2-.9-.2-1.5s0-1,.2-1.5.4-.9.6-1.2c.3-.3.6-.6,1.1-.8.4-.2.9-.3,1.5-.3s.8,0,1.2.1c.4,0,.7.2,1,.5.3.2.5.5.7.8.2.3.3.7.3,1.1h-1.2c0-.5-.3-.8-.6-1.1Z"/>
    <path class="cls-2" d="M384.6,173.9c.1-.5.4-.9.7-1.2.3-.3.7-.6,1.1-.8.4-.2.9-.3,1.5-.3s1.1,0,1.5.3c.4.2.8.5,1.1.8s.5.7.7,1.2c.1.5.2,1,.2,1.5s0,1-.2,1.5-.4.9-.7,1.2-.7.6-1.1.8c-.4.2-.9.3-1.5.3s-1.1,0-1.5-.3-.8-.5-1.1-.8c-.3-.3-.5-.7-.7-1.2s-.2-1-.2-1.5,0-1,.2-1.5ZM385.8,176.6c.1.3.3.6.5.9s.4.4.7.5c.3.1.6.2.9.2s.6,0,.9-.2c.3-.1.5-.3.7-.5.2-.2.4-.5.5-.9.1-.3.2-.7.2-1.2s0-.8-.2-1.2c-.1-.3-.3-.6-.5-.9-.2-.2-.4-.4-.7-.5s-.6-.2-.9-.2-.6,0-.9.2-.5.3-.7.5-.4.5-.5.9c-.1.3-.2.7-.2,1.2s0,.8.2,1.2Z"/>
    <path class="cls-2" d="M394.3,171.8v1.1h0c.5-.9,1.3-1.3,2.4-1.3s.9,0,1.2.2.6.3.8.5c.2.2.3.5.4.8,0,.3.1.7.1,1.1v4.8h-1.2v-4.9c0-.4-.1-.8-.4-1.1-.3-.3-.6-.4-1.1-.4s-.7,0-.9.2c-.3.1-.5.3-.7.5-.2.2-.3.4-.4.7s-.1.6-.1.9v4.1h-1.2v-7.2h1.1Z"/>
    <path class="cls-2" d="M402.3,177.4c.1.2.3.3.4.4s.4.2.6.2c.2,0,.5,0,.7,0s.4,0,.6,0c.2,0,.4,0,.6-.2.2,0,.3-.2.4-.3.1-.1.2-.3.2-.6s-.1-.5-.4-.7c-.2-.2-.5-.3-.9-.4-.3,0-.7-.2-1.1-.3-.4,0-.8-.2-1.1-.3-.4-.1-.6-.3-.9-.6-.2-.3-.4-.6-.4-1.1s0-.7.2-.9c.2-.3.4-.5.6-.6s.5-.3.9-.4.6-.1,1-.1.8,0,1.1.1c.3,0,.7.2.9.4.3.2.5.4.6.7.2.3.3.7.3,1.1h-1.2c0-.2,0-.4-.2-.6-.1-.2-.2-.3-.4-.4-.2,0-.3-.2-.5-.2s-.4,0-.6,0-.4,0-.5,0c-.2,0-.3,0-.5.1s-.3.2-.4.3c0,.1-.1.3-.1.5s0,.4.2.5c.1.1.3.2.6.3.2,0,.5.2.8.2.3,0,.6.1.8.2.3,0,.6.1.9.2.3,0,.5.2.8.4.2.2.4.3.5.6.1.2.2.5.2.9s0,.8-.3,1.1c-.2.3-.4.5-.7.7-.3.2-.6.3-1,.4-.4,0-.7.1-1.1.1s-.8,0-1.1-.1c-.4,0-.7-.2-1-.4-.3-.2-.5-.4-.7-.8s-.3-.7-.3-1.1h1.2c0,.3,0,.5.2.7Z"/>
    <path class="cls-2" d="M411.9,171.8v1h-1.4v4.5c0,.1,0,.3,0,.3s0,.1.1.2.2,0,.3,0c.1,0,.3,0,.5,0h.5v1h-.9c-.3,0-.6,0-.8,0-.2,0-.4-.1-.5-.2-.1-.1-.2-.3-.3-.5,0-.2,0-.5,0-.8v-4.6h-1.2v-1h1.2v-2.2h1.2v2.2h1.4Z"/>
    <path class="cls-2" d="M414.8,171.8v1.5h0c.3-.6.6-1,1.1-1.3.4-.3,1-.4,1.6-.4v1.3c-.5,0-.9,0-1.2.2s-.6.3-.8.6-.4.6-.4.9c0,.4-.1.8-.1,1.2v3.2h-1.2v-7.2h1.1Z"/>
    <path class="cls-2" d="M423.6,179v-1.1h0c-.3.4-.6.8-1,1-.4.2-.9.3-1.4.3s-.9,0-1.2-.2-.6-.3-.8-.5c-.2-.2-.3-.5-.4-.8,0-.3-.1-.7-.1-1.1v-4.8h1.2v4.9c0,.4.1.8.4,1.1s.6.4,1.1.4.7,0,.9-.2c.3-.1.5-.3.7-.5.2-.2.3-.4.4-.7,0-.3.1-.6.1-.9v-4.1h1.2v7.2h-1.1Z"/>
    <path class="cls-2" d="M431.3,173c-.3-.3-.7-.4-1.2-.4s-.8,0-1.1.2c-.3.2-.5.4-.7.6-.2.3-.3.6-.4.9,0,.3-.1.7-.1,1.1s0,.7.1,1,.2.6.4.8c.2.2.4.4.7.6.3.1.6.2,1,.2.6,0,1-.2,1.4-.5.3-.3.5-.7.6-1.3h1.2c-.1.9-.5,1.6-1,2.1-.5.5-1.3.7-2.2.7s-1,0-1.5-.3c-.4-.2-.8-.4-1.1-.8-.3-.3-.5-.7-.6-1.2-.1-.5-.2-.9-.2-1.5s0-1,.2-1.5.4-.9.6-1.2c.3-.3.6-.6,1.1-.8.4-.2.9-.3,1.5-.3s.8,0,1.2.1c.4,0,.7.2,1,.5.3.2.5.5.7.8.2.3.3.7.3,1.1h-1.2c0-.5-.3-.8-.6-1.1Z"/>
    <path class="cls-2" d="M438,171.8v1h-1.4v4.5c0,.1,0,.3,0,.3s0,.1.1.2.2,0,.3,0c.1,0,.3,0,.5,0h.5v1h-.9c-.3,0-.6,0-.8,0-.2,0-.4-.1-.5-.2-.1-.1-.2-.3-.3-.5,0-.2,0-.5,0-.8v-4.6h-1.2v-1h1.2v-2.2h1.2v2.2h1.4Z"/>
    <path class="cls-2" d="M439.8,170.5v-1.5h1.2v1.5h-1.2ZM441,171.8v7.2h-1.2v-7.2h1.2Z"/>
    <path class="cls-2" d="M443.1,173.9c.1-.5.4-.9.7-1.2.3-.3.7-.6,1.1-.8.4-.2.9-.3,1.5-.3s1.1,0,1.5.3c.4.2.8.5,1.1.8s.5.7.7,1.2c.1.5.2,1,.2,1.5s0,1-.2,1.5-.4.9-.7,1.2-.7.6-1.1.8c-.4.2-.9.3-1.5.3s-1.1,0-1.5-.3-.8-.5-1.1-.8c-.3-.3-.5-.7-.7-1.2s-.2-1-.2-1.5,0-1,.2-1.5ZM444.3,176.6c.1.3.3.6.5.9s.4.4.7.5c.3.1.6.2.9.2s.6,0,.9-.2c.3-.1.5-.3.7-.5.2-.2.4-.5.5-.9.1-.3.2-.7.2-1.2s0-.8-.2-1.2c-.1-.3-.3-.6-.5-.9-.2-.2-.4-.4-.7-.5s-.6-.2-.9-.2-.6,0-.9.2-.5.3-.7.5-.4.5-.5.9c-.1.3-.2.7-.2,1.2s0,.8.2,1.2Z"/>
    <path class="cls-2" d="M452.8,171.8v1.1h0c.5-.9,1.3-1.3,2.4-1.3s.9,0,1.2.2.6.3.8.5c.2.2.3.5.4.8,0,.3.1.7.1,1.1v4.8h-1.2v-4.9c0-.4-.1-.8-.4-1.1-.3-.3-.6-.4-1.1-.4s-.7,0-.9.2c-.3.1-.5.3-.7.5-.2.2-.3.4-.4.7s-.1.6-.1.9v4.1h-1.2v-7.2h1.1Z"/>
    <path class="cls-2" d="M461.7,177.4v1.6h-1.6v-1.6h1.6Z"/>
  </g>
</svg>