<?xml version="1.0" encoding="UTF-8"?>
<svg xmlns="http://www.w3.org/2000/svg" width="500" height="270.4" version="1.1" viewBox="0 0 500 270.4">
  <defs>
    <style>
      .cls-1, .cls-2 {
        fill: #444;
      }

      .cls-2 {
        font-family: CaviarDreams, 'Caviar Dreams';
        font-size: 133.7px;
      }

      .cls-3 {
        fill: #efefef;
      }

      .cls-4 {
        fill: #434042;
      }

      .cls-5 {
        fill: #7a7680;
        font-family: Apparat-Hairline, Apparat;
        font-size: 30.1px;
        font-weight: 100;
      }

      .cls-6 {
        fill: #f2f3f4;
      }
    </style>
  </defs>
  <!-- Generator: Adobe Illustrator 28.6.0, SVG Export Plug-In . SVG Version: 1.2.0 Build 594)  -->
  <g>
    <g id="Layer_1">
      <rect class="cls-6" x="-52.4" y="504.6" width="493.1" height="264.2" rx="20" ry="20"/>
      <g id="Layer_1-2" data-name="Layer_1">
        <path class="cls-1" d="M69.8,27.6c1.3-2.2,4.4-2.2,5.7,0,11.4,19.7,52.9,30.2,55.9,62.2,2.6,28.2-18.6,51.4-58.7,51.4S11.3,118,13.9,89.8c3-32,44.5-42.5,55.9-62.2h0Z"/>
        <path class="cls-3" d="M125.6,90.3c-1.6-17-16.4-27.4-30.8-37.5-7.6-5.3-14.9-10.5-20.2-16.5-1-1.2-2.9-1.2-3.9,0-5.3,6-12.5,11.2-20.2,16.5-14.3,10.1-29.2,20.5-30.8,37.5-1.1,11.3,2.1,21.4,9.2,29.2,9.2,10.1,24.7,15.7,43.6,15.7s34.4-5.6,43.6-15.7c7.1-7.8,10.3-17.9,9.2-29.2h0Z"/>
        <g>
          <path class="cls-4" d="M44.5,105.8c-.9,0-1.8-.4-2.3-1.1-1-1.3-.8-3.1.5-4.2l1.7-1.3c1.3-1,3.1-.8,4.2.5,1,1.3.8,3.1-.5,4.2l-1.7,1.3c-.5.4-1.2.6-1.8.6Z"/>
          <path class="cls-4" d="M43.6,91.3c-.7,0-1.3-.2-1.8-.7l-.9-.7c-1.3-1-1.5-2.9-.5-4.2,1-1.3,2.9-1.5,4.2-.5l.9.7c1.3,1,1.5,2.9.5,4.2-.6.7-1.4,1.1-2.3,1.1h0Z"/>
          <path class="cls-4" d="M57.7,77.2c-.8,0-1.7-.3-2.3-1.1l-.9-1.1c-1-1.3-.9-3.1.4-4.2s3.1-.9,4.2.4l.9,1.1c1,1.3.9,3.1-.4,4.2-.6.5-1.2.7-1.9.7Z"/>
          <path class="cls-4" d="M73,63.4c-1,0-2-.5-2.5-1.4-.8-1.4-.4-3.2,1-4.1l.9-.6c1.4-.8,3.2-.4,4.1,1,.8,1.4.4,3.2-1,4.1l-.9.6c-.5.3-1,.4-1.5.4h0Z"/>
          <path class="cls-4" d="M87.4,76.8c-.9,0-1.8-.4-2.4-1.2-1-1.3-.7-3.2.7-4.1l2-1.5c1.3-.9,3.2-.7,4.1.7.9,1.3.7,3.2-.7,4.1l-2,1.5c-.5.4-1.1.6-1.7.6h0Z"/>
          <path class="cls-4" d="M98.2,88.6c-1.4,0-2.6-1-2.9-2.4l-.4-1.9c-.3-1.6.7-3.1,2.3-3.5s3.1.7,3.5,2.3l.4,1.9c.3,1.6-.7,3.1-2.3,3.5-.2,0-.4,0-.6,0h0Z"/>
          <path class="cls-4" d="M104.9,101.5c-.4,0-.9,0-1.3-.3l-1.5-.7c-1.4-.7-2-2.5-1.3-4,.7-1.4,2.5-2,4-1.3l1.5.7c1.4.7,2,2.5,1.3,4-.5,1-1.6,1.6-2.6,1.6Z"/>
        </g>
        <path class="cls-4" d="M95,114.8c-1.6,0-3-1.3-3-3v-.4c0-1.6,1.3-3,3-3s3,1.3,3,3v.4c0,1.6-1.3,3-3,3Z"/>
        <path class="cls-4" d="M59.7,96.9c-1,0-2-.5-2.5-1.4l-1.8-3c-.8-1.4-.4-3.2,1-4.1,1.4-.8,3.2-.4,4.1,1l1.8,3c.8,1.4.4,3.2-1,4.1-.5.3-1,.4-1.5.4h0Z"/>
        <path class="cls-4" d="M76.4,91.2c-.9,0-1.8-.4-2.4-1.2-1-1.3-.7-3.1.6-4.1l.7-.6c1.3-1,3.1-.7,4.1.6,1,1.3.7,3.1-.6,4.1l-.7.6c-.5.4-1.2.6-1.8.6h0Z"/>
        <path class="cls-4" d="M56.5,116.1c-.6,0-1.1-.2-1.6-.5l-.8-.5c-1.4-.9-1.7-2.7-.8-4.1.9-1.4,2.7-1.7,4.1-.8l.8.5c1.4.9,1.7,2.7.8,4.1-.6.8-1.5,1.3-2.5,1.3Z"/>
        <path class="cls-4" d="M70.2,78.5c-.6,0-1.2-.2-1.8-.6l-.7-.6c-1.3-1-1.6-2.8-.6-4.1s2.8-1.6,4.1-.6l.7.6c1.3,1,1.6,2.8.6,4.1-.6.8-1.4,1.2-2.4,1.2h0Z"/>
        <path class="cls-4" d="M85.8,102.2c-1.1,0-2.1-.6-2.6-1.6l-.2-.4c-.7-1.4-.1-3.2,1.3-4,1.4-.7,3.2-.1,4,1.3l.2.4c.7,1.4.1,3.2-1.3,4-.4.2-.9.3-1.3.3Z"/>
        <path class="cls-4" d="M74.7,110.3c-1.1,0-2.1-.6-2.6-1.6l-.2-.4c-.7-1.4-.1-3.2,1.3-4,1.4-.7,3.2-.1,4,1.3l.2.4c.7,1.4.1,3.2-1.3,4-.4.2-.9.3-1.3.3Z"/>
      </g>
      <text class="cls-2" transform="translate(154.7 134.6)"><tspan x="0" y="0">FIG.1</tspan></text>
      <text class="cls-5" transform="translate(27.4 190.6)"><tspan x="0" y="0">An innovation research group </tspan><tspan x="0" y="36.2">first created by Fumeng Yang</tspan></text>
    </g>
  </g>
</svg>