<?xml version="1.0" encoding="UTF-8"?>
<svg id="Layer_1" data-name="Layer 1" xmlns="http://www.w3.org/2000/svg" width="467" height="200" version="1.1" viewBox="0 0 467 200">
  <defs>
    <style>
      .cls-1 {
        fill: #454545;
      }

      .cls-1, .cls-2 {
        stroke-width: 0px;
      }

      .cls-2 {
        fill: #7c7c7c;
      }

      .cls-3 {
        isolation: isolate;
      }
    </style>
  </defs>
  <g id="Layer_1-2" data-name="Layer 1-2">
    <g class="cls-3">
      <g class="cls-3">
        <g class="cls-3">
          <path class="cls-1" d="M77.4,27.3v6.3h-43v46.8h43v6.3h-43v53.2h-6.3V27.3h49.3Z"/>
          <path class="cls-1" d="M154.4,27.3v112.7h-6.3V27.3h6.3Z"/>
          <path class="cls-1" d="M321.1,126c-10.7,10.2-23.5,15.3-38.4,15.3s-29.6-5.6-40.8-16.9c-11.2-11.2-16.9-24.8-16.9-40.8s5.6-29.5,16.9-40.8c11.2-11.3,24.8-16.9,40.8-16.9s27.8,5,38.8,15l-4.8,4.4c-9.7-8.6-21-12.9-34-12.9s-26.2,5-36.2,15c-10,10-15,22.1-15,36.2s5,26.3,15,36.3c10,10,22.1,15,36.2,15s22.8-3.7,32-11.2v-34.4h6.3v36.6h.1Z"/>
          <path class="cls-1" d="M383.7,140l35.7-61.9-29.3-50.8h7.3l25.6,44.5,25.8-44.5h7.3l-29.4,50.8,35.8,61.9h-7.3l-32.2-55.6-32.1,55.6h-7.2,0Z"/>
        </g>
      </g>
    </g>
  </g>
  <g>
    <path class="cls-2" d="M26.8,165.8h1.9l4.4,12.2h-1.8l-1.2-3.7h-4.8l-1.3,3.7h-1.7l4.6-12.2ZM29.6,173l-1.9-5.4-2,5.4h3.8Z"/>
    <path class="cls-2" d="M38.5,166.6h1.5v2.5h1.4v1.2h-1.4v5.8c0,.3.1.5.3.6.1,0,.3,0,.6,0s.1,0,.2,0,.2,0,.3,0v1.2c-.2,0-.4,0-.5.1-.2,0-.4,0-.6,0-.7,0-1.2-.2-1.4-.5-.2-.4-.4-.8-.4-1.4v-5.9h-1.2v-1.2h1.2v-2.5Z"/>
    <path class="cls-2" d="M48.4,169.4c.6.3,1,.7,1.3,1.1.3.4.5,1,.6,1.6,0,.4.1,1.1.1,2h-6.5c0,.9.2,1.6.6,2.2s1,.8,1.8.8,1.4-.3,1.9-.8c.3-.3.4-.6.5-1h1.5c0,.3-.2.7-.4,1.1-.2.4-.5.7-.7,1-.5.4-1,.7-1.7.9-.4,0-.8.1-1.2.1-1.1,0-2-.4-2.8-1.2-.8-.8-1.1-1.9-1.1-3.4s.4-2.6,1.2-3.5,1.8-1.3,3-1.3,1.2.1,1.8.4ZM49,172.8c0-.6-.2-1.2-.4-1.6-.4-.7-1.1-1.1-2-1.1s-1.3.2-1.7.7-.7,1.1-.7,1.9h4.9Z"/>
    <path class="cls-2" d="M52.4,169.1h1.4v1.3c.4-.5.9-.9,1.3-1.1s1-.3,1.6-.3c1.3,0,2.1.4,2.6,1.3.2.5.4,1.2.4,2.1v5.7h-1.5v-5.6c0-.5,0-1-.2-1.3-.3-.6-.7-.8-1.4-.8s-.6,0-.9.1c-.4.1-.8.4-1.1.7-.2.3-.4.6-.5.9,0,.3-.1.8-.1,1.3v4.7h-1.5v-8.9Z"/>
    <path class="cls-2" d="M62.2,166.6h1.5v2.5h1.4v1.2h-1.4v5.8c0,.3.1.5.3.6.1,0,.3,0,.6,0s.1,0,.2,0,.2,0,.3,0v1.2c-.2,0-.4,0-.5.1-.2,0-.4,0-.6,0-.7,0-1.2-.2-1.4-.5-.2-.4-.4-.8-.4-1.4v-5.9h-1.2v-1.2h1.2v-2.5Z"/>
    <path class="cls-2" d="M71.3,172.6c.3,0,.6-.2.7-.4,0-.1,0-.3,0-.6,0-.5-.2-.9-.5-1.1-.4-.2-.9-.3-1.6-.3s-1.3.2-1.7.6c-.2.2-.3.6-.4,1h-1.4c0-1.1.4-1.9,1.1-2.3.7-.4,1.5-.6,2.4-.6s1.9.2,2.5.6c.6.4,1,1,1,1.9v5.1c0,.2,0,.3,0,.4,0,0,.2.1.4.1s.1,0,.2,0c0,0,.2,0,.3,0v1.1c-.2,0-.4.1-.5.1s-.3,0-.5,0c-.5,0-.9-.2-1.1-.5-.1-.2-.2-.5-.3-.8-.3.4-.7.7-1.3,1-.6.3-1.2.4-1.9.4s-1.5-.2-2-.8c-.5-.5-.8-1.1-.8-1.9s.3-1.5.8-1.9,1.2-.7,2-.8l2.4-.3ZM68.2,176.7c.3.2.7.4,1.1.4s1-.1,1.5-.4c.8-.4,1.2-1.1,1.2-2v-1.2c-.2.1-.4.2-.7.3-.3,0-.6.1-.8.2h-.9c-.5.2-.9.3-1.2.5-.5.3-.7.7-.7,1.2s.2.8.5,1Z"/>
    <path class="cls-2" d="M76.3,166.6h1.5v2.5h1.4v1.2h-1.4v5.8c0,.3.1.5.3.6.1,0,.3,0,.6,0s.1,0,.2,0,.2,0,.3,0v1.2c-.2,0-.4,0-.5.1-.2,0-.4,0-.6,0-.7,0-1.2-.2-1.4-.5-.2-.4-.4-.8-.4-1.4v-5.9h-1.2v-1.2h1.2v-2.5Z"/>
    <path class="cls-2" d="M80.8,165.8h1.5v1.7h-1.5v-1.7ZM80.8,169.2h1.5v8.8h-1.5v-8.8Z"/>
    <path class="cls-2" d="M85.3,169.1l2.4,7.2,2.5-7.2h1.6l-3.3,8.9h-1.6l-3.3-8.9h1.7Z"/>
    <path class="cls-2" d="M98.5,169.4c.6.3,1,.7,1.3,1.1.3.4.5,1,.6,1.6,0,.4.1,1.1.1,2h-6.5c0,.9.2,1.6.6,2.2s1,.8,1.8.8,1.4-.3,1.9-.8c.3-.3.4-.6.5-1h1.5c0,.3-.2.7-.4,1.1-.2.4-.5.7-.7,1-.5.4-1,.7-1.7.9-.4,0-.8.1-1.2.1-1.1,0-2-.4-2.8-1.2-.8-.8-1.1-1.9-1.1-3.4s.4-2.6,1.2-3.5,1.8-1.3,3-1.3,1.2.1,1.8.4ZM99.1,172.8c0-.6-.2-1.2-.4-1.6-.4-.7-1.1-1.1-2-1.1s-1.3.2-1.7.7-.7,1.1-.7,1.9h4.9Z"/>
    <path class="cls-2" d="M107.3,165.8h1.5v12.2h-1.5v-12.2Z"/>
    <path class="cls-2" d="M117.4,170c.8.8,1.2,1.9,1.2,3.4s-.3,2.6-1,3.5-1.8,1.4-3.2,1.4-2.2-.4-2.9-1.2c-.7-.8-1.1-1.9-1.1-3.3s.4-2.7,1.1-3.6c.8-.9,1.8-1.3,3-1.3s2.1.4,2.9,1.1ZM116.5,175.9c.4-.7.5-1.6.5-2.5s-.1-1.5-.4-2c-.4-.8-1.1-1.2-2.2-1.2s-1.6.3-2,1c-.4.7-.6,1.5-.6,2.5s.2,1.7.6,2.4c.4.6,1.1.9,2,.9s1.7-.4,2-1.1Z"/>
    <path class="cls-2" d="M125.4,169.5c.3.2.6.5.9.8v-1.1h1.4v8.1c0,1.1-.2,2-.5,2.7-.6,1.2-1.8,1.8-3.5,1.8s-1.8-.2-2.4-.6-1-1.1-1.1-2h1.5c0,.4.2.7.4.9.3.3.9.5,1.6.5,1.1,0,1.9-.4,2.2-1.2.2-.5.3-1.3.3-2.5-.3.5-.7.8-1.1,1-.4.2-1,.3-1.7.3s-1.8-.3-2.5-1-1.1-1.8-1.1-3.4.4-2.7,1.1-3.5c.7-.8,1.6-1.3,2.6-1.3s1.3.2,1.8.5ZM125.6,171.1c-.5-.5-1-.8-1.7-.8-1,0-1.8.5-2.1,1.5-.2.5-.3,1.2-.3,2.1s.2,1.8.6,2.3c.4.5.9.8,1.6.8,1.1,0,1.8-.5,2.3-1.5.2-.5.4-1.2.4-1.9,0-1.1-.2-1.9-.7-2.4Z"/>
    <path class="cls-2" d="M136.3,170c.8.8,1.2,1.9,1.2,3.4s-.3,2.6-1,3.5-1.8,1.4-3.2,1.4-2.2-.4-2.9-1.2c-.7-.8-1.1-1.9-1.1-3.3s.4-2.7,1.1-3.6c.8-.9,1.8-1.3,3-1.3s2.1.4,2.9,1.1ZM135.4,175.9c.4-.7.5-1.6.5-2.5s-.1-1.5-.4-2c-.4-.8-1.1-1.2-2.2-1.2s-1.6.3-2,1c-.4.7-.6,1.5-.6,2.5s.2,1.7.6,2.4c.4.6,1.1.9,2,.9s1.7-.4,2-1.1Z"/>
    <path class="cls-2" d="M139.7,176.2h1.7v1.8h-1.7v-1.8Z"/>
    <path class="cls-2" d="M157.6,165.8v1.5h-4.1v10.7h-1.7v-10.7h-4.1v-1.5h9.9Z"/>
    <path class="cls-2" d="M158.9,165.8h1.5v4.5c.4-.4.7-.8,1-.9.5-.3,1.1-.5,1.8-.5,1.3,0,2.2.5,2.6,1.4.2.5.4,1.2.4,2v5.7h-1.5v-5.6c0-.7,0-1.1-.2-1.4-.3-.5-.8-.7-1.5-.7s-1.2.2-1.7.6c-.5.4-.8,1.2-.8,2.4v4.7h-1.5v-12.2Z"/>
    <path class="cls-2" d="M173.8,169.4c.6.3,1,.7,1.3,1.1.3.4.5,1,.6,1.6,0,.4.1,1.1.1,2h-6.5c0,.9.2,1.6.6,2.2s1,.8,1.8.8,1.4-.3,1.9-.8c.3-.3.4-.6.5-1h1.5c0,.3-.2.7-.4,1.1-.2.4-.5.7-.7,1-.5.4-1,.7-1.7.9-.4,0-.8.1-1.2.1-1.1,0-2-.4-2.8-1.2-.8-.8-1.1-1.9-1.1-3.4s.4-2.6,1.2-3.5,1.8-1.3,3-1.3,1.2.1,1.8.4ZM174.4,172.8c0-.6-.2-1.2-.4-1.6-.4-.7-1.1-1.1-2-1.1s-1.3.2-1.7.7-.7,1.1-.7,1.9h4.9Z"/>
    <path class="cls-2" d="M183.2,169.1l1.7,7,1.7-7h1.7l1.7,7,1.8-7h1.5l-2.6,8.9h-1.6l-1.8-6.9-1.8,6.9h-1.6l-2.6-8.9h1.6Z"/>
    <path class="cls-2" d="M194.8,165.8h1.5v4.5c.4-.4.7-.8,1-.9.5-.3,1.1-.5,1.8-.5,1.3,0,2.2.5,2.6,1.4.2.5.4,1.2.4,2v5.7h-1.5v-5.6c0-.7,0-1.1-.2-1.4-.3-.5-.8-.7-1.5-.7s-1.2.2-1.7.6c-.5.4-.8,1.2-.8,2.4v4.7h-1.5v-12.2Z"/>
    <path class="cls-2" d="M210.7,170c.8.8,1.2,1.9,1.2,3.4s-.3,2.6-1,3.5-1.8,1.4-3.2,1.4-2.2-.4-2.9-1.2c-.7-.8-1.1-1.9-1.1-3.3s.4-2.7,1.1-3.6c.8-.9,1.8-1.3,3-1.3s2.1.4,2.9,1.1ZM209.8,175.9c.4-.7.5-1.6.5-2.5s-.1-1.5-.4-2c-.4-.8-1.1-1.2-2.2-1.2s-1.6.3-2,1c-.4.7-.6,1.5-.6,2.5s.2,1.7.6,2.4c.4.6,1.1.9,2,.9s1.7-.4,2-1.1Z"/>
    <path class="cls-2" d="M213.7,165.8h1.5v12.2h-1.5v-12.2Z"/>
    <path class="cls-2" d="M223,169.4c.6.3,1,.7,1.3,1.1.3.4.5,1,.6,1.6,0,.4.1,1.1.1,2h-6.5c0,.9.2,1.6.6,2.2s1,.8,1.8.8,1.4-.3,1.9-.8c.3-.3.4-.6.5-1h1.5c0,.3-.2.7-.4,1.1-.2.4-.5.7-.7,1-.5.4-1,.7-1.7.9-.4,0-.8.1-1.2.1-1.1,0-2-.4-2.8-1.2-.8-.8-1.1-1.9-1.1-3.4s.4-2.6,1.2-3.5,1.8-1.3,3-1.3,1.2.1,1.8.4ZM223.5,172.8c0-.6-.2-1.2-.4-1.6-.4-.7-1.1-1.1-2-1.1s-1.3.2-1.7.7-.7,1.1-.7,1.9h4.9Z"/>
    <path class="cls-2" d="M232.4,169.1l1.7,7,1.7-7h1.7l1.7,7,1.8-7h1.5l-2.6,8.9h-1.6l-1.8-6.9-1.8,6.9h-1.6l-2.6-8.9h1.6Z"/>
    <path class="cls-2" d="M249.4,169.4c.6.3,1,.7,1.3,1.1.3.4.5,1,.6,1.6,0,.4.1,1.1.1,2h-6.5c0,.9.2,1.6.6,2.2.4.5,1,.8,1.8.8s1.4-.3,1.9-.8c.3-.3.4-.6.5-1h1.5c0,.3-.2.7-.4,1.1s-.5.7-.7,1c-.5.4-1,.7-1.7.9-.4,0-.8.1-1.2.1-1.1,0-2-.4-2.8-1.2-.8-.8-1.1-1.9-1.1-3.4s.4-2.6,1.2-3.5c.8-.9,1.8-1.3,3-1.3s1.2.1,1.8.4ZM250,172.8c0-.6-.2-1.2-.4-1.6-.4-.7-1.1-1.1-2-1.1s-1.3.2-1.7.7-.7,1.1-.7,1.9h4.9Z"/>
    <path class="cls-2" d="M253.3,165.8h1.5v4.4c.3-.4.7-.8,1.2-1,.5-.2,1-.3,1.5-.3,1.1,0,2,.4,2.7,1.1s1,1.9,1,3.4-.3,2.6-1,3.5-1.6,1.4-2.8,1.4-1.2-.2-1.7-.5c-.3-.2-.6-.5-.9-.9v1.1h-1.4v-12.2ZM259,176c.4-.6.6-1.5.6-2.5s-.2-1.7-.6-2.3c-.4-.6-1-.9-1.8-.9s-1.3.3-1.8.8c-.5.5-.8,1.3-.8,2.5s.1,1.5.3,2c.4,1,1.1,1.5,2.2,1.5s1.4-.3,1.8-1Z"/>
    <path class="cls-2" d="M263.7,175.2c0,.5.2.9.4,1.1.4.5,1.1.7,2,.7s1.1-.1,1.5-.4c.4-.2.6-.6.6-1.1s-.2-.7-.5-.9c-.2-.1-.7-.3-1.3-.4l-1.2-.3c-.8-.2-1.3-.4-1.7-.6-.7-.4-1-1-1-1.7s.3-1.5.9-2c.6-.5,1.4-.8,2.5-.8s2.3.4,2.9,1.2c.4.5.6,1,.5,1.6h-1.4c0-.3-.2-.6-.4-.9-.4-.4-1-.6-1.8-.6s-1,.1-1.3.3c-.3.2-.4.5-.4.9s.2.7.6.9c.2.1.6.3,1,.4l1,.2c1.1.3,1.8.5,2.2.8.6.4.9,1,.9,1.8s-.3,1.5-.9,2c-.6.6-1.5.9-2.8.9s-2.3-.3-2.8-.9c-.6-.6-.9-1.3-.9-2.2h1.4Z"/>
    <path class="cls-2" d="M271.3,165.8h1.5v1.7h-1.5v-1.7ZM271.3,169.2h1.5v8.8h-1.5v-8.8Z"/>
    <path class="cls-2" d="M275.4,166.6h1.5v2.5h1.4v1.2h-1.4v5.8c0,.3.1.5.3.6.1,0,.3,0,.6,0s.1,0,.2,0,.2,0,.3,0v1.2c-.2,0-.3,0-.5.1-.2,0-.4,0-.6,0-.7,0-1.2-.2-1.4-.5-.2-.4-.4-.8-.4-1.4v-5.9h-1.2v-1.2h1.2v-2.5Z"/>
    <path class="cls-2" d="M285.3,169.4c.6.3,1,.7,1.3,1.1.3.4.5,1,.6,1.6,0,.4.1,1.1.1,2h-6.5c0,.9.2,1.6.6,2.2.4.5,1,.8,1.8.8s1.4-.3,1.9-.8c.3-.3.4-.6.5-1h1.5c0,.3-.2.7-.4,1.1s-.5.7-.7,1c-.5.4-1,.7-1.7.9-.4,0-.8.1-1.2.1-1.1,0-2-.4-2.8-1.2-.8-.8-1.1-1.9-1.1-3.4s.4-2.6,1.2-3.5c.8-.9,1.8-1.3,3-1.3s1.2.1,1.8.4ZM285.9,172.8c0-.6-.2-1.2-.4-1.6-.4-.7-1.1-1.1-2-1.1s-1.3.2-1.7.7-.7,1.1-.7,1.9h4.9Z"/>
    <path class="cls-2" d="M294,165.8h1.5v1.7h-1.5v-1.7ZM294,169.2h1.5v8.8h-1.5v-8.8Z"/>
    <path class="cls-2" d="M298.7,175.2c0,.5.2.9.4,1.1.4.5,1.1.7,2,.7s1.1-.1,1.5-.4c.4-.2.6-.6.6-1.1s-.2-.7-.5-.9c-.2-.1-.7-.3-1.3-.4l-1.2-.3c-.8-.2-1.3-.4-1.7-.6-.7-.4-1-1-1-1.7s.3-1.5.9-2c.6-.5,1.4-.8,2.5-.8s2.3.4,2.9,1.2c.4.5.6,1,.5,1.6h-1.4c0-.3-.2-.6-.4-.9-.4-.4-1-.6-1.8-.6s-1,.1-1.3.3c-.3.2-.4.5-.4.9s.2.7.6.9c.2.1.6.3,1,.4l1,.2c1.1.3,1.8.5,2.2.8.6.4.9,1,.9,1.8s-.3,1.5-.9,2c-.6.6-1.5.9-2.8.9s-2.3-.3-2.8-.9c-.6-.6-.9-1.3-.9-2.2h1.4Z"/>
    <path class="cls-2" d="M312.5,169.1v5.9c0,.5,0,.8.2,1.1.3.5.7.8,1.4.8,1,0,1.7-.5,2.1-1.4.2-.5.3-1.2.3-2v-4.4h1.5v8.9h-1.4v-1.3c-.2.3-.4.6-.7.9-.6.5-1.2.7-2,.7-1.2,0-2.1-.4-2.5-1.3-.2-.5-.4-1.1-.4-1.8v-6h1.5Z"/>
    <path class="cls-2" d="M320.5,169.1h1.4v1.3c.4-.5.9-.9,1.3-1.1s1-.3,1.6-.3c1.3,0,2.1.4,2.6,1.3.2.5.4,1.2.4,2.1v5.7h-1.5v-5.6c0-.5,0-1-.2-1.3-.3-.6-.7-.8-1.4-.8s-.6,0-.9.1c-.4.1-.8.4-1.1.7-.2.3-.4.6-.5.9,0,.3-.1.8-.1,1.3v4.7h-1.5v-8.9Z"/>
    <path class="cls-2" d="M334.8,169.4c.3.2.6.5.9.9v-4.5h1.4v12.2h-1.3v-1.2c-.3.5-.8.9-1.2,1.2-.5.2-1,.4-1.6.4-1,0-1.8-.4-2.6-1.2-.7-.8-1.1-1.9-1.1-3.3s.3-2.4,1-3.4c.7-.9,1.6-1.4,2.8-1.4s1.2.1,1.7.4ZM331.5,176c.4.6,1,1,1.9,1s1.3-.3,1.7-.9.7-1.4.7-2.6-.2-2-.7-2.5c-.5-.5-1-.8-1.7-.8s-1.4.3-1.8.9c-.5.6-.7,1.4-.7,2.5s.2,1.7.6,2.4Z"/>
    <path class="cls-2" d="M344.9,169.4c.6.3,1,.7,1.3,1.1.3.4.5,1,.6,1.6,0,.4.1,1.1.1,2h-6.5c0,.9.2,1.6.6,2.2.4.5,1,.8,1.8.8s1.4-.3,1.9-.8c.3-.3.4-.6.5-1h1.5c0,.3-.2.7-.4,1.1s-.5.7-.7,1c-.5.4-1,.7-1.7.9-.4,0-.8.1-1.2.1-1.1,0-2-.4-2.8-1.2-.8-.8-1.1-1.9-1.1-3.4s.4-2.6,1.2-3.5c.8-.9,1.8-1.3,3-1.3s1.2.1,1.8.4ZM345.4,172.8c0-.6-.2-1.2-.4-1.6-.4-.7-1.1-1.1-2-1.1s-1.3.2-1.7.7-.7,1.1-.7,1.9h4.9Z"/>
    <path class="cls-2" d="M348.9,169.1h1.4v1.5c.1-.3.4-.7.9-1.1.5-.4,1-.6,1.6-.6s0,0,.1,0,.2,0,.3,0v1.6c0,0-.2,0-.2,0,0,0-.2,0-.2,0-.8,0-1.3.2-1.7.7s-.6,1-.6,1.7v5.1h-1.5v-8.9Z"/>
    <path class="cls-2" d="M365.1,169.6c.6.5,1,1.3,1.1,2.5h-1.5c0-.5-.3-1-.6-1.4s-.8-.5-1.5-.5-1.6.5-2,1.4c-.3.6-.4,1.3-.4,2.2s.2,1.6.6,2.2c.4.6,1,.9,1.8.9s1.1-.2,1.5-.6.6-.9.8-1.6h1.5c-.2,1.2-.6,2-1.2,2.6s-1.5.8-2.5.8-2.1-.4-2.8-1.3-1-1.9-1-3.2.4-2.8,1.1-3.6c.8-.9,1.7-1.3,2.9-1.3s1.8.2,2.4.7Z"/>
    <path class="cls-2" d="M374.2,170c.8.8,1.2,1.9,1.2,3.4s-.3,2.6-1,3.5-1.8,1.4-3.2,1.4-2.2-.4-2.9-1.2c-.7-.8-1.1-1.9-1.1-3.3s.4-2.7,1.1-3.6,1.8-1.3,3-1.3,2.1.4,2.9,1.1ZM373.2,175.9c.4-.7.5-1.6.5-2.5s-.1-1.5-.4-2c-.4-.8-1.1-1.2-2.2-1.2s-1.6.3-2,1c-.4.7-.6,1.5-.6,2.5s.2,1.7.6,2.4c.4.6,1.1.9,2,.9s1.7-.4,2-1.1Z"/>
    <path class="cls-2" d="M377.2,169.1h1.4v1.3c.4-.5.9-.9,1.3-1.1s1-.3,1.6-.3c1.3,0,2.1.4,2.6,1.3.2.5.4,1.2.4,2.1v5.7h-1.5v-5.6c0-.5,0-1-.2-1.3-.3-.6-.7-.8-1.4-.8s-.6,0-.9.1c-.4.1-.8.4-1.1.7-.2.3-.4.6-.5.9,0,.3-.1.8-.1,1.3v4.7h-1.5v-8.9Z"/>
    <path class="cls-2" d="M387.5,175.2c0,.5.2.9.4,1.1.4.5,1.1.7,2,.7s1.1-.1,1.5-.4c.4-.2.6-.6.6-1.1s-.2-.7-.5-.9c-.2-.1-.7-.3-1.3-.4l-1.2-.3c-.8-.2-1.3-.4-1.7-.6-.7-.4-1-1-1-1.7s.3-1.5.9-2c.6-.5,1.4-.8,2.5-.8s2.3.4,2.9,1.2c.4.5.6,1,.5,1.6h-1.4c0-.3-.2-.6-.4-.9-.4-.4-1-.6-1.8-.6s-1,.1-1.3.3c-.3.2-.4.5-.4.9s.2.7.6.9c.2.1.6.3,1,.4l1,.2c1.1.3,1.8.5,2.2.8.6.4.9,1,.9,1.8s-.3,1.5-.9,2c-.6.6-1.5.9-2.8.9s-2.3-.3-2.8-.9c-.6-.6-.9-1.3-.9-2.2h1.4Z"/>
    <path class="cls-2" d="M395.4,166.6h1.5v2.5h1.4v1.2h-1.4v5.8c0,.3.1.5.3.6.1,0,.3,0,.6,0s.1,0,.2,0,.2,0,.3,0v1.2c-.2,0-.3,0-.5.1-.2,0-.4,0-.6,0-.7,0-1.2-.2-1.4-.5-.2-.4-.4-.8-.4-1.4v-5.9h-1.2v-1.2h1.2v-2.5Z"/>
    <path class="cls-2" d="M399.9,169.1h1.4v1.5c.1-.3.4-.7.9-1.1.5-.4,1-.6,1.6-.6s0,0,.1,0,.2,0,.3,0v1.6c0,0-.2,0-.2,0,0,0-.2,0-.2,0-.8,0-1.3.2-1.7.7s-.6,1-.6,1.7v5.1h-1.5v-8.9Z"/>
    <path class="cls-2" d="M407,169.1v5.9c0,.5,0,.8.2,1.1.3.5.7.8,1.4.8,1,0,1.7-.5,2.1-1.4.2-.5.3-1.2.3-2v-4.4h1.5v8.9h-1.4v-1.3c-.2.3-.4.6-.7.9-.6.5-1.2.7-2,.7-1.2,0-2.1-.4-2.5-1.3-.2-.5-.4-1.1-.4-1.8v-6h1.5Z"/>
    <path class="cls-2" d="M420.8,169.6c.6.5,1,1.3,1.1,2.5h-1.5c0-.5-.3-1-.6-1.4s-.8-.5-1.5-.5-1.6.5-2,1.4c-.3.6-.4,1.3-.4,2.2s.2,1.6.6,2.2c.4.6,1,.9,1.8.9s1.1-.2,1.5-.6.6-.9.8-1.6h1.5c-.2,1.2-.6,2-1.2,2.6s-1.5.8-2.5.8-2.1-.4-2.8-1.3-1-1.9-1-3.2.4-2.8,1.1-3.6c.8-.9,1.7-1.3,2.9-1.3s1.8.2,2.4.7Z"/>
    <path class="cls-2" d="M423.8,166.6h1.5v2.5h1.4v1.2h-1.4v5.8c0,.3.1.5.3.6.1,0,.3,0,.6,0s.1,0,.2,0,.2,0,.3,0v1.2c-.2,0-.3,0-.5.1-.2,0-.4,0-.6,0-.7,0-1.2-.2-1.4-.5-.2-.4-.4-.8-.4-1.4v-5.9h-1.2v-1.2h1.2v-2.5Z"/>
    <path class="cls-2" d="M428.2,165.8h1.5v1.7h-1.5v-1.7ZM428.2,169.2h1.5v8.8h-1.5v-8.8Z"/>
    <path class="cls-2" d="M438.4,170c.8.8,1.2,1.9,1.2,3.4s-.3,2.6-1,3.5-1.8,1.4-3.2,1.4-2.2-.4-2.9-1.2c-.7-.8-1.1-1.9-1.1-3.3s.4-2.7,1.1-3.6,1.8-1.3,3-1.3,2.1.4,2.9,1.1ZM437.5,175.9c.4-.7.5-1.6.5-2.5s-.1-1.5-.4-2c-.4-.8-1.1-1.2-2.2-1.2s-1.6.3-2,1c-.4.7-.6,1.5-.6,2.5s.2,1.7.6,2.4c.4.6,1.1.9,2,.9s1.7-.4,2-1.1Z"/>
    <path class="cls-2" d="M441.4,169.1h1.4v1.3c.4-.5.9-.9,1.3-1.1s1-.3,1.6-.3c1.3,0,2.1.4,2.6,1.3.2.5.4,1.2.4,2.1v5.7h-1.5v-5.6c0-.5,0-1-.2-1.3-.3-.6-.7-.8-1.4-.8s-.6,0-.9.1c-.4.1-.8.4-1.1.7-.2.3-.4.6-.5.9,0,.3-.1.8-.1,1.3v4.7h-1.5v-8.9Z"/>
    <path class="cls-2" d="M451.2,176.2h1.7v1.8h-1.7v-1.8Z"/>
  </g>
</svg>