<?xml version="1.0" encoding="UTF-8"?>
<svg xmlns="http://www.w3.org/2000/svg" width="27.4" height="27.4" version="1.1" viewBox="0 0 27.4 27.4">
  <defs>
    <style>
      .cls-1 {
        fill: #222221;
      }

      .cls-1, .cls-2, .cls-3, .cls-4 {
        opacity: .2;
      }

      .cls-2 {
        fill: #fff;
      }

      .cls-4 {
        fill: none;
      }
    </style>
  </defs>
  <!-- Generator: Adobe Illustrator 28.7.1, SVG Export Plug-In . SVG Version: 1.2.0 Build 142)  -->
  <g>
    <g id="Layer_1">
      <path class="cls-2" d="M3.2,7.3l-.8-.4c-.2,0-.2-.2-.1-.3h0s0,0,0,0l-.4.7h0s0,0,0,0c0-.1.1-.2.2-.2s.1,0,.2,0l.7.3c.5.2.4.6.3.9-.1.3-.3.4-.6.4s-.2,0-.3,0l-.8-.4c-.1,0-.2-.1,0-.3h0s0,0,0,0l-.4.8h0s0,0,0,0c0-.1.1-.2.2-.2s0,0,.1,0l.8.4c.1,0,.2,0,.4,0,.3,0,.6-.2.8-.6.3-.6,0-1.1-.3-1.2h0Z"/>
      <path class="cls-2" d="M4.2,4.3s0-.1.1-.2h0s0,0,0,0l-.5.6h0c0,0,0,0,0,0,0-.1.2-.2.2-.2s0,0,.1,0l.9.8h-2.1c0,.1-.3.5-.3.5h0c0,0,0,0,0,0,0,0,.1-.1.2-.1l1.2,1c0,0,.1.1,0,.3h0s0,.1,0,.1l.5-.6h0c0,0,0,0,0,0,0,.1-.1.2-.2.2h0s0,0-.2,0l-1-.8h2.3c0-.1,0-.2,0-.2l-1.4-1.2s0,0,0,0h0Z"/>
      <path class="cls-2" d="M6.7,4.5c0,0-.1,0-.2,0s0,0-.2-.1l-.9-1c-.1-.1,0-.2,0-.3h0s0-.1,0-.1l-.6.5h0c0,0,0,0,0,0,0,0,.1,0,.1,0s0,0,.1,0l.9,1c.1.2.1.2,0,.3h0s0,.1,0,.1l.6-.5h0c0,0,0,0,0,0h0Z"/>
      <path class="cls-2" d="M7.9,1.6h0,0c0-.1-.7.3-.7.3h0c0,0,0,0,0,0,0,0,.2,0,.2,0s0,0,0,0,0,0,0,.2l.2,1.3-1.2-.9s0,0,0,0c0,0,0-.1.2-.2h0,0c0-.1-.8.4-.8.4h0c0,0,0,0,0,0,0,0,.1,0,.1,0,0,0,.1,0,.2.1l1.5,1.1h.2c0,0-.3-1.9-.3-1.9,0-.2,0-.3.1-.4h0Z"/>
      <path class="cls-2" d="M10.5,2.1h0c0,.3,0,.4-.2.4l-.5.2s0,0,0,0c0,0,0,0,0-.1l-.2-.6.5-.2s0,0,0,0c0,0,0,0,.2.2h0s.1,0,.1,0l-.2-.6h-.1c0,.2,0,.3,0,.3l-.5.2-.2-.7.6-.2s0,0,0,0c0,0,.1,0,.2.2h0s.1,0,.1,0l-.2-.5-1.5.5h0c0,.1,0,0,0,0,0,0,0,0,.1,0,0,0,.1,0,.2.2l.4,1.3c0,0,0,.1,0,.2,0,0,0,0-.2.1h-.1s0,.1,0,.1l1.6-.6v-.5c-.1,0-.2,0-.2,0h0Z"/>
      <path class="cls-2" d="M13.6,2.1c-.2,0-.4,0-.6-.2l-.3-.2c-.1-.1-.2-.2-.4-.3.2-.1.4-.3.3-.6,0-.4-.4-.5-.9-.5-.2,0-.3,0-.4,0,0,0,0,0-.1,0-.1,0-.2,0-.3,0h0,0c0,.1,0,.1,0,.1,0,0,0,0,0,0,0,0,.1,0,.2.2l.2,1.3c0,.2,0,.2-.2.3h0,0c0,.1.9,0,.9,0h0c0-.1-.1,0-.1,0h0c0,0-.2,0-.2-.2v-.5c0,0,0,0,0,0,0,0,.1,0,.2,0h0c0,0,.2,0,.3.2l.2.2c.3.2.5.4,1,.3h0,0c0-.1,0-.1,0-.1h0ZM12.3.9c0,.2,0,.3,0,.4,0,0-.2.2-.4.2h0s0,0-.1,0V.5c-.1,0,0,0,0,0,.4,0,.6,0,.6.4h0Z"/>
      <path class="cls-2" d="M14.7,1.1c-.2-.2-.4-.3-.4-.5,0-.2.1-.3.3-.2.2,0,.4.2.5.4h0s.1,0,.1,0v-.5h-.1s0,0,0,0h0s0,0-.1,0c0,0-.1,0-.3,0-.3,0-.6.2-.6.4,0,.3.2.5.5.7.2.2.4.3.4.5,0,.2-.2.3-.4.3-.2,0-.4-.2-.5-.5h0s-.1,0-.1,0v.5h.1s0,0,0,0h0s0,0,0,0c0,0,.2,0,.3,0h0c.4,0,.6-.2.6-.5,0-.3-.3-.5-.5-.7h0Z"/>
      <path class="cls-2" d="M16.1.5h0c.2,0,.2,0,.2.2l-.3,1.3c0,.2,0,.2-.2.2h-.1c0,.1.8.3.8.3h0c0-.1,0-.1,0-.1,0,0-.2,0-.2,0,0,0,0,0,0-.2l.3-1.3c0-.2,0-.2.2-.2s0,0,.1,0h0c0-.1-.8-.3-.8-.3h0c0,.1,0,0,0,0Z"/>
      <path class="cls-2" d="M19.4,1.4h0s0,0,0,0l-1.4-.6s0,0,0,0h0s0,0,0,0l-.3.5h0s0,0,0,0c.1-.2.2-.2.3-.2s0,0,0,0l.5.2-.6,1.4c0,.1,0,.1-.1.1s0,0-.1,0h-.1s0,0,0,0l1,.4h0c0-.1-.1-.2-.1-.2,0,0-.1,0-.1-.1,0,0,0,0,0-.2l.6-1.4.5.2c0,0,.1,0,0,.4h0s0,0,0,0l.2-.5h0s0,0,0,0h0Z"/>
      <path class="cls-2" d="M21.3,2.7h0c0,0,.1.1.1.1,0,0,0,0-.1,0l-.8.4v-.9c0-.1,0-.1,0-.1,0,0,0,0,.2,0h0s0,0,0,0l-.7-.5h0c0,0,0,.1,0,.1.2.1.2.2.2.5v1s-.3.4-.3.4c0,.1-.2.1-.3,0h0s0,0,0,0l.8.5h0c0,0,0-.1,0-.1,0,0-.1,0-.1-.1,0,0,0,0,0-.2l.3-.4.9-.4c0,0,.1,0,.2,0s.1,0,.2,0h0c0,0-.6-.5-.6-.5h0c0,0,0,0,0,0Z"/>
      <path class="cls-2" d="M24.4,5.5c-.2-.3-.6-.5-.9-.5s-.5,0-.7.2c-.5.3-.5,1,0,1.6.2.3.6.5.9.5h0c.2,0,.5,0,.7-.2.4-.3.5-1,.1-1.5ZM24.4,6.1c0,.2-.2.5-.4.7-.2.1-.4.2-.6.2s-.4,0-.5-.3c-.3-.4-.2-1,.2-1.3.2-.1.4-.2.6-.2s.4,0,.6.3c.1.2.2.4.2.6h0Z"/>
      <path class="cls-2" d="M25.4,7.2h0c0,.3,0,.3-.1.4l-1.1.5c0,0-.2,0-.2,0s0,0-.1-.1h0s-.1,0-.1,0l.4.7h.1c0-.2,0-.2,0-.3,0,0,0,0,.1-.1l.6-.3.2.5c0,.1,0,.2-.1.3h0,0c0,.1.6-.2.6-.2h0c0,0,0,0,0,0-.1,0-.2,0-.2,0l-.3-.5.6-.3.2.5c0,.2,0,.2-.1.3h0,0c0,.1.4,0,.4,0l-.6-1.3h0Z"/>
      <path class="cls-2" d="M2.6,21.4l1.1-2.1h0l-1.5,1c-.2.1-.1.3,0,.4h0s-.5-.6-.5-.6h0c.2.2.2.2.6,0l1.3-.8c.2-.1.3-.2.1-.4h0s.4.5.4.5l-1.1,2,2.2-.4.3.5h0c-.1-.1-.2-.2-.3,0l-1.4,1.2c-.3.2-.3.3,0,.5h0s-.6-.8-.6-.8h0c.1.1.3.2.4,0l1.4-1.2h0l-2.4.4h0c0,0,0,0,0,0Z"/>
      <path class="cls-2" d="M6.6,23.6l-.6-.4.8-.6-.3,1ZM6.6,23.8l-.2.8s0,.1,0,.2c0,0-.1,0-.3,0h0c0,0,0,0,0,0l.9.7h0c-.2-.2-.2-.3-.1-.5l.6-2.3-.3-.2h0c0,0-1.8,1.3-1.8,1.3-.3.2-.4.2-.6,0h0c0,0,.8.6.8.6h0c0,0,0,0,0,0-.2-.1-.2-.2-.2-.3,0,0,.1-.1.2-.2l.6-.4.7.5h0Z"/>
      <path class="cls-2" d="M9.2,23.8c0,0,.1,0,.2,0,.6.2.7.5.5.9-.2.5-.5.5-.9.4,0,0-.1,0-.2,0,0,0,.4-1.3.4-1.3ZM8.7,25.1c0,0,.1,0,.2,0,0,0,.2,0,.3,0,0,0,.2.2.3.5l.2.3c.2.5.3.7,1,.9h0c-.3-.2-.5-.4-.6-.7l-.2-.4c-.1-.2-.2-.4-.3-.6.3,0,.6-.1.7-.4.1-.4,0-.8-.8-1-.2,0-.3-.1-.5-.2s-.4-.1-.5-.1h0c0,0,0,0,0,0,.2,0,.3.2.2.4l-.6,1.6c0,.3-.2.3-.4.2h0s0,0,0,0l1.1.4h0c0,0,0,0,0,0-.2,0-.3-.2-.2-.4l.2-.6h0Z"/>
      <path class="cls-2" d="M13.3,25c.1-.2,0-.3-.2-.3h0c0,0,.9,0,.9,0h0c-.3,0-.4.2-.5.4l-.8,1.1v.6c0,.2,0,.3.2.3h0c0,0-1.1,0-1.1,0h0c0,0,0,0,0,0,.2,0,.3,0,.3-.3v-.6s-.6-1.2-.6-1.2c-.2-.3-.3-.4-.5-.4h0c0,0,1.1,0,1.1,0h0c-.3,0-.3.1-.2.3l.6,1.1.7-.9h0Z"/>
      <path class="cls-2" d="M16.7,26.9l-1.8.3h0c0,0,.1,0,.1,0,.2,0,.2,0,.2-.3l-.3-1.8c0-.2-.1-.3-.4-.2h0c0,0,1.2-.3,1.2-.3h0c0,0-.1.1-.1.1-.3,0-.3,0-.3.3l.3,1.9c0,.1,0,.1.2.1h.6c.2-.1.3-.2.5-.6h0s-.2.6-.2.6Z"/>
      <path class="cls-2" d="M18.7,24.8l-.6.3v-1s.6.7.6.7ZM18.8,25l.5.6s0,0,.1.1c0,.1,0,.2-.2.2h0s0,.1,0,.1l1-.4h0c-.2,0-.3,0-.4-.2l-1.7-1.8h-.3c0,.1,0,.2,0,.2v2.2c.1.4,0,.4-.1.5h0c0,0,.9-.3.9-.3h0c0,0,0,0,0,0-.2,0-.3,0-.4,0,0,0,0-.2,0-.3v-.7s.7-.3.7-.3h0Z"/>
      <path class="cls-2" d="M23.2,23.4l-3-.4,1.1,1.3c.2.2.3.2.5,0h0c0,0-.7.7-.7.7h0c0,0,0,0,0,0,.2-.2.2-.3,0-.4l-1.3-1.5c-.1,0-.2,0-.3.1h0c0,0,.5-.5.5-.5l2.8.3-1-1.2c-.2-.2-.2-.2-.5,0h0c0,0,.7-.7.7-.7h0c-.2.3-.2.3-.1.5l1.4,1.7h0c0,0,0,0,0,0Z"/>
      <path class="cls-2" d="M22.6,20.2s0-.1.2-.3c.3-.5.6-.6.8-.7.3,0,.7,0,.9.2.3.2.5.6.6.8,0,.3,0,.6-.3,1-.2.3-.2.2-.4.2,0,0-1.8-1.2-1.8-1.2ZM24.2,21.7c.2.1.2.2,0,.4h0c0,0,0,0,0,0l.7-1.1c.6-.9.2-1.7-.3-2-.6-.4-1.3-.3-1.9.6-.1.2-.2.4-.4.6s-.2.4-.3.5h0s0,0,0,0c.1-.2.2-.2.4,0l1.5.9h0Z"/>
      <path class="cls-2" d="M.6,12.8v1.7c0,0,0,.1.1.1h.2c0,0-.8,0-.8,0H.1c0,0,.2,0,.2,0,0,0,.1,0,.1-.1v-1.5c0,0-.3.2-.4.2H0c.2-.2.4-.4.5-.5h.1Z"/>
      <path class="cls-2" d="M2.3,14.3c0,.2-.2.4-.4.4s-.4-.2-.4-.4,0-.3.3-.5c.3.2.5.3.5.5ZM2.5,13.2c0-.2-.2-.4-.5-.4s-.5.2-.5.5.1.4.4.5c-.3.1-.4.3-.4.5s.3.5.6.5.6-.2.6-.5-.1-.4-.4-.5c.3-.1.4-.2.4-.4ZM2.3,13.2c0,.2,0,.3-.2.4-.4-.2-.5-.3-.5-.4s.2-.3.4-.3.4.2.4.4h0Z"/>
      <path class="cls-2" d="M24.8,13h.7s0,0,0,0h0v.2h-.8v.5c0,0,.2,0,.3,0,.3,0,.6.3.6.6s-.3.6-.7.6-.4,0-.4-.2,0,0,0,0c.2,0,.2.2.4.2s.4-.2.4-.5-.2-.5-.4-.5-.2,0-.3.1h0s0-1,0-1h0Z"/>
      <path class="cls-2" d="M27.1,14.3c0,.3-.1.5-.4.5s-.4-.2-.4-.7,0-.1,0-.2c.2-.1.3-.2.4-.2.2,0,.3.2.3.5h0ZM27.2,13c-.6.2-1,.6-1,1.2s.3.8.6.8.6-.3.6-.6-.2-.6-.5-.6-.3,0-.4.2c0-.4.3-.7.8-.9h0s0,0,0,0Z"/>
      <polygon class="cls-4" points="13.7 4.1 13.7 4.1 13.7 4.1 13.7 4.1"/>
      <polygon class="cls-4" points="13.7 4.1 13.7 4.1 13.7 4.1 13.7 4.1"/>
      <path class="cls-4" d="M8.9,14.2c.6,0,1.3,0,2.1.1-1-1.1-1.3-1.6-1.9-2.4.2-1.6.7-3.1,1.3-4.3h0c-.2-.8-.2-1.2,0-1.8.9-.8,2-1.5,3.1-1.7h0c-.6,0-1.2.2-1.8.4-.8.4-1,.7-1.3,1.3-1,.9-1.9,2.2-2.5,3.6.2.9.4,1.5,1.1,2.6-.1.7-.2,1.5-.2,2.2Z"/>
      <polygon class="cls-4" points="13.7 4.1 13.7 4.1 13.7 4.1 13.7 4.1"/>
      <polygon class="cls-4" points="13.7 4.1 13.7 4.1 13.7 4.1 13.7 4.1"/>
      <path class="cls-4" d="M14.8,7c-.3-.5,0-1.2.5-1,.3,0,.7.4.7,1,.5,0,1,0,1.4-.1-.2-.2-.4-.5-.6-.8-.4-.5-.8-.7-.9-.9h0c0,0-.2.3-.8,0,0,0-.1,0-.2-.1-.4-.3-.4-.5-.4-.6,0,0-.3-.1-.5-.3,0,.5,0,1.5,0,2.8.2-.2.5-.2.8,0h0Z"/>
      <path class="cls-4" d="M10.4,7.6c.3.8.5,1.2,1.2,2.2.4-2.7,1.1-4.8,2-5.6h0c-1.2.3-2.3,1.7-3.1,3.4Z"/>
      <path class="cls-4" d="M11.2,14.4c.7,0,1.4,0,2.2,0,0-.7,0-1.6,0-2.5-.8-.8-1.2-1.3-1.9-2.1-.2,1.4-.3,2.9-.4,4.5h0Z"/>
      <path class="cls-4" d="M13.9,8.4c.3.3.8.3,1.1,0-.1.6.3,1.2.8,1.2.7.1,1.2-.6.7-1.4.6,0,1.1,0,1.6-.1.3.7.6,1.4.8,2.2-.5-.2-.9.2-.9.7-.1.9.7,1.9,1.3,1.4-.2.6,0,1.3.4,1.6.2,0,.3,0,.5,0-.1-2.2-.5-4.2-2-6.5h0c-1.3.2-2.6.3-4.3.3v.6h0Z"/>
      <path class="cls-4" d="M13.5,20.5c-.3-.3-.9-.4-1.2-.2.2-.6-.6-1.1-1.1-1.1-.6,0-1,.5-.6,1.1-.6,0-1.2,0-1.7-.2-.3-.6-.6-1.2-.8-1.9.4.2.7.1.9-.2.3-.8-.6-2-1.3-1.7.1-.4,0-1.1-.3-1.6-.2,0-.3,0-.5,0,0,2.2.4,4.1,1.8,6.1,1.4.2,2.8.3,4.7.3v-.4h0Z"/>
      <polygon class="cls-1" points="17.3 21.9 17.3 21.9 17.3 21.9 17.3 21.9"/>
      <path class="cls-2" d="M13.9,17.3c1.2,1.2,1.3,1.2,1.9,1.8.2-1.2.3-2.6.3-4.2h0c-.7,0-1.4,0-2.1,0,0,.8,0,1.6,0,2.4h0Z"/>
      <path class="cls-2" d="M14.2,22.9c0,0,.1,0,.2,0,0,0,.2,0,.2,0,1,0,1.8-.8,2.4-2.1-.3-.5-.6-.9-1.3-1.6-.3,2.3-.9,3.7-1.6,3.7h0Z"/>
      <path class="cls-2" d="M17.3,21.9c.9-.7,1.7-1.7,2.2-3-.3-.7-.6-1-1.3-2,0,0-.5,2.8-1.1,3.8.3.6.3.8.2,1.2h0Z"/>
      <path class="cls-2" d="M17.3,21.9c-.6.5-1.3.7-2,.9h.2c.2,0,.2,0,.6-.2h.2c.7-.3.8-.4,1-.7h0Z"/>
      <path class="cls-2" d="M20.2,14.5c0,1.6-.3,3.1-.8,4.3.3.7.3,1,.2,1.6,1.4-1.5,2.2-3.7,2.2-6.2h0c-.4,0-.9.2-1.6.3h0Z"/>
      <path class="cls-2" d="M18.1,16.9c0-.7.1-1.4.1-2.1h0c-.6,0-1.3,0-2,0,1.1,1.1,1.4,1.4,1.9,2Z"/>
      <polygon class="cls-1" points="13.7 4.1 13.7 4.1 13.7 4.1 13.7 4.1"/>
      <path class="cls-2" d="M13.5,4.1c-.8,0-1.3.3-1.8.5.6-.2,1.2-.4,1.8-.5h0Z"/>
      <path class="cls-2" d="M19.4,12.5c-.7.5-1.5-.5-1.3-1.4,0-.5.4-.9.9-.7-.2-.8-.5-1.5-.8-2.2-.5,0-1,.1-1.6.1.5.8,0,1.5-.7,1.4-.5,0-1-.6-.8-1.2-.3.2-.8.2-1.1,0,0,2,0,4.4,0,6,2.6,0,4.5-.1,5.9-.3-.3-.3-.5-.9-.4-1.6h0Z"/>
      <path class="cls-2" d="M7.7,16.1c.7-.3,1.6.9,1.3,1.7-.1.4-.5.5-.9.2.2.7.5,1.3.8,1.9.5,0,1,.1,1.7.2-.5-.6,0-1.1.6-1.1.6,0,1.3.5,1.1,1.1.4-.2.9-.1,1.2.2,0-1.6,0-3.7,0-5.6-2.7,0-4.6-.2-6-.4.3.4.4,1.1.3,1.6h0Z"/>
      <path class="cls-2" d="M20.2,14c.2,0,.3,0,.5,0,.3-.4.3-1.1,0-1.6.5.2.7-.3.7-.8,0-.9-.8-1.8-1.2-1.3-.3-.8-.6-1.5-1-2.2,0,0,.1,0,.1,0,.3,0,.7-.2,1-.3,0,.2.2.6.7.8,0,0,0,0,0,0,.1,0,.3,0,.3-.1,0,0,0-.2,0-.3,0-.1,0-.2-.1-.2-.3-.7-.8-1.1-.8-1.1,0,.4-1.2.6-1.8.7,0,0-.2,0-.3,0h0c1.4,2.4,1.9,4.4,2,6.5h0Z"/>
      <path class="cls-2" d="M14.5,4.6c0,.1,0,.3.4.6,0,0,.1,0,.2.1.6.3.7,0,.8,0h0c.2.1.5.4.9.9.2.3.4.5.6.8-.4,0-.9,0-1.4.1,0-.6-.5-.9-.7-1-.6-.2-.8.5-.5,1-.3-.1-.6-.1-.8,0v.6c1.7,0,2.9,0,4.3-.3-1.2-1.8-2.1-2.5-3.4-3-.2,0-.6-.2-.9-.3v.2c.2.2.4.3.5.3h0Z"/>
      <polygon class="cls-3" points="13.7 4.1 13.7 4.1 13.7 4.1 13.7 4.1"/>
      <polygon class="cls-3" points="18.2 7.5 18.2 7.5 18.2 7.5 18.2 7.5"/>
      <path class="cls-2" d="M15.1,4.3h0c0,0,.2,0,.3,0,.1,0,.4.1.6.2s.5.3.5.5c0,0,0,0-.2,0,.6.4,1.4,1.1,1.8,1.7.3,0,.8-.1,1-.2,0,0-.7-.5-.9-.8,0,0,0,0,0,0,0,0,0,0,0,0,0,0,0,0,0,0,0,0,.4,0,1.2.5-1.6-1.3-3.4-1.8-4.9-2-.2,0-.6,0-.6,0,.5,0,.8.2.9.2,0,0,.1,0,.1,0h0Z"/>
      <path class="cls-2" d="M6.5,14.4c-.3.3-.3,1,0,1.5-.4-.3-.5,0-.6.1-.2.6.5,2.2,1.1,1.9.2.7.6,1.4,1,1.9-.4,0-.7-.2-1-.3,0,0-.7-1.2-1.1-1.3,0,0,0,0,0,0,0,0,.3.5.6.8.4.5.8,1,.9,1s0,0,0,0c.3.2.8.3,1.6.4-1.4-2-1.8-3.9-1.8-6.1-.2,0-.3,0-.5,0h0Z"/>
      <path class="cls-2" d="M8.8,20.6c1.2,1.6,2.4,2,3.1,2.1.1,0,.2,0,.5,0h0c-.4-.1-.7-.3-1.1-.4-.3,0-.4,0-.4,0-.5-.3-.9-.6-1.3-1.1.4,0,.9.1,1.4.1,0,.3.5.7.9.7.5,0,.8-.2.5-.6.4.2.8,0,1,0v-.4c-1.9,0-3.3-.1-4.7-.3h0Z"/>
      <path class="cls-1" d="M18.9,21.3c0,0-.1,0-.2.1,0,0,.2,0,.2-.1Z"/>
      <path class="cls-2" d="M19,21.3c.4-.3.5-.5.6-.9-.3.3-2,1.8-3.3,2.1.2,0,.4-.1.6-.2.7-.3.8-.3,1.3-.6,0,0,.2-.1.4-.2h0c.1,0,.2-.2.3-.2h0Z"/>
      <path class="cls-2" d="M8.1,7.2c.3-.8.6-1.1,1.3-1.7-2.7,1.6-4.5,4.5-4.7,7.8,0,0,.3.2.9.4.1-2.5,1.1-4.8,2.6-6.5h0Z"/>
      <polygon class="cls-1" points="13.7 4.1 13.7 4.1 13.7 4.1 13.7 4.1"/>
      <path class="cls-2" d="M11.5,4.3c-1.1.3-1.5.6-2.2,1.1,1.2-.7,2.6-1.3,4.1-1.4h0c-.7,0-1.3,0-1.9.2Z"/>
      <path class="cls-2" d="M9.1,12c-.7-1.1-.9-1.6-1.1-2.6-.6,1.4-.9,2.9-1,4.6.5,0,1.2.2,1.9.2,0-.8,0-1.5.2-2.2h0Z"/>
      <path class="cls-2" d="M11.5,9.8h0c.6.8,1.1,1.3,1.9,2.1,0-3.1,0-6.8,0-7.7-.8.8-1.5,2.9-2,5.6h0Z"/>
      <polygon class="cls-1" points="13.7 4.1 13.7 4.1 13.7 4.1 13.7 4.1"/>
      <path class="cls-2" d="M11.5,9.8h0c-.7-.9-.9-1.4-1.2-2.2h0c-.6,1.2-1,2.7-1.3,4.3.5.8.9,1.3,1.9,2.4h.2c0-1.6.1-3.1.4-4.5h0Z"/>
      <path class="cls-2" d="M22.8,13.9c0,3.2-1.5,5.8-3.8,7.4-.1,0-.2.1-.3.2h0s0,0,0,0c0,0,0,0,.1,0,0,0,.1,0,.2-.1,1.1-.7,2.4-1.9,3.3-3.8.8-1.6.9-3.2.9-3.9,0,0-.2.1-.4.2h0c0,0,0,0,0,0Z"/>
      <path class="cls-2" d="M10.4,5.8c.3-.5.5-.9,1.3-1.3-1.4.5-2.6,1.5-3.6,2.6-.3.9-.3,1.3-.1,2.2.6-1.4,1.5-2.7,2.5-3.6h0Z"/>
      <path class="cls-2" d="M10.4,7.7h0c.8-1.7,1.9-3,3.1-3.5h0c-1.1.2-2.2.8-3.1,1.7-.3.7-.2,1.1,0,1.8h0Z"/>
      <polygon class="cls-1" points="13.7 4.1 13.7 4.1 13.7 4.1 13.7 4.1"/>
      <path class="cls-2" d="M13.8,22.9c-5.2,0-9.5-4.2-9.5-9.5S8.5,4,13.8,4s9.5,4.2,9.5,9.5-4.2,9.5-9.5,9.5ZM13.8,4.1c-5.2,0-9.4,4.2-9.4,9.4s4.2,9.4,9.4,9.4,9.4-4.2,9.4-9.4-4.2-9.4-9.4-9.4Z"/>
    </g>
  </g>
</svg>