<?xml version="1.0" encoding="UTF-8"?>
<svg xmlns="http://www.w3.org/2000/svg" width="512" height="512" version="1.1" viewBox="0 0 512 512">
  <defs>
    <style>
      .cls-1 {
        fill: #ddd9e2;
      }

      .cls-2 {
        fill: #79757f;
      }
    </style>
  </defs>
  <!-- Generator: Adobe Illustrator 28.6.0, SVG Export Plug-In . SVG Version: 1.2.0 Build 594)  -->
  <g>
    <g id="Layer_1">
      <g id="Layer_1-2" data-name="Layer_1">
        <path class="cls-2" d="M250.9,82.5c4.1-7.1,14.1-7.1,18.2,0,36.2,62.7,168.2,96.1,177.7,197.8,8.4,89.8-59,163.3-186.8,163.3s-195.2-73.5-186.8-163.3c9.5-101.7,141.5-135.1,177.7-197.8h0Z"/>
        <path class="cls-1" d="M409.5,280.2c-4.4-47.9-46.4-77.4-87-106.1-21.5-15.1-42.1-29.7-57-46.7-2.8-3.3-8.1-3.3-10.9,0-14.8,17.1-35.5,31.6-57,46.7-40.5,28.5-82.5,58-87,106.1-3,31.9,6,60.4,26.1,82.5,26.1,28.6,69.9,44.4,123.3,44.4s97.2-15.8,123.3-44.4c20.1-22,29.2-50.6,26.1-82.5h0Z"/>
      </g>
    </g>
  </g>
</svg>