<?xml version="1.0" encoding="UTF-8"?>
<svg id="Layer_1" data-name="Layer 1" xmlns="http://www.w3.org/2000/svg" width="200" height="200" version="1.1" viewBox="0 0 200 200">
  <defs>
    <style>
      .cls-1 {
        fill: #010101;
        stroke-width: 0px;
      }
    </style>
  </defs>
  <polygon class="cls-1" points="2.7 31 48.7 57.3 48.7 84.4 2.7 110.7 2.7 31"/>
  <polygon class="cls-1" points="5 27 47.6 2.4 51.1 .4 147.7 56.3 101.7 82.6 5 27"/>
  <polygon class="cls-1" points="53 142.2 5.1 114.6 51.3 88.2 198.1 172.9 152.2 199.4 53 142.2"/>
  <polygon class="cls-1" points="5 172.9 51.2 146.3 97 172.8 50.9 199.4 5 172.9"/>
  <polygon class="cls-1" points="2.7 118.4 46.6 143.7 2.7 169 2.7 118.4"/>
  <polygon class="cls-1" points="106 114.6 151.9 88.2 198 114.6 151.9 141.1 106 114.6"/>
</svg>