<?xml version="1.0" encoding="UTF-8"?>
<svg id="Layer_1" data-name="Layer 1" xmlns="http://www.w3.org/2000/svg" width="467" height="200" version="1.1" viewBox="0 0 467 200">
  <defs>
    <style>
      .cls-1 {
        fill: #454545;
      }

      .cls-1, .cls-2, .cls-3, .cls-4 {
        stroke-width: 0px;
      }

      .cls-2 {
        fill: #7b7781;
      }

      .cls-3 {
        fill: #cbe1cc;
      }

      .cls-4 {
        fill: #444143;
      }

      .cls-5 {
        isolation: isolate;
      }
    </style>
  </defs>
  <g id="Layer_1-2" data-name="Layer 1-2">
    <g id="Layer_1-2-2" data-name="Layer 1-2">
      <path class="cls-1" d="M-236,17.6c1.4-2.4,4.7-2.4,6.2,0,12.2,21.2,57.1,32.6,60.3,67,2.8,30.5-20.1,55.4-63.4,55.4s-66.2-24.9-63.3-55.4c3.2-34.5,48.1-45.8,60.3-67h0Z"/>
      <path class="cls-3" d="M-175.8,85.3c-1.7-18.3-17.7-29.5-33.2-40.5-8.2-5.8-16.1-11.3-21.7-17.8-1.1-1.3-3.1-1.3-4.2,0-5.7,6.5-13.5,12-21.7,17.8-15.4,10.9-31.4,22.2-33.2,40.5-1.2,12.2,2.3,23,10,31.4,10,10.9,26.7,17,47.1,17s37-6.1,47.1-17c7.7-8.4,11.2-19.3,10-31.4h-.2Z"/>
      <g>
        <path class="cls-4" d="M-263.2,102.1c-.9,0-1.9-.4-2.5-1.2-1.1-1.4-.8-3.4.6-4.5l1.8-1.4c1.4-1.1,3.4-.8,4.5.6s.8,3.4-.6,4.5l-1.8,1.4c-.6.5-1.3.7-2,.7h0Z"/>
        <path class="cls-4" d="M-264.2,86.3c-.7,0-1.4-.2-2-.7l-.9-.8c-1.3-1.1-1.5-3.1-.5-4.5,1.1-1.3,3.1-1.5,4.5-.5l.9.8c1.3,1.1,1.5,3.1.5,4.5-.6.8-1.5,1.2-2.5,1.2h0Z"/>
        <path class="cls-4" d="M-249,71.2c-.9,0-1.8-.4-2.5-1.2l-.9-1.2c-1.1-1.3-.9-3.3.4-4.5s3.3-.9,4.5.4l.9,1.2c1.1,1.3.9,3.3-.4,4.5-.6.5-1.3.7-2,.7h0Z"/>
        <path class="cls-4" d="M-232.5,56.3c-1.1,0-2.1-.6-2.7-1.5-.9-1.5-.4-3.4,1.1-4.4l.9-.6c1.5-.9,3.4-.4,4.4,1.1.9,1.5.4,3.4-1.1,4.4l-.9.6c-.5.4-1.1.5-1.7.5h0Z"/>
        <path class="cls-4" d="M-217,70.7c-.9,0-2-.5-2.6-1.3-1.1-1.4-.7-3.4.7-4.4l2.1-1.5c1.4-1.1,3.4-.7,4.4.7,1.1,1.4.7,3.4-.7,4.4l-2.1,1.5c-.6.4-1.2.6-1.9.6,0,0,0,0,0,0Z"/>
        <path class="cls-4" d="M-205.3,83.4c-1.5,0-2.8-1.1-3.1-2.5l-.4-2c-.4-1.8.8-3.4,2.5-3.7s3.4.8,3.7,2.5l.4,2c.4,1.8-.8,3.4-2.5,3.7h-.6Z"/>
        <path class="cls-4" d="M-198.1,97.4c-.5,0-.9,0-1.4-.4l-1.5-.8c-1.5-.8-2.3-2.7-1.4-4.3.8-1.5,2.7-2.3,4.3-1.4l1.5.8c1.5.8,2.3,2.7,1.4,4.3-.6,1.1-1.7,1.8-2.8,1.8h0Z"/>
      </g>
      <path class="cls-4" d="M-208.8,111.8c-1.8,0-3.2-1.4-3.2-3.2v-.4c0-1.8,1.4-3.2,3.2-3.2s3.2,1.4,3.2,3.2v.4c0,1.8-1.4,3.2-3.2,3.2Z"/>
      <path class="cls-4" d="M-246.9,92.4c-1.1,0-2.1-.6-2.7-1.5l-1.9-3.2c-.9-1.5-.4-3.4,1.1-4.4,1.5-.9,3.4-.4,4.4,1.1l1.9,3.2c.9,1.5.4,3.4-1.1,4.4-.5.4-1.1.5-1.7.5h0Z"/>
      <path class="cls-4" d="M-228.8,86.3c-.9,0-1.9-.5-2.5-1.3-1.1-1.4-.8-3.4.6-4.4l.8-.6c1.4-1.1,3.4-.8,4.4.6,1.1,1.4.8,3.4-.6,4.4l-.8.6c-.6.5-1.3.6-1.9.6h0Z"/>
      <path class="cls-4" d="M-250.3,113.1c-.6,0-1.2,0-1.8-.5l-.8-.6c-1.4-.9-1.9-3-.9-4.4.9-1.4,3-1.9,4.4-.9l.8.6c1.4.9,1.9,3,.9,4.4-.6.9-1.7,1.4-2.6,1.4Z"/>
      <path class="cls-4" d="M-235.5,72.5c-.7,0-1.3-.2-1.9-.6l-.8-.6c-1.4-1.1-1.7-3.1-.6-4.4s3.1-1.7,4.4-.6l.8.6c1.4,1.1,1.7,3.1.6,4.4-.6.8-1.5,1.3-2.5,1.3h0Z"/>
      <path class="cls-4" d="M-218.8,98.1c-1.2,0-2.3-.6-2.8-1.8l-.2-.4c-.8-1.5,0-3.4,1.4-4.3,1.5-.8,3.4,0,4.3,1.4l.2.4c.8,1.5,0,3.4-1.4,4.3-.5.2-.9.4-1.4.4h0Z"/>
      <path class="cls-4" d="M-230.7,106.9c-1.2,0-2.3-.6-2.8-1.8l-.2-.4c-.8-1.5,0-3.4,1.4-4.3,1.5-.8,3.4,0,4.3,1.4l.2.4c.8,1.5,0,3.4-1.4,4.3-.5.2-.9.4-1.4.4h0Z"/>
    </g>
    <g class="cls-5">
      <g class="cls-5">
        <g class="cls-5">
          <path class="cls-1" d="M77.4,27.3v6.3h-43v46.8h43v6.3h-43v53.2h-6.3V27.3h49.3Z"/>
          <path class="cls-1" d="M154.4,27.3v112.7h-6.3V27.3h6.3Z"/>
          <path class="cls-1" d="M321.1,126c-10.7,10.2-23.5,15.3-38.4,15.3s-29.6-5.6-40.8-16.9c-11.2-11.2-16.9-24.8-16.9-40.8s5.6-29.5,16.9-40.8c11.2-11.3,24.8-16.9,40.8-16.9s27.8,5,38.8,15l-4.8,4.4c-9.7-8.6-21-12.9-34-12.9s-26.2,5-36.2,15c-10,10-15,22.1-15,36.2s5,26.3,15,36.3c10,10,22.1,15,36.2,15s22.8-3.7,32-11.2v-34.4h6.3v36.6Z"/>
          <path class="cls-1" d="M383.7,140l35.7-61.9-29.3-50.8h7.3l25.6,44.5,25.8-44.5h7.3l-29.4,50.8,35.8,61.9h-7.3l-32.2-55.6-32.1,55.6h-7.2Z"/>
        </g>
      </g>
    </g>
    <g class="cls-5">
      <g class="cls-5">
        <g class="cls-5">
          <path class="cls-2" d="M21.5,177.3h-6v6h-1.1v-12.8h7.9v.9h-6.8v5h6v.9Z"/>
          <path class="cls-2" d="M24.1,173.6l-.6-.5c.5-.7.8-1.5.8-2.2v-1.2h1v.9c0,1.2-.4,2.2-1.2,3Z"/>
          <path class="cls-2" d="M32.2,180.9c0-.5-.2-.9-.6-1.3s-1.1-.6-1.9-.7-1.5-.4-2-.6-.8-.5-1-.8-.3-.7-.3-1.2c0-.8.3-1.4.9-1.9s1.4-.7,2.4-.7,1.9.3,2.6.8,1,1.2,1,2.1h-1.1c0-.6-.2-1-.7-1.4s-1.1-.6-1.8-.6-1.2.2-1.7.5c-.4.3-.6.7-.6,1.2s.2.8.5,1.1c.3.3,1,.5,1.9.7s1.6.4,2.1.7.8.5,1,.9.3.8.3,1.3c0,.8-.3,1.4-1,1.9s-1.5.7-2.5.7-2-.3-2.7-.8c-.7-.5-1-1.2-1-2h1.1c0,.6.3,1.1.8,1.4.5.3,1.1.5,1.9.5s1.3-.2,1.8-.5.7-.7.7-1.2Z"/>
          <path class="cls-2" d="M39.9,171c0-.2,0-.4.2-.5s.3-.2.5-.2.4,0,.5.2.2.3.2.5,0,.4-.2.5c-.1.1-.3.2-.5.2s-.4,0-.5-.2c-.1-.1-.2-.3-.2-.5ZM41.2,183.3h-1.1v-9.5h1.1v9.5Z"/>
          <path class="cls-2" d="M45,173.8v1.6c.4-.6.8-1,1.4-1.3.5-.3,1.1-.5,1.8-.5,1,0,1.8.3,2.3.9s.8,1.4.8,2.6v6.2h-1v-6.2c0-.8-.2-1.5-.5-1.9s-.9-.6-1.7-.6-1.2.2-1.7.6-.9,1-1.1,1.6v6.5h-1v-9.5h1Z"/>
          <path class="cls-2" d="M54.9,173.8v1.6c.4-.6.8-1,1.4-1.3.5-.3,1.1-.5,1.8-.5,1,0,1.8.3,2.3.9s.8,1.4.8,2.6v6.2h-1v-6.2c0-.8-.2-1.5-.5-1.9s-.9-.6-1.7-.6-1.2.2-1.7.6-.9,1-1.1,1.6v6.5h-1v-9.5h1Z"/>
          <path class="cls-2" d="M63.2,178.4c0-.9.2-1.7.5-2.5s.9-1.3,1.5-1.7,1.4-.6,2.2-.6c1.3,0,2.3.4,3.1,1.3.8.9,1.2,2.1,1.2,3.5v.2c0,.9-.2,1.7-.5,2.5-.4.7-.9,1.3-1.5,1.7s-1.4.6-2.2.6c-1.3,0-2.3-.4-3.1-1.3-.8-.9-1.2-2.1-1.2-3.5v-.2ZM64.3,178.7c0,1.1.3,2.1.9,2.8.6.7,1.4,1.1,2.3,1.1s1.7-.4,2.3-1.1c.6-.7.9-1.7.9-2.9v-.2c0-.7-.1-1.4-.4-2s-.6-1.1-1.1-1.4c-.5-.3-1-.5-1.7-.5-.9,0-1.7.4-2.3,1.1s-.9,1.7-.9,2.9v.2Z"/>
          <path class="cls-2" d="M76.7,181.8l2.9-8.1h1.1l-3.6,9.5h-.9l-3.6-9.5h1.1l2.9,8.1Z"/>
          <path class="cls-2" d="M88.3,183.3c-.1-.3-.2-.7-.2-1.3-.4.5-.8.9-1.4,1.1-.6.3-1.2.4-1.8.4-.9,0-1.7-.3-2.2-.8s-.8-1.2-.8-1.9.4-1.7,1.2-2.2,1.8-.8,3.2-.8h1.9v-1.1c0-.7-.2-1.2-.6-1.6s-1-.6-1.8-.6-1.3.2-1.8.6-.7.8-.7,1.4h-1.1c0-.8.4-1.4,1.1-2,.7-.6,1.6-.8,2.6-.8s1.9.3,2.5.8c.6.5.9,1.3.9,2.2v4.5c0,.9,0,1.6.3,2.1h0c0,.1-1.1.1-1.1.1ZM85,182.5c.7,0,1.3-.2,1.9-.5s1-.8,1.2-1.4v-2.1h-1.9c-1,0-1.9.2-2.5.6-.6.4-.9.9-.9,1.5s.2,1,.6,1.3.9.5,1.5.5Z"/>
          <path class="cls-2" d="M93.6,171.4v2.4h2v.9h-2v6.3c0,.5,0,.9.3,1.2.2.3.5.4,1,.4s.5,0,.9,0v.9c-.2,0-.6.1-1.1.1-.7,0-1.2-.2-1.6-.6-.3-.4-.5-1-.5-1.8v-6.3h-1.7v-.9h1.7v-2.4h1.1Z"/>
          <path class="cls-2" d="M97.6,171c0-.2,0-.4.2-.5s.3-.2.5-.2.4,0,.5.2.2.3.2.5,0,.4-.2.5c-.1.1-.3.2-.5.2s-.4,0-.5-.2c-.1-.1-.2-.3-.2-.5ZM98.9,183.3h-1.1v-9.5h1.1v9.5Z"/>
          <path class="cls-2" d="M101.2,178.4c0-.9.2-1.7.5-2.5s.9-1.3,1.5-1.7,1.4-.6,2.2-.6c1.3,0,2.3.4,3.1,1.3.8.9,1.2,2.1,1.2,3.5v.2c0,.9-.2,1.7-.5,2.5-.4.7-.9,1.3-1.5,1.7s-1.4.6-2.2.6c-1.3,0-2.3-.4-3.1-1.3-.8-.9-1.2-2.1-1.2-3.5v-.2ZM102.2,178.7c0,1.1.3,2.1.9,2.8.6.7,1.4,1.1,2.3,1.1s1.7-.4,2.3-1.1c.6-.7.9-1.7.9-2.9v-.2c0-.7-.1-1.4-.4-2s-.6-1.1-1.1-1.4c-.5-.3-1-.5-1.7-.5-.9,0-1.7.4-2.3,1.1s-.9,1.7-.9,2.9v.2Z"/>
          <path class="cls-2" d="M112.8,173.8v1.6c.4-.6.8-1,1.4-1.3.5-.3,1.1-.5,1.8-.5,1,0,1.8.3,2.3.9s.8,1.4.8,2.6v6.2h-1v-6.2c0-.8-.2-1.5-.5-1.9s-.9-.6-1.7-.6-1.2.2-1.7.6-.9,1-1.1,1.6v6.5h-1v-9.5h1Z"/>
          <path class="cls-2" d="M125.7,178.5c0-1.5.3-2.7,1-3.5.7-.9,1.6-1.3,2.7-1.3s2.3.5,3,1.5v-1.4h1v9.3c0,1.2-.3,2.2-1,2.9s-1.6,1.1-2.8,1.1-1.3-.1-1.9-.4-1.1-.7-1.4-1.2l.6-.6c.7.9,1.6,1.4,2.7,1.4s1.6-.3,2.1-.8c.5-.5.7-1.2.8-2.2v-1.2c-.7.9-1.7,1.4-2.9,1.4s-2-.4-2.7-1.3-1-2.1-1-3.6h0ZM126.7,178.6c0,1.2.2,2.2.7,2.9.5.7,1.2,1.1,2.1,1.1,1.3,0,2.2-.6,2.8-1.7v-4.4c-.2-.6-.6-1.1-1.1-1.4-.5-.3-1-.5-1.7-.5s-1.6.3-2.1,1c-.5.7-.7,1.7-.7,3.1Z"/>
          <path class="cls-2" d="M140.5,174.7c-.2,0-.5,0-.7,0-.7,0-1.2.2-1.7.5s-.8.9-1,1.6v6.5h-1v-9.5h1v1.5c.6-1.1,1.5-1.7,2.7-1.7s.5,0,.7.1v1Z"/>
          <path class="cls-2" d="M141.4,178.4c0-.9.2-1.7.5-2.5s.9-1.3,1.5-1.7,1.4-.6,2.2-.6c1.3,0,2.3.4,3.1,1.3.8.9,1.2,2.1,1.2,3.5v.2c0,.9-.2,1.7-.5,2.5-.4.7-.9,1.3-1.5,1.7s-1.4.6-2.2.6c-1.3,0-2.3-.4-3.1-1.3-.8-.9-1.2-2.1-1.2-3.5v-.2ZM142.4,178.7c0,1.1.3,2.1.9,2.8.6.7,1.4,1.1,2.3,1.1s1.7-.4,2.3-1.1c.6-.7.9-1.7.9-2.9v-.2c0-.7-.1-1.4-.4-2s-.6-1.1-1.1-1.4c-.5-.3-1-.5-1.7-.5-.9,0-1.7.4-2.3,1.1s-.9,1.7-.9,2.9v.2Z"/>
          <path class="cls-2" d="M158.2,182.1c-.6.9-1.6,1.4-3,1.4s-1.8-.3-2.3-.9c-.5-.6-.8-1.5-.8-2.6v-6.2h1v6.1c0,1.8.7,2.7,2.2,2.7s2.5-.6,2.9-1.9v-6.9h1.1v9.5h-1v-1.2Z"/>
          <path class="cls-2" d="M169.6,178.6c0,1.5-.3,2.7-1,3.5-.7.9-1.5,1.3-2.6,1.3s-2.3-.5-3-1.4v4.9h-1v-13.2h1v1.3c.7-1,1.7-1.5,3-1.5s2,.4,2.7,1.3,1,2.1,1,3.6h0ZM168.5,178.5c0-1.2-.2-2.2-.7-2.9s-1.2-1.1-2.1-1.1-1.2.2-1.7.5-.8.8-1.1,1.4v4.6c.3.5.6,1,1.1,1.2s1,.4,1.7.4,1.6-.4,2.1-1.1c.5-.7.7-1.7.7-3.1Z"/>
          <path class="cls-2" d="M175.7,178.4c0-.9.2-1.7.5-2.5s.9-1.3,1.5-1.7,1.4-.6,2.2-.6c1.3,0,2.3.4,3.1,1.3.8.9,1.2,2.1,1.2,3.5v.2c0,.9-.2,1.7-.5,2.5-.4.7-.9,1.3-1.5,1.7s-1.4.6-2.2.6c-1.3,0-2.3-.4-3.1-1.3-.8-.9-1.2-2.1-1.2-3.5v-.2ZM176.8,178.7c0,1.1.3,2.1.9,2.8.6.7,1.4,1.1,2.3,1.1s1.7-.4,2.3-1.1c.6-.7.9-1.7.9-2.9v-.2c0-.7-.1-1.4-.4-2s-.6-1.1-1.1-1.4c-.5-.3-1-.5-1.7-.5-.9,0-1.7.4-2.3,1.1s-.9,1.7-.9,2.9v.2Z"/>
          <path class="cls-2" d="M187.1,183.3v-8.6h-1.6v-.9h1.6v-1.2c0-1,.2-1.7.7-2.2s1.2-.8,2.1-.8.8,0,1.1.1v.9c-.4,0-.7-.1-1-.1-.6,0-1,.2-1.4.5s-.5.9-.5,1.5v1.2h2.3v.9h-2.3v8.6h-1.1Z"/>
          <path class="cls-2" d="M199.7,181.8l2.9-8.1h1.1l-3.6,9.5h-.9l-3.6-9.5h1.1l2.9,8.1Z"/>
          <path class="cls-2" d="M205.3,171c0-.2,0-.4.2-.5s.3-.2.5-.2.4,0,.5.2.2.3.2.5,0,.4-.2.5c-.1.1-.3.2-.5.2s-.4,0-.5-.2c-.1-.1-.2-.3-.2-.5ZM206.5,183.3h-1.1v-9.5h1.1v9.5Z"/>
          <path class="cls-2" d="M215.1,180.9c0-.5-.2-.9-.6-1.3s-1.1-.6-1.9-.7-1.5-.4-2-.6-.8-.5-1-.8-.3-.7-.3-1.2c0-.8.3-1.4.9-1.9s1.4-.7,2.4-.7,1.9.3,2.6.8,1,1.2,1,2.1h-1.1c0-.6-.2-1-.7-1.4s-1.1-.6-1.8-.6-1.2.2-1.7.5c-.4.3-.6.7-.6,1.2s.2.8.5,1.1c.3.3,1,.5,1.9.7s1.6.4,2.1.7.8.5,1,.9.3.8.3,1.3c0,.8-.3,1.4-1,1.9s-1.5.7-2.5.7-2-.3-2.7-.8c-.7-.5-1-1.2-1-2h1.1c0,.6.3,1.1.8,1.4.5.3,1.1.5,1.9.5s1.3-.2,1.8-.5.7-.7.7-1.2Z"/>
          <path class="cls-2" d="M224.6,182.1c-.6.9-1.6,1.4-3,1.4s-1.8-.3-2.3-.9c-.5-.6-.8-1.5-.8-2.6v-6.2h1v6.1c0,1.8.7,2.7,2.2,2.7s2.5-.6,2.9-1.9v-6.9h1.1v9.5h-1v-1.2Z"/>
          <path class="cls-2" d="M234.4,183.3c-.1-.3-.2-.7-.2-1.3-.4.5-.8.9-1.4,1.1-.6.3-1.2.4-1.8.4-.9,0-1.7-.3-2.2-.8s-.8-1.2-.8-1.9.4-1.7,1.2-2.2,1.8-.8,3.2-.8h1.9v-1.1c0-.7-.2-1.2-.6-1.6s-1-.6-1.8-.6-1.3.2-1.8.6-.7.8-.7,1.4h-1.1c0-.8.4-1.4,1.1-2,.7-.6,1.6-.8,2.6-.8s1.9.3,2.5.8c.6.5.9,1.3.9,2.2v4.5c0,.9,0,1.6.3,2.1h0c0,.1-1.1.1-1.1.1ZM231.1,182.5c.7,0,1.3-.2,1.9-.5s1-.8,1.2-1.4v-2.1h-1.9c-1,0-1.9.2-2.5.6-.6.4-.9.9-.9,1.5s.2,1,.6,1.3.9.5,1.5.5Z"/>
          <path class="cls-2" d="M239.2,183.3h-1.1v-13.5h1.1v13.5Z"/>
          <path class="cls-2" d="M242,171c0-.2,0-.4.2-.5s.3-.2.5-.2.4,0,.5.2.2.3.2.5,0,.4-.2.5c-.1.1-.3.2-.5.2s-.4,0-.5-.2c-.1-.1-.2-.3-.2-.5ZM243.2,183.3h-1.1v-9.5h1.1v9.5Z"/>
          <path class="cls-2" d="M246.8,182.4h6.2v.9h-7.5v-.8l5.8-7.8h-5.6v-.9h6.9v.8l-5.8,7.8Z"/>
          <path class="cls-2" d="M260.9,183.3c-.1-.3-.2-.7-.2-1.3-.4.5-.8.9-1.4,1.1-.6.3-1.2.4-1.8.4-.9,0-1.7-.3-2.2-.8s-.8-1.2-.8-1.9.4-1.7,1.2-2.2c.8-.5,1.8-.8,3.2-.8h1.9v-1.1c0-.7-.2-1.2-.6-1.6-.4-.4-1-.6-1.8-.6s-1.3.2-1.8.6-.7.8-.7,1.4h-1.1c0-.8.4-1.4,1.1-2,.7-.6,1.6-.8,2.6-.8s1.9.3,2.5.8c.6.5.9,1.3.9,2.2v4.5c0,.9,0,1.6.3,2.1h0c0,.1-1.1.1-1.1.1ZM257.5,182.5c.7,0,1.3-.2,1.9-.5.6-.3,1-.8,1.2-1.4v-2.1h-1.9c-1,0-1.9.2-2.5.6-.6.4-.9.9-.9,1.5s.2,1,.6,1.3c.4.4.9.5,1.5.5Z"/>
          <path class="cls-2" d="M266.1,171.4v2.4h2v.9h-2v6.3c0,.5,0,.9.3,1.2.2.3.5.4,1,.4s.5,0,.9,0v.9c-.2,0-.6.1-1.1.1-.7,0-1.2-.2-1.6-.6-.3-.4-.5-1-.5-1.8v-6.3h-1.7v-.9h1.7v-2.4h1.1Z"/>
          <path class="cls-2" d="M270.2,171c0-.2,0-.4.2-.5s.3-.2.5-.2.4,0,.5.2c.1.1.2.3.2.5s0,.4-.2.5c-.1.1-.3.2-.5.2s-.4,0-.5-.2c-.1-.1-.2-.3-.2-.5ZM271.5,183.3h-1.1v-9.5h1.1v9.5Z"/>
          <path class="cls-2" d="M273.7,178.4c0-.9.2-1.7.5-2.5s.9-1.3,1.5-1.7c.6-.4,1.4-.6,2.2-.6,1.3,0,2.3.4,3.1,1.3.8.9,1.2,2.1,1.2,3.5v.2c0,.9-.2,1.7-.5,2.5-.4.7-.9,1.3-1.5,1.7s-1.4.6-2.2.6c-1.3,0-2.3-.4-3.1-1.3-.8-.9-1.2-2.1-1.2-3.5v-.2ZM274.8,178.7c0,1.1.3,2.1.9,2.8.6.7,1.4,1.1,2.3,1.1s1.7-.4,2.3-1.1c.6-.7.9-1.7.9-2.9v-.2c0-.7-.1-1.4-.4-2s-.6-1.1-1.1-1.4c-.5-.3-1-.5-1.7-.5-.9,0-1.7.4-2.3,1.1s-.9,1.7-.9,2.9v.2Z"/>
          <path class="cls-2" d="M285.4,173.8v1.6c.4-.6.8-1,1.4-1.3.5-.3,1.1-.5,1.8-.5,1,0,1.8.3,2.3.9s.8,1.4.8,2.6v6.2h-1v-6.2c0-.8-.2-1.5-.5-1.9-.4-.4-.9-.6-1.7-.6s-1.2.2-1.7.6c-.5.4-.9,1-1.1,1.6v6.5h-1v-9.5h1Z"/>
          <path class="cls-2" d="M304.7,183.3c-.1-.3-.2-.7-.2-1.3-.4.5-.8.9-1.4,1.1-.6.3-1.2.4-1.8.4-.9,0-1.7-.3-2.2-.8s-.8-1.2-.8-1.9.4-1.7,1.2-2.2c.8-.5,1.8-.8,3.2-.8h1.9v-1.1c0-.7-.2-1.2-.6-1.6-.4-.4-1-.6-1.8-.6s-1.3.2-1.8.6-.7.8-.7,1.4h-1.1c0-.8.4-1.4,1.1-2,.7-.6,1.6-.8,2.6-.8s1.9.3,2.5.8c.6.5.9,1.3.9,2.2v4.5c0,.9,0,1.6.3,2.1h0c0,.1-1.1.1-1.1.1ZM301.4,182.5c.7,0,1.3-.2,1.9-.5.6-.3,1-.8,1.2-1.4v-2.1h-1.9c-1,0-1.9.2-2.5.6-.6.4-.9.9-.9,1.5s.2,1,.6,1.3c.4.4.9.5,1.5.5Z"/>
          <path class="cls-2" d="M309.3,173.8v1.6c.4-.6.8-1,1.4-1.3.5-.3,1.1-.5,1.8-.5,1,0,1.8.3,2.3.9s.8,1.4.8,2.6v6.2h-1v-6.2c0-.8-.2-1.5-.5-1.9-.4-.4-.9-.6-1.7-.6s-1.2.2-1.7.6c-.5.4-.9,1-1.1,1.6v6.5h-1v-9.5h1Z"/>
          <path class="cls-2" d="M317.8,178.5c0-1.5.3-2.7,1-3.5.7-.9,1.6-1.3,2.7-1.3s2.3.5,2.9,1.5v-5.3h1v13.5h-1v-1.3c-.7,1-1.7,1.4-3,1.4s-2-.4-2.7-1.3-1-2.1-1-3.6h0ZM318.8,178.6c0,1.2.2,2.2.7,2.9.5.7,1.2,1.1,2.1,1.1,1.3,0,2.2-.6,2.8-1.7v-4.5c-.5-1.2-1.5-1.9-2.7-1.9s-1.6.3-2.1,1c-.5.7-.7,1.7-.7,3.1Z"/>
          <path class="cls-2" d="M335.5,181.8l2.9-8.1h1.1l-3.6,9.5h-.9l-3.6-9.5h1.1l2.9,8.1Z"/>
          <path class="cls-2" d="M341.2,171c0-.2,0-.4.2-.5s.3-.2.5-.2.4,0,.5.2c.1.1.2.3.2.5s0,.4-.2.5c-.1.1-.3.2-.5.2s-.4,0-.5-.2c-.1-.1-.2-.3-.2-.5ZM342.4,183.3h-1.1v-9.5h1.1v9.5Z"/>
          <path class="cls-2" d="M351,180.9c0-.5-.2-.9-.6-1.3s-1-.6-1.9-.7-1.5-.4-2-.6c-.5-.2-.8-.5-1-.8-.2-.3-.3-.7-.3-1.2,0-.8.3-1.4.9-1.9s1.4-.7,2.4-.7,1.9.3,2.6.8c.6.5,1,1.2,1,2.1h-1.1c0-.6-.2-1-.7-1.4-.5-.4-1.1-.6-1.8-.6s-1.2.2-1.7.5c-.4.3-.6.7-.6,1.2s.2.8.5,1.1c.3.3,1,.5,1.9.7.9.2,1.6.4,2.1.7.5.2.8.5,1,.9s.3.8.3,1.3c0,.8-.3,1.4-1,1.9-.6.5-1.5.7-2.5.7s-2-.3-2.7-.8c-.7-.5-1-1.2-1-2h1.1c0,.6.3,1.1.8,1.4.5.3,1.1.5,1.9.5s1.3-.2,1.8-.5.7-.7.7-1.2Z"/>
          <path class="cls-2" d="M360.5,182.1c-.6.9-1.6,1.4-3,1.4s-1.8-.3-2.3-.9c-.5-.6-.8-1.5-.8-2.6v-6.2h1v6.1c0,1.8.7,2.7,2.2,2.7s2.5-.6,2.9-1.9v-6.9h1.1v9.5h-1v-1.2Z"/>
          <path class="cls-2" d="M370.3,183.3c-.1-.3-.2-.7-.2-1.3-.4.5-.8.9-1.4,1.1-.6.3-1.2.4-1.8.4-.9,0-1.7-.3-2.2-.8s-.8-1.2-.8-1.9.4-1.7,1.2-2.2c.8-.5,1.8-.8,3.2-.8h1.9v-1.1c0-.7-.2-1.2-.6-1.6-.4-.4-1-.6-1.8-.6s-1.3.2-1.8.6-.7.8-.7,1.4h-1.1c0-.8.4-1.4,1.1-2,.7-.6,1.6-.8,2.6-.8s1.9.3,2.5.8c.6.5.9,1.3.9,2.2v4.5c0,.9,0,1.6.3,2.1h0c0,.1-1.1.1-1.1.1ZM367,182.5c.7,0,1.3-.2,1.9-.5.6-.3,1-.8,1.2-1.4v-2.1h-1.9c-1,0-1.9.2-2.5.6-.6.4-.9.9-.9,1.5s.2,1,.6,1.3c.4.4.9.5,1.5.5Z"/>
          <path class="cls-2" d="M375.1,183.3h-1.1v-13.5h1.1v13.5Z"/>
          <path class="cls-2" d="M385.8,182.6c.7,0,1.3-.2,1.8-.6.5-.4.8-.9.8-1.6h1c0,.6-.2,1.1-.5,1.6-.3.5-.8.9-1.3,1.1-.6.3-1.1.4-1.8.4-1.2,0-2.2-.4-3-1.3-.7-.9-1.1-2-1.1-3.5v-.3c0-.9.2-1.8.5-2.5s.8-1.3,1.4-1.7,1.3-.6,2.1-.6,1.9.3,2.6.9c.7.6,1,1.4,1.1,2.5h-1c0-.7-.3-1.3-.8-1.8-.5-.5-1.1-.7-1.9-.7s-1.7.3-2.2,1c-.5.7-.8,1.6-.8,2.9v.3c0,1.2.3,2.2.8,2.8.5.7,1.3,1,2.2,1Z"/>
          <path class="cls-2" d="M391,178.4c0-.9.2-1.7.5-2.5s.9-1.3,1.5-1.7c.6-.4,1.4-.6,2.2-.6,1.3,0,2.3.4,3.1,1.3.8.9,1.2,2.1,1.2,3.5v.2c0,.9-.2,1.7-.5,2.5-.4.7-.9,1.3-1.5,1.7s-1.4.6-2.2.6c-1.3,0-2.3-.4-3.1-1.3-.8-.9-1.2-2.1-1.2-3.5v-.2ZM392.1,178.7c0,1.1.3,2.1.9,2.8.6.7,1.4,1.1,2.3,1.1s1.7-.4,2.3-1.1c.6-.7.9-1.7.9-2.9v-.2c0-.7-.1-1.4-.4-2s-.6-1.1-1.1-1.4c-.5-.3-1-.5-1.7-.5-.9,0-1.7.4-2.3,1.1s-.9,1.7-.9,2.9v.2Z"/>
          <path class="cls-2" d="M402.6,173.8v1.5c.4-.6.8-1,1.4-1.3s1.1-.4,1.8-.4c1.5,0,2.5.6,2.9,1.8.3-.6.8-1,1.4-1.4.6-.3,1.2-.5,1.9-.5,2,0,3.1,1.1,3.1,3.3v6.3h-1.1v-6.3c0-.8-.2-1.5-.5-1.9-.4-.4-.9-.6-1.8-.6-.8,0-1.4.3-1.9.7s-.8,1.1-.9,1.7v6.3h-1.1v-6.3c0-.8-.2-1.4-.6-1.8-.4-.4-1-.6-1.7-.6s-1.2.2-1.7.6c-.5.4-.8.9-1.1,1.7v6.5h-1.1v-9.5h1Z"/>
          <path class="cls-2" d="M425.3,178.6c0,1.5-.3,2.7-1,3.5-.7.9-1.5,1.3-2.6,1.3s-2.3-.5-3-1.4v4.9h-1v-13.2h1v1.3c.7-1,1.7-1.5,3-1.5s2,.4,2.7,1.3c.6.9,1,2.1,1,3.6h0ZM424.2,178.5c0-1.2-.2-2.2-.7-2.9s-1.2-1.1-2.1-1.1-1.2.2-1.7.5-.8.8-1.1,1.4v4.6c.3.5.6,1,1.1,1.2s1,.4,1.7.4,1.6-.4,2.1-1.1c.5-.7.7-1.7.7-3.1Z"/>
          <path class="cls-2" d="M433.7,182.1c-.6.9-1.6,1.4-3,1.4s-1.8-.3-2.3-.9c-.5-.6-.8-1.5-.8-2.6v-6.2h1v6.1c0,1.8.7,2.7,2.2,2.7s2.5-.6,2.9-1.9v-6.9h1.1v9.5h-1v-1.2Z"/>
          <path class="cls-2" d="M439.1,171.4v2.4h2v.9h-2v6.3c0,.5,0,.9.3,1.2.2.3.5.4,1,.4s.5,0,.9,0v.9c-.2,0-.6.1-1.1.1-.7,0-1.2-.2-1.6-.6-.3-.4-.5-1-.5-1.8v-6.3h-1.7v-.9h1.7v-2.4h1.1Z"/>
          <path class="cls-2" d="M443.2,171c0-.2,0-.4.2-.5s.3-.2.5-.2.4,0,.5.2c.1.1.2.3.2.5s0,.4-.2.5c-.1.1-.3.2-.5.2s-.4,0-.5-.2c-.1-.1-.2-.3-.2-.5ZM444.4,183.3h-1.1v-9.5h1.1v9.5Z"/>
          <path class="cls-2" d="M448.3,173.8v1.6c.4-.6.8-1,1.4-1.3.5-.3,1.1-.5,1.8-.5,1,0,1.8.3,2.3.9s.8,1.4.8,2.6v6.2h-1v-6.2c0-.8-.2-1.5-.5-1.9-.4-.4-.9-.6-1.7-.6s-1.2.2-1.7.6c-.5.4-.9,1-1.1,1.6v6.5h-1v-9.5h1Z"/>
          <path class="cls-2" d="M456.8,178.5c0-1.5.3-2.7,1-3.5.7-.9,1.6-1.3,2.7-1.3s2.3.5,3,1.5v-1.4h1v9.3c0,1.2-.3,2.2-1,2.9s-1.6,1.1-2.8,1.1-1.3-.1-1.9-.4-1.1-.7-1.4-1.2l.6-.6c.7.9,1.6,1.4,2.7,1.4s1.6-.3,2.1-.8c.5-.5.7-1.2.8-2.2v-1.2c-.7.9-1.7,1.4-2.9,1.4s-2-.4-2.7-1.3-1-2.1-1-3.6h0ZM457.8,178.6c0,1.2.2,2.2.7,2.9.5.7,1.2,1.1,2.1,1.1,1.3,0,2.2-.6,2.8-1.7v-4.4c-.2-.6-.6-1.1-1.1-1.4-.5-.3-1-.5-1.7-.5s-1.6.3-2.1,1c-.5.7-.7,1.7-.7,3.1Z"/>
        </g>
      </g>
    </g>
  </g>
</svg>