<?xml version="1.0" encoding="UTF-8"?>
<svg id="Layer_1" data-name="Layer 1" xmlns="http://www.w3.org/2000/svg" width="411" height="165.4" version="1.1" viewBox="0 0 411 165.4">
  <defs>
    <style>
      .cls-1 {
        fill: #f2f3f4;
      }

      .cls-1, .cls-2, .cls-3, .cls-4, .cls-5 {
        stroke-width: 0px;
      }

      .cls-2 {
        fill: #434042;
      }

      .cls-3 {
        fill: #ddd9e2;
      }

      .cls-6 {
        font-family: CaviarDreams, 'Caviar Dreams';
        font-size: 128.1px;
      }

      .cls-6, .cls-4 {
        fill: #444;
      }

      .cls-6, .cls-7 {
        isolation: isolate;
      }

      .cls-5 {
        fill: #7a7680;
      }
    </style>
  </defs>
  <g id="Layer_1-2" data-name="Layer 1">
    <rect class="cls-1" x="-82.8" y="520.7" width="520" height="278.6" rx="21.1" ry="21.1"/>
    <g id="Layer_1-2" data-name="Layer 1-2">
      <path class="cls-4" d="M61.7,17.5c1.3-2.1,4.2-2.1,5.5,0,10.9,18.9,50.7,29,53.6,59.6,2.5,27.1-17.8,49.2-56.3,49.2S5.6,104.2,8.2,77.1c2.8-30.7,42.7-40.7,53.6-59.6h0Z"/>
      <path class="cls-3" d="M115.2,77.7c-1.5-16.2-15.7-26.3-29.5-36-7.3-5.2-14.3-10-19.3-15.8-.9-1.2-2.7-1.2-3.7,0-5.1,5.8-12,10.7-19.3,15.8-13.7,9.7-27.9,19.7-29.5,36-1.1,10.9,2,20.5,8.9,27.9,8.9,9.7,23.7,15.1,41.9,15.1s32.9-5.4,41.9-15.1c6.9-7.5,9.9-17.2,8.9-27.9h-.1Z"/>
      <g>
        <path class="cls-2" d="M37.5,92.6c-.8,0-1.7-.3-2.2-1.1-.9-1.3-.7-3.1.5-4l1.6-1.3c1.3-.9,3.1-.7,4,.5s.7,3.1-.5,4l-1.6,1.3c-.5.4-1.2.6-1.8.6h0Z"/>
        <path class="cls-2" d="M36.6,78.5c-.6,0-1.3-.2-1.8-.6l-.8-.7c-1.2-.9-1.4-2.7-.4-4,.9-1.2,2.7-1.4,4-.4l.8.7c1.2.9,1.4,2.7.4,4-.5.7-1.4,1.1-2.2,1.1h0Z"/>
        <path class="cls-2" d="M50.1,65.1c-.8,0-1.6-.3-2.2-1.1l-.8-1.1c-.9-1.2-.8-3,.3-4s3-.8,4,.3l.8,1.1c.9,1.2.8,3-.3,4-.5.4-1.2.6-1.8.6h0Z"/>
        <path class="cls-2" d="M64.8,51.9c-.9,0-1.9-.5-2.4-1.4-.8-1.4-.3-3.1.9-3.9l.8-.5c1.4-.8,3.1-.3,3.9.9.8,1.4.3,3.1-.9,3.9l-.8.5c-.4.3-.9.4-1.5.4h0Z"/>
        <path class="cls-2" d="M78.6,64.7c-.8,0-1.8-.4-2.3-1.2-.9-1.3-.6-3.1.6-3.9l1.9-1.4c1.3-.9,3.1-.6,3.9.6.9,1.3.6,3.1-.6,3.9l-1.9,1.4c-.5.3-1.1.5-1.7.5h.1Z"/>
        <path class="cls-2" d="M88.9,76c-1.4,0-2.5-.9-2.7-2.2l-.3-1.8c-.3-1.6.7-3.1,2.2-3.3s3.1.7,3.3,2.2l.3,1.8c.3,1.6-.7,3.1-2.2,3.3h-.5Z"/>
        <path class="cls-2" d="M95.4,88.4c-.4,0-.8,0-1.3-.3l-1.4-.7c-1.4-.7-2-2.4-1.3-3.8.7-1.4,2.4-2,3.8-1.3l1.4.7c1.4.7,2,2.4,1.3,3.8-.5.9-1.5,1.6-2.5,1.6Z"/>
      </g>
      <path class="cls-2" d="M85.9,101.2c-1.6,0-2.8-1.3-2.8-2.8v-.3c0-1.6,1.3-2.8,2.8-2.8s2.8,1.3,2.8,2.8v.3c0,1.6-1.3,2.8-2.8,2.8Z"/>
      <path class="cls-2" d="M52,84c-.9,0-1.9-.5-2.4-1.4l-1.7-2.8c-.8-1.4-.3-3.1.9-3.9,1.4-.8,3.1-.3,3.9.9l1.7,2.8c.8,1.4.3,3.1-.9,3.9-.4.3-.9.4-1.5.4h0Z"/>
      <path class="cls-2" d="M68.1,78.5c-.8,0-1.7-.4-2.2-1.2-.9-1.3-.7-3.1.5-3.9l.7-.5c1.3-.9,3.1-.7,3.9.5.9,1.3.7,3.1-.5,3.9l-.7.5c-.5.4-1.2.5-1.7.5h0Z"/>
      <path class="cls-2" d="M49,102.4c-.5,0-1.1-.1-1.6-.4l-.7-.5c-1.3-.8-1.7-2.6-.8-3.9.8-1.3,2.6-1.7,3.9-.8l.7.5c1.3.8,1.7,2.6.8,3.9-.5.8-1.5,1.3-2.3,1.3Z"/>
      <path class="cls-2" d="M62.2,66.3c-.6,0-1.2-.2-1.7-.5l-.7-.5c-1.3-.9-1.5-2.7-.5-3.9s2.7-1.5,3.9-.5l.7.5c1.3.9,1.5,2.7.5,3.9-.5.7-1.4,1.2-2.2,1.2h0Z"/>
      <path class="cls-2" d="M77,89.1c-1.1,0-2-.5-2.5-1.6l-.2-.3c-.7-1.4-.1-3.1,1.3-3.8,1.4-.7,3.1-.1,3.8,1.3l.2.3c.7,1.4.1,3.1-1.3,3.8-.4.2-.8.3-1.3.3Z"/>
      <path class="cls-2" d="M66.4,96.9c-1.1,0-2-.5-2.5-1.6l-.2-.3c-.7-1.4-.1-3.1,1.3-3.8,1.4-.7,3.1-.1,3.8,1.3l.2.3c.7,1.4.1,3.1-1.3,3.8-.4.2-.8.3-1.3.3Z"/>
    </g>
    <g class="cls-7">
      <text class="cls-6" transform="translate(143.1 120.1)"><tspan x="0" y="0">FIGX</tspan></text>
    </g>
    <g class="cls-7">
      <g class="cls-7">
        <path class="cls-5" d="M12.7,150.5h-5.3v5.3h-1v-11.4h7v.8h-6.1v4.4h5.3v.8Z"/>
        <path class="cls-5" d="M15.1,147.2l-.6-.4c.5-.6.7-1.3.7-2v-1h.9v.8c0,1.1-.4,2-1.1,2.6Z"/>
        <path class="cls-5" d="M22.3,153.7c0-.5-.2-.8-.6-1.1-.4-.3-.9-.5-1.7-.7s-1.3-.3-1.7-.5-.7-.5-.9-.8c-.2-.3-.3-.7-.3-1.1,0-.7.3-1.2.8-1.7.6-.4,1.3-.7,2.1-.7s1.7.2,2.3.7.9,1.1.9,1.8h-.9c0-.5-.2-.9-.6-1.2s-.9-.5-1.6-.5-1.1.1-1.5.4c-.4.3-.6.6-.6,1.1s.2.7.5,1c.3.2.9.4,1.7.6s1.4.4,1.8.6c.4.2.7.5.9.8.2.3.3.7.3,1.1,0,.7-.3,1.3-.9,1.7-.6.4-1.3.6-2.3.6s-1.8-.2-2.4-.7c-.6-.5-.9-1.1-.9-1.8h.9c0,.5.3,1,.7,1.3.4.3,1,.5,1.7.5s1.2-.1,1.6-.4c.4-.3.6-.6.6-1.1Z"/>
        <path class="cls-5" d="M29.1,144.9c0-.2,0-.3.2-.4.1-.1.3-.2.5-.2s.4,0,.5.2c.1.1.2.3.2.4s0,.3-.2.4-.3.2-.5.2-.4,0-.5-.2c-.1-.1-.2-.3-.2-.4ZM30.2,155.8h-.9v-8.5h.9v8.5Z"/>
        <path class="cls-5" d="M33.7,147.4v1.4c.3-.5.7-.9,1.2-1.2.5-.3,1-.4,1.6-.4.9,0,1.6.3,2,.8.4.5.7,1.3.7,2.3v5.5h-.9v-5.6c0-.8-.2-1.3-.5-1.7-.3-.4-.8-.6-1.5-.6s-1.1.2-1.5.5-.8.9-1,1.5v5.8h-.9v-8.5h.9Z"/>
        <path class="cls-5" d="M42.5,147.4v1.4c.3-.5.7-.9,1.2-1.2.5-.3,1-.4,1.6-.4.9,0,1.6.3,2,.8.4.5.7,1.3.7,2.3v5.5h-.9v-5.6c0-.8-.2-1.3-.5-1.7-.3-.4-.8-.6-1.5-.6s-1.1.2-1.5.5-.8.9-1,1.5v5.8h-.9v-8.5h.9Z"/>
        <path class="cls-5" d="M49.9,151.5c0-.8.2-1.5.5-2.2.3-.7.8-1.2,1.3-1.5.6-.4,1.2-.5,2-.5,1.1,0,2,.4,2.7,1.2.7.8,1,1.8,1,3.1v.2c0,.8-.2,1.6-.5,2.2-.3.7-.8,1.2-1.3,1.5-.6.4-1.2.5-2,.5-1.1,0-2-.4-2.7-1.2-.7-.8-1.1-1.8-1.1-3.1v-.2ZM50.8,151.7c0,1,.3,1.8.8,2.5s1.2,1,2.1,1,1.5-.3,2.1-1,.8-1.5.8-2.6v-.2c0-.6-.1-1.2-.4-1.8-.2-.5-.6-1-1-1.2-.4-.3-.9-.4-1.5-.4-.8,0-1.5.3-2,1-.5.7-.8,1.5-.8,2.6v.2Z"/>
        <path class="cls-5" d="M61.8,154.5l2.6-7.2h1l-3.2,8.5h-.8l-3.2-8.5h1l2.6,7.2Z"/>
        <path class="cls-5" d="M72.1,155.8c0-.3-.2-.7-.2-1.2-.3.4-.7.8-1.3,1s-1,.3-1.6.3c-.8,0-1.5-.2-2-.7-.5-.5-.8-1-.8-1.7s.3-1.5,1-2c.7-.5,1.6-.7,2.9-.7h1.7v-1c0-.6-.2-1.1-.6-1.4-.4-.3-.9-.5-1.6-.5s-1.2.2-1.6.5c-.4.3-.6.7-.6,1.2h-.9c0-.7.3-1.3.9-1.8s1.4-.7,2.3-.7,1.7.2,2.2.7c.5.5.8,1.1.8,2v4c0,.8,0,1.4.3,1.8h0c0,0-1,0-1,0ZM69.2,155.2c.6,0,1.2-.2,1.7-.5s.9-.7,1.1-1.2v-1.9h-1.7c-.9,0-1.7.2-2.2.5-.5.3-.8.8-.8,1.4s.2.9.5,1.2.8.5,1.4.5Z"/>
        <path class="cls-5" d="M76.8,145.2v2.2h1.8v.8h-1.8v5.6c0,.5,0,.8.3,1,.2.2.5.3.8.3s.4,0,.8,0v.8c-.2,0-.5.1-1,.1-.6,0-1.1-.2-1.4-.6-.3-.4-.4-.9-.4-1.6v-5.6h-1.6v-.8h1.6v-2.2h.9Z"/>
        <path class="cls-5" d="M80.4,144.9c0-.2,0-.3.2-.4.1-.1.3-.2.5-.2s.4,0,.5.2c.1.1.2.3.2.4s0,.3-.2.4-.3.2-.5.2-.4,0-.5-.2c-.1-.1-.2-.3-.2-.4ZM81.5,155.8h-.9v-8.5h.9v8.5Z"/>
        <path class="cls-5" d="M83.6,151.5c0-.8.2-1.5.5-2.2.3-.7.8-1.2,1.3-1.5.6-.4,1.2-.5,2-.5,1.1,0,2,.4,2.7,1.2.7.8,1,1.8,1,3.1v.2c0,.8-.2,1.6-.5,2.2-.3.7-.8,1.2-1.3,1.5-.6.4-1.2.5-2,.5-1.1,0-2-.4-2.7-1.2-.7-.8-1.1-1.8-1.1-3.1v-.2ZM84.5,151.7c0,1,.3,1.8.8,2.5s1.2,1,2.1,1,1.5-.3,2.1-1,.8-1.5.8-2.6v-.2c0-.6-.1-1.2-.4-1.8-.2-.5-.6-1-1-1.2-.4-.3-.9-.4-1.5-.4-.8,0-1.5.3-2,1-.5.7-.8,1.5-.8,2.6v.2Z"/>
        <path class="cls-5" d="M93.9,147.4v1.4c.3-.5.7-.9,1.2-1.2.5-.3,1-.4,1.6-.4.9,0,1.6.3,2,.8.4.5.7,1.3.7,2.3v5.5h-.9v-5.6c0-.8-.2-1.3-.5-1.7-.3-.4-.8-.6-1.5-.6s-1.1.2-1.5.5-.8.9-1,1.5v5.8h-.9v-8.5h.9Z"/>
        <path class="cls-5" d="M105.4,151.5c0-1.3.3-2.4.9-3.1s1.4-1.2,2.4-1.2,2,.5,2.6,1.4v-1.2h.9v8.3c0,1.1-.3,2-.9,2.6s-1.4,1-2.5,1-1.1-.1-1.7-.4c-.5-.3-1-.6-1.3-1.1l.5-.6c.7.8,1.4,1.2,2.4,1.2s1.4-.2,1.8-.7.7-1.1.7-1.9v-1.1c-.6.8-1.5,1.2-2.6,1.2s-1.8-.4-2.4-1.2-.9-1.8-.9-3.2h0ZM106.3,151.7c0,1.1.2,1.9.6,2.6.4.6,1,.9,1.8.9,1.2,0,2-.5,2.4-1.5v-3.9c-.2-.5-.5-1-.9-1.2-.4-.3-.9-.4-1.5-.4s-1.4.3-1.8.9-.7,1.5-.7,2.7Z"/>
        <path class="cls-5" d="M118.5,148.2c-.2,0-.4,0-.6,0-.6,0-1.1.2-1.5.5-.4.3-.7.8-.9,1.4v5.8h-.9v-8.5h.9v1.3c.5-1,1.3-1.5,2.4-1.5s.5,0,.6.1v.9Z"/>
        <path class="cls-5" d="M119.3,151.5c0-.8.2-1.5.5-2.2.3-.7.8-1.2,1.3-1.5.6-.4,1.2-.5,2-.5,1.1,0,2,.4,2.7,1.2.7.8,1,1.8,1,3.1v.2c0,.8-.2,1.6-.5,2.2-.3.7-.8,1.2-1.3,1.5-.6.4-1.2.5-2,.5-1.1,0-2-.4-2.7-1.2-.7-.8-1.1-1.8-1.1-3.1v-.2ZM120.2,151.7c0,1,.3,1.8.8,2.5s1.2,1,2.1,1,1.5-.3,2.1-1,.8-1.5.8-2.6v-.2c0-.6-.1-1.2-.4-1.8-.2-.5-.6-1-1-1.2-.4-.3-.9-.4-1.5-.4-.8,0-1.5.3-2,1-.5.7-.8,1.5-.8,2.6v.2Z"/>
        <path class="cls-5" d="M134.2,154.8c-.6.8-1.5,1.2-2.7,1.2s-1.6-.3-2.1-.8-.7-1.3-.7-2.3v-5.5h.9v5.4c0,1.6.7,2.4,2,2.4s2.2-.6,2.6-1.7v-6.1h.9v8.5h-.9v-1.1Z"/>
        <path class="cls-5" d="M144.4,151.7c0,1.3-.3,2.4-.9,3.1-.6.8-1.4,1.2-2.3,1.2s-2-.4-2.7-1.2v4.3h-.9v-11.7h.9v1.2c.7-.9,1.5-1.4,2.7-1.4s1.8.4,2.4,1.1c.6.8.9,1.8.9,3.2h0ZM143.4,151.5c0-1.1-.2-1.9-.7-2.6-.4-.6-1.1-.9-1.9-.9s-1.1.1-1.5.4c-.4.3-.7.7-.9,1.2v4.1c.2.5.5.9,1,1.1.4.3.9.4,1.5.4s1.4-.3,1.8-.9c.4-.6.7-1.5.7-2.7Z"/>
        <path class="cls-5" d="M149.8,151.5c0-.8.2-1.5.5-2.2.3-.7.8-1.2,1.3-1.5.6-.4,1.2-.5,2-.5,1.1,0,2,.4,2.7,1.2.7.8,1,1.8,1,3.1v.2c0,.8-.2,1.6-.5,2.2-.3.7-.8,1.2-1.3,1.5-.6.4-1.2.5-2,.5-1.1,0-2-.4-2.7-1.2-.7-.8-1.1-1.8-1.1-3.1v-.2ZM150.8,151.7c0,1,.3,1.8.8,2.5s1.2,1,2.1,1,1.5-.3,2.1-1,.8-1.5.8-2.6v-.2c0-.6-.1-1.2-.4-1.8-.2-.5-.6-1-1-1.2-.4-.3-.9-.4-1.5-.4-.8,0-1.5.3-2,1-.5.7-.8,1.5-.8,2.6v.2Z"/>
        <path class="cls-5" d="M160,155.8v-7.7h-1.4v-.8h1.4v-1c0-.9.2-1.5.7-2,.4-.5,1.1-.7,1.8-.7s.7,0,1,.1v.8c-.3,0-.6,0-.9,0-.5,0-.9.2-1.2.5-.3.3-.4.8-.4,1.4v1h2v.8h-2v7.7h-.9Z"/>
        <path class="cls-5" d="M171.1,154.5l2.6-7.2h1l-3.2,8.5h-.8l-3.2-8.5h1l2.6,7.2Z"/>
        <path class="cls-5" d="M176.1,144.9c0-.2,0-.3.2-.4.1-.1.3-.2.5-.2s.4,0,.5.2c.1.1.2.3.2.4s0,.3-.2.4-.3.2-.5.2-.4,0-.5-.2c-.1-.1-.2-.3-.2-.4ZM177.2,155.8h-.9v-8.5h.9v8.5Z"/>
        <path class="cls-5" d="M184.8,153.7c0-.5-.2-.8-.6-1.1-.4-.3-.9-.5-1.7-.7s-1.3-.3-1.7-.5-.7-.5-.9-.8c-.2-.3-.3-.7-.3-1.1,0-.7.3-1.2.8-1.7.6-.4,1.3-.7,2.1-.7s1.7.2,2.3.7.9,1.1.9,1.8h-.9c0-.5-.2-.9-.6-1.2s-.9-.5-1.6-.5-1.1.1-1.5.4c-.4.3-.6.6-.6,1.1s.2.7.5,1c.3.2.9.4,1.7.6s1.4.4,1.8.6c.4.2.7.5.9.8.2.3.3.7.3,1.1,0,.7-.3,1.3-.9,1.7-.6.4-1.3.6-2.3.6s-1.8-.2-2.4-.7c-.6-.5-.9-1.1-.9-1.8h.9c0,.5.3,1,.7,1.3.4.3,1,.5,1.7.5s1.2-.1,1.6-.4c.4-.3.6-.6.6-1.1Z"/>
        <path class="cls-5" d="M193.3,154.8c-.6.8-1.5,1.2-2.7,1.2s-1.6-.3-2.1-.8-.7-1.3-.7-2.3v-5.5h.9v5.4c0,1.6.7,2.4,2,2.4s2.2-.6,2.6-1.7v-6.1h.9v8.5h-.9v-1.1Z"/>
        <path class="cls-5" d="M202,155.8c0-.3-.2-.7-.2-1.2-.3.4-.7.8-1.3,1s-1,.3-1.6.3c-.8,0-1.5-.2-2-.7-.5-.5-.8-1-.8-1.7s.3-1.5,1-2c.7-.5,1.6-.7,2.9-.7h1.7v-1c0-.6-.2-1.1-.6-1.4-.4-.3-.9-.5-1.6-.5s-1.2.2-1.6.5c-.4.3-.6.7-.6,1.2h-.9c0-.7.3-1.3.9-1.8s1.4-.7,2.3-.7,1.7.2,2.2.7c.5.5.8,1.1.8,2v4c0,.8,0,1.4.3,1.8h0c0,0-1,0-1,0ZM199.1,155.2c.6,0,1.2-.2,1.7-.5s.9-.7,1.1-1.2v-1.9h-1.7c-.9,0-1.7.2-2.2.5-.5.3-.8.8-.8,1.4s.2.9.5,1.2.8.5,1.4.5Z"/>
        <path class="cls-5" d="M206.3,155.8h-.9v-12h.9v12Z"/>
        <path class="cls-5" d="M208.8,144.9c0-.2,0-.3.2-.4.1-.1.3-.2.5-.2s.4,0,.5.2c.1.1.2.3.2.4s0,.3-.2.4-.3.2-.5.2-.4,0-.5-.2c-.1-.1-.2-.3-.2-.4ZM209.9,155.8h-.9v-8.5h.9v8.5Z"/>
        <path class="cls-5" d="M213,155h5.5v.8h-6.6v-.7l5.1-7h-5v-.8h6.1v.7l-5.1,7Z"/>
        <path class="cls-5" d="M225.5,155.8c0-.3-.2-.7-.2-1.2-.3.4-.7.8-1.3,1s-1,.3-1.6.3c-.8,0-1.5-.2-2-.7s-.8-1-.8-1.7.3-1.5,1-2,1.6-.7,2.9-.7h1.7v-1c0-.6-.2-1.1-.6-1.4s-.9-.5-1.6-.5-1.2.2-1.6.5-.6.7-.6,1.2h-.9c0-.7.3-1.3.9-1.8s1.4-.7,2.3-.7,1.7.2,2.2.7.8,1.1.8,2v4c0,.8,0,1.4.3,1.8h0c0,0-1,0-1,0ZM222.6,155.2c.6,0,1.2-.2,1.7-.5s.9-.7,1.1-1.2v-1.9h-1.7c-.9,0-1.7.2-2.2.5s-.8.8-.8,1.4.2.9.5,1.2.8.5,1.4.5Z"/>
        <path class="cls-5" d="M230.2,145.2v2.2h1.8v.8h-1.8v5.6c0,.5,0,.8.3,1s.5.3.8.3.4,0,.8,0v.8c-.2,0-.5.1-1,.1-.6,0-1.1-.2-1.4-.6s-.4-.9-.4-1.6v-5.6h-1.6v-.8h1.6v-2.2h.9Z"/>
        <path class="cls-5" d="M233.8,144.9c0-.2,0-.3.2-.4.1-.1.3-.2.5-.2s.4,0,.5.2c.1.1.2.3.2.4s0,.3-.2.4-.3.2-.5.2-.4,0-.5-.2-.2-.3-.2-.4ZM234.9,155.8h-.9v-8.5h.9v8.5Z"/>
        <path class="cls-5" d="M237,151.5c0-.8.2-1.5.5-2.2s.8-1.2,1.3-1.5,1.2-.5,2-.5c1.1,0,2,.4,2.7,1.2s1,1.8,1,3.1v.2c0,.8-.2,1.6-.5,2.2s-.8,1.2-1.3,1.5-1.2.5-2,.5c-1.1,0-2-.4-2.7-1.2s-1.1-1.8-1.1-3.1v-.2ZM237.9,151.7c0,1,.3,1.8.8,2.5s1.2,1,2.1,1,1.5-.3,2.1-1,.8-1.5.8-2.6v-.2c0-.6-.1-1.2-.4-1.8s-.6-1-1-1.2-.9-.4-1.5-.4c-.8,0-1.5.3-2,1s-.8,1.5-.8,2.6v.2Z"/>
        <path class="cls-5" d="M247.3,147.4v1.4c.3-.5.7-.9,1.2-1.2s1-.4,1.6-.4c.9,0,1.6.3,2,.8s.7,1.3.7,2.3v5.5h-.9v-5.6c0-.8-.2-1.3-.5-1.7s-.8-.6-1.5-.6-1.1.2-1.5.5-.8.9-1,1.5v5.8h-.9v-8.5h.9Z"/>
        <path class="cls-5" d="M264.5,155.8c0-.3-.2-.7-.2-1.2-.3.4-.7.8-1.3,1s-1,.3-1.6.3c-.8,0-1.5-.2-2-.7s-.8-1-.8-1.7.3-1.5,1-2,1.6-.7,2.9-.7h1.7v-1c0-.6-.2-1.1-.6-1.4s-.9-.5-1.6-.5-1.2.2-1.6.5-.6.7-.6,1.2h-.9c0-.7.3-1.3.9-1.8s1.4-.7,2.3-.7,1.7.2,2.2.7.8,1.1.8,2v4c0,.8,0,1.4.3,1.8h0c0,0-1,0-1,0ZM261.5,155.2c.6,0,1.2-.2,1.7-.5s.9-.7,1.1-1.2v-1.9h-1.7c-.9,0-1.7.2-2.2.5s-.8.8-.8,1.4.2.9.5,1.2.8.5,1.4.5Z"/>
        <path class="cls-5" d="M268.6,147.4v1.4c.3-.5.7-.9,1.2-1.2s1-.4,1.6-.4c.9,0,1.6.3,2,.8s.7,1.3.7,2.3v5.5h-.9v-5.6c0-.8-.2-1.3-.5-1.7s-.8-.6-1.5-.6-1.1.2-1.5.5-.8.9-1,1.5v5.8h-.9v-8.5h.9Z"/>
        <path class="cls-5" d="M276.1,151.5c0-1.3.3-2.4.9-3.1s1.4-1.2,2.4-1.2,2,.5,2.6,1.4v-4.7h.9v12h-.9v-1.1c-.6.9-1.5,1.3-2.7,1.3s-1.8-.4-2.4-1.2-.9-1.8-.9-3.2h0ZM277,151.7c0,1.1.2,1.9.6,2.6s1,.9,1.8.9c1.2,0,2-.5,2.5-1.5v-4c-.5-1.1-1.3-1.6-2.4-1.6s-1.4.3-1.8.9-.7,1.5-.7,2.7Z"/>
        <path class="cls-5" d="M291.9,154.5l2.6-7.2h1l-3.2,8.5h-.8l-3.2-8.5h1l2.6,7.2Z"/>
        <path class="cls-5" d="M296.9,144.9c0-.2,0-.3.2-.4.1-.1.3-.2.5-.2s.4,0,.5.2c.1.1.2.3.2.4s0,.3-.2.4-.3.2-.5.2-.4,0-.5-.2-.2-.3-.2-.4ZM298,155.8h-.9v-8.5h.9v8.5Z"/>
        <path class="cls-5" d="M305.6,153.7c0-.5-.2-.8-.6-1.1s-.9-.5-1.7-.7-1.3-.3-1.7-.5-.7-.5-.9-.8-.3-.7-.3-1.1c0-.7.3-1.2.8-1.7s1.3-.7,2.1-.7,1.7.2,2.3.7.9,1.1.9,1.8h-.9c0-.5-.2-.9-.6-1.2s-.9-.5-1.6-.5-1.1.1-1.5.4-.6.6-.6,1.1.2.7.5,1,.9.4,1.7.6,1.4.4,1.8.6.7.5.9.8.3.7.3,1.1c0,.7-.3,1.3-.9,1.7s-1.3.6-2.3.6-1.8-.2-2.4-.7-.9-1.1-.9-1.8h.9c0,.5.3,1,.7,1.3s1,.5,1.7.5,1.2-.1,1.6-.4.6-.6.6-1.1Z"/>
        <path class="cls-5" d="M314.1,154.8c-.6.8-1.5,1.2-2.7,1.2s-1.6-.3-2.1-.8-.7-1.3-.7-2.3v-5.5h.9v5.4c0,1.6.7,2.4,2,2.4s2.2-.6,2.6-1.7v-6.1h.9v8.5h-.9v-1.1Z"/>
        <path class="cls-5" d="M322.8,155.8c0-.3-.2-.7-.2-1.2-.3.4-.7.8-1.3,1s-1,.3-1.6.3c-.8,0-1.5-.2-2-.7s-.8-1-.8-1.7.3-1.5,1-2,1.6-.7,2.9-.7h1.7v-1c0-.6-.2-1.1-.6-1.4s-.9-.5-1.6-.5-1.2.2-1.6.5-.6.7-.6,1.2h-.9c0-.7.3-1.3.9-1.8s1.4-.7,2.3-.7,1.7.2,2.2.7.8,1.1.8,2v4c0,.8,0,1.4.3,1.8h0c0,0-1,0-1,0ZM319.8,155.2c.6,0,1.2-.2,1.7-.5s.9-.7,1.1-1.2v-1.9h-1.7c-.9,0-1.7.2-2.2.5s-.8.8-.8,1.4.2.9.5,1.2.8.5,1.4.5Z"/>
        <path class="cls-5" d="M327,155.8h-.9v-12h.9v12Z"/>
        <path class="cls-5" d="M336.6,155.2c.7,0,1.2-.2,1.6-.6s.7-.8.7-1.4h.9c0,.5-.2,1-.5,1.4s-.7.8-1.2,1-1,.4-1.6.4c-1.1,0-2-.4-2.6-1.2s-1-1.8-1-3.1v-.3c0-.8.1-1.6.4-2.2s.7-1.1,1.3-1.5,1.2-.5,1.9-.5,1.7.3,2.3.8.9,1.3,1,2.2h-.9c0-.7-.3-1.2-.7-1.6s-1-.6-1.6-.6-1.5.3-2,.9-.7,1.5-.7,2.6v.3c0,1.1.2,1.9.7,2.5s1.1.9,2,.9Z"/>
        <path class="cls-5" d="M341.2,151.5c0-.8.2-1.5.5-2.2s.8-1.2,1.3-1.5,1.2-.5,2-.5c1.1,0,2,.4,2.7,1.2s1,1.8,1,3.1v.2c0,.8-.2,1.6-.5,2.2s-.8,1.2-1.3,1.5-1.2.5-2,.5c-1.1,0-2-.4-2.7-1.2s-1.1-1.8-1.1-3.1v-.2ZM342.1,151.7c0,1,.3,1.8.8,2.5s1.2,1,2.1,1,1.5-.3,2.1-1,.8-1.5.8-2.6v-.2c0-.6-.1-1.2-.4-1.8s-.6-1-1-1.2-.9-.4-1.5-.4c-.8,0-1.5.3-2,1s-.8,1.5-.8,2.6v.2Z"/>
        <path class="cls-5" d="M351.5,147.4v1.4c.3-.5.7-.9,1.2-1.1s1-.4,1.6-.4c1.3,0,2.2.5,2.5,1.6.3-.5.7-.9,1.2-1.2s1.1-.4,1.7-.4c1.8,0,2.7,1,2.8,3v5.6h-.9v-5.6c0-.8-.2-1.3-.5-1.7s-.8-.5-1.6-.5c-.7,0-1.2.2-1.7.7s-.7.9-.8,1.6v5.6h-.9v-5.6c0-.7-.2-1.3-.5-1.6s-.9-.5-1.6-.5-1.1.2-1.5.5-.7.8-.9,1.5v5.8h-.9v-8.5h.9Z"/>
        <path class="cls-5" d="M371.7,151.7c0,1.3-.3,2.4-.9,3.1s-1.4,1.2-2.3,1.2-2-.4-2.7-1.2v4.3h-.9v-11.7h.9v1.2c.7-.9,1.5-1.4,2.7-1.4s1.8.4,2.4,1.1.9,1.8.9,3.2h0ZM370.7,151.5c0-1.1-.2-1.9-.7-2.6s-1.1-.9-1.9-.9-1.1.1-1.5.4-.7.7-.9,1.2v4.1c.2.5.5.9,1,1.1s.9.4,1.5.4,1.4-.3,1.8-.9.7-1.5.7-2.7Z"/>
        <path class="cls-5" d="M379.2,154.8c-.6.8-1.5,1.2-2.7,1.2s-1.6-.3-2.1-.8-.7-1.3-.7-2.3v-5.5h.9v5.4c0,1.6.7,2.4,2,2.4s2.2-.6,2.6-1.7v-6.1h.9v8.5h-.9v-1.1Z"/>
        <path class="cls-5" d="M384,145.2v2.2h1.8v.8h-1.8v5.6c0,.5,0,.8.3,1s.5.3.8.3.4,0,.8,0v.8c-.2,0-.5.1-1,.1-.6,0-1.1-.2-1.4-.6s-.4-.9-.4-1.6v-5.6h-1.6v-.8h1.6v-2.2h.9Z"/>
        <path class="cls-5" d="M387.6,144.9c0-.2,0-.3.2-.4.1-.1.3-.2.5-.2s.4,0,.5.2c.1.1.2.3.2.4s0,.3-.2.4-.3.2-.5.2-.4,0-.5-.2-.2-.3-.2-.4ZM388.7,155.8h-.9v-8.5h.9v8.5Z"/>
        <path class="cls-5" d="M392.1,147.4v1.4c.3-.5.7-.9,1.2-1.2s1-.4,1.6-.4c.9,0,1.6.3,2,.8s.7,1.3.7,2.3v5.5h-.9v-5.6c0-.8-.2-1.3-.5-1.7s-.8-.6-1.5-.6-1.1.2-1.5.5-.8.9-1,1.5v5.8h-.9v-8.5h.9Z"/>
        <path class="cls-5" d="M399.7,151.5c0-1.3.3-2.4.9-3.1s1.4-1.2,2.4-1.2,2,.5,2.6,1.4v-1.2h.9v8.3c0,1.1-.3,2-.9,2.6s-1.4,1-2.5,1-1.1-.1-1.7-.4-1-.6-1.3-1.1l.5-.6c.7.8,1.4,1.2,2.4,1.2s1.4-.2,1.8-.7.7-1.1.7-1.9v-1.1c-.6.8-1.5,1.2-2.6,1.2s-1.8-.4-2.4-1.2-.9-1.8-.9-3.2h0ZM400.6,151.7c0,1.1.2,1.9.6,2.6s1,.9,1.8.9c1.2,0,2-.5,2.4-1.5v-3.9c-.2-.5-.5-1-.9-1.2s-.9-.4-1.5-.4-1.4.3-1.8.9-.7,1.5-.7,2.7Z"/>
      </g>
      <text/>
    </g>
  </g>
</svg>