<?xml version="1.0" encoding="UTF-8"?>
<svg id="Layer_1" data-name="Layer 1" xmlns="http://www.w3.org/2000/svg" width="467" height="200" version="1.1" viewBox="0 0 467 200">
  <defs>
    <style>
      .cls-1 {
        font-family: CaviarDreams, 'Caviar Dreams';
        font-size: 144.2px;
      }

      .cls-1, .cls-2, .cls-3 {
        isolation: isolate;
      }

      .cls-1, .cls-4 {
        fill: #454545;
      }

      .cls-2 {
        fill: #7b7781;
        font-family: Roboto-Light, Roboto;
        font-size: 18px;
        font-weight: 300;
      }

      .cls-5 {
        fill: #444143;
      }

      .cls-5, .cls-4, .cls-6 {
        stroke-width: 0px;
      }

      .cls-6 {
        fill: #cbe1cc;
      }
    </style>
  </defs>
  <g id="Layer_1-2" data-name="Layer 1">
    <g id="Layer_1-2" data-name="Layer 1-2">
      <path class="cls-4" d="M74,20.6c1.4-2.4,4.7-2.4,6.2,0,12.2,21.2,57.1,32.6,60.3,67,2.8,30.5-20.1,55.4-63.4,55.4S10.9,118.1,13.8,87.6c3.2-34.5,48.1-45.8,60.3-67h0Z"/>
      <path class="cls-6" d="M134.2,88.3c-1.7-18.3-17.7-29.5-33.2-40.5-8.2-5.8-16.1-11.3-21.7-17.8-1.1-1.3-3.1-1.3-4.2,0-5.7,6.5-13.5,12-21.7,17.8-15.4,10.9-31.4,22.2-33.2,40.5-1.2,12.2,2.3,23,10,31.4,10,10.9,26.7,17,47.1,17s37-6.1,47.1-17c7.7-8.4,11.2-19.3,10-31.4h-.1Z"/>
      <g>
        <path class="cls-5" d="M46.8,105.1c-.9,0-1.9-.4-2.5-1.2-1.1-1.4-.8-3.4.6-4.5l1.8-1.4c1.4-1.1,3.4-.8,4.5.6s.8,3.4-.6,4.5l-1.8,1.4c-.6.5-1.3.7-2,.7h0Z"/>
        <path class="cls-5" d="M45.8,89.3c-.7,0-1.4-.2-2-.7l-.9-.8c-1.3-1.1-1.5-3.1-.5-4.5,1.1-1.3,3.1-1.5,4.5-.5l.9.8c1.3,1.1,1.5,3.1.5,4.5-.6.8-1.5,1.2-2.5,1.2h0Z"/>
        <path class="cls-5" d="M61,74.2c-.9,0-1.8-.4-2.5-1.2l-.9-1.2c-1.1-1.3-.9-3.3.4-4.5s3.3-.9,4.5.4l.9,1.2c1.1,1.3.9,3.3-.4,4.5-.6.5-1.3.7-2,.7h0Z"/>
        <path class="cls-5" d="M77.5,59.3c-1.1,0-2.1-.6-2.7-1.5-.9-1.5-.4-3.4,1.1-4.4l.9-.6c1.5-.9,3.4-.4,4.4,1.1.9,1.5.4,3.4-1.1,4.4l-.9.6c-.5.4-1.1.5-1.7.5h0Z"/>
        <path class="cls-5" d="M93,73.7c-.9,0-2-.5-2.6-1.3-1.1-1.4-.7-3.4.7-4.4l2.1-1.5c1.4-1.1,3.4-.7,4.4.7,1.1,1.4.7,3.4-.7,4.4l-2.1,1.5c-.6.4-1.2.6-1.9.6h.1Z"/>
        <path class="cls-5" d="M104.7,86.4c-1.5,0-2.8-1.1-3.1-2.5l-.4-2c-.4-1.8.8-3.4,2.5-3.7s3.4.8,3.7,2.5l.4,2c.4,1.8-.8,3.4-2.5,3.7h-.6Z"/>
        <path class="cls-5" d="M111.9,100.4c-.5,0-.9,0-1.4-.4l-1.5-.8c-1.5-.8-2.3-2.7-1.4-4.3.8-1.5,2.7-2.3,4.3-1.4l1.5.8c1.5.8,2.3,2.7,1.4,4.3-.6,1.1-1.7,1.8-2.8,1.8Z"/>
      </g>
      <path class="cls-5" d="M101.2,114.8c-1.8,0-3.2-1.4-3.2-3.2v-.4c0-1.8,1.4-3.2,3.2-3.2s3.2,1.4,3.2,3.2v.4c0,1.8-1.4,3.2-3.2,3.2Z"/>
      <path class="cls-5" d="M63.1,95.4c-1.1,0-2.1-.6-2.7-1.5l-1.9-3.2c-.9-1.5-.4-3.4,1.1-4.4,1.5-.9,3.4-.4,4.4,1.1l1.9,3.2c.9,1.5.4,3.4-1.1,4.4-.5.4-1.1.5-1.7.5h0Z"/>
      <path class="cls-5" d="M81.2,89.3c-.9,0-1.9-.5-2.5-1.3-1.1-1.4-.8-3.4.6-4.4l.8-.6c1.4-1.1,3.4-.8,4.4.6,1.1,1.4.8,3.4-.6,4.4l-.8.6c-.6.5-1.3.6-1.9.6h0Z"/>
      <path class="cls-5" d="M59.7,116.1c-.6,0-1.2-.1-1.8-.5l-.8-.6c-1.4-.9-1.9-3-.9-4.4.9-1.4,3-1.9,4.4-.9l.8.6c1.4.9,1.9,3,.9,4.4-.6.9-1.7,1.4-2.6,1.4Z"/>
      <path class="cls-5" d="M74.5,75.5c-.7,0-1.3-.2-1.9-.6l-.8-.6c-1.4-1.1-1.7-3.1-.6-4.4s3.1-1.7,4.4-.6l.8.6c1.4,1.1,1.7,3.1.6,4.4-.6.8-1.5,1.3-2.5,1.3h0Z"/>
      <path class="cls-5" d="M91.2,101.1c-1.2,0-2.3-.6-2.8-1.8l-.2-.4c-.8-1.5-.1-3.4,1.4-4.3,1.5-.8,3.4-.1,4.3,1.4l.2.4c.8,1.5.1,3.4-1.4,4.3-.5.2-.9.4-1.4.4Z"/>
      <path class="cls-5" d="M79.3,109.9c-1.2,0-2.3-.6-2.8-1.8l-.2-.4c-.8-1.5-.1-3.4,1.4-4.3,1.5-.8,3.4-.1,4.3,1.4l.2.4c.8,1.5.1,3.4-1.4,4.3-.5.2-.9.4-1.4.4Z"/>
    </g>
    <g class="cls-3">
      <text class="cls-1" transform="translate(165.6 136)"><tspan x="0" y="0">FIGX</tspan></text>
    </g>
    <g class="cls-3">
      <text class="cls-2" transform="translate(12.8 183.3)"><tspan x="0" y="0">F’s innovation group of visualization and visual computing</tspan></text>
      <text/>
    </g>
  </g>
</svg>